<svg width="24" height="24" viewBox="0 0 24 24" fill="none" xmlns="http://www.w3.org/2000/svg">
<path d="M10.1102 6.32046C6.97859 8.19991 8.93147 8.51696 15.646 12.1684C20.6167 14.8721 10.5887 20.4234 5.04517 23.1242H9.43574C27.3623 11.4915 13.059 11.5299 9.47464 8.28793C13.2506 10.2714 20.6881 10.3089 21.384 15.1551C21.5785 18.2371 19.6052 22.0996 19.0455 23.1261H21.0694C21.6143 23.1239 22.1361 22.9061 22.5209 22.5203C22.9057 22.1345 23.1221 21.6121 23.1229 21.0672V2.80664C23.101 2.82317 23.0869 2.83193 23.0869 2.83193C23.0869 2.83193 13.4149 4.33938 10.1102 6.32046Z" fill="#FFC114"/>
<path d="M4.47373 7.94816C2.74162 3.53959 23.0864 1.91057 23.0864 1.91057L23.116 1.92856C23.0825 1.40717 22.8522 0.917969 22.4717 0.559934C22.0912 0.201899 21.5889 0.0017585 21.0664 0H2.05597C1.51125 0.00153911 0.989273 0.218577 0.604051 0.603708C0.218829 0.988838 0.00166796 1.51076 0 2.05548L0 18.1765L7.35442 15.5885C16.0048 12.543 6.20292 12.3557 4.47275 7.94864" fill="#FFC114"/>
<path d="M23.116 1.9301C23.1063 1.92427 23.0971 1.91794 23.0864 1.91211C23.0864 1.91211 2.74113 3.54064 4.47275 7.94921C6.20438 12.3578 16.0052 12.5435 7.35442 15.5891L0 18.1775V21.0674C0.00166796 21.6122 0.218829 22.1341 0.604051 22.5192C0.989273 22.9043 1.51125 23.1214 2.05597 23.1229H5.04315C10.5867 20.4221 20.6161 14.8708 15.6439 12.1672C8.9314 8.51669 6.97853 8.19964 10.1096 6.32067C13.4163 4.33765 23.0864 2.83214 23.0864 2.83214C23.0864 2.83214 23.1005 2.8229 23.1224 2.80685V2.05653C23.1224 2.01374 23.1185 1.97192 23.116 1.9301Z" fill="white"/>
<path d="M21.3805 15.1513C20.6842 10.3056 13.2466 10.2677 9.47115 8.28418C13.0555 11.5262 27.3588 11.4878 9.43225 23.1204H19.0425C19.6022 22.0939 21.5755 18.2314 21.381 15.1494" fill="white"/>
</svg>
