<svg width="48" height="48" viewBox="0 0 48 48" fill="none" xmlns="http://www.w3.org/2000/svg">
<path d="M24 0C41.666 0 48 6.334 48 24C48 41.666 41.666 48 24 48C6.334 48 0 41.666 0 24C0 7 6.334 0 24 0ZM16.08 15.6C13.392 15.6 12.048 15.6 11.022 16.124C10.118 16.584 9.384 17.318 8.924 18.22C8.4 19.248 8.39999 20.592 8.39999 23.28V30.12C8.39999 32.808 8.4 34.152 8.924 35.18C9.384 36.082 10.118 36.818 11.022 37.278C12.048 37.8 13.392 37.798 16.08 37.798H31.92C34.608 37.798 35.954 37.8 36.98 37.278C37.884 36.818 38.618 36.082 39.078 35.18C39.602 34.152 39.6 32.808 39.6 30.12V23.28C39.6 20.592 39.6 19.248 39.078 18.22C38.618 17.318 37.884 16.584 36.98 16.124C35.954 15.6 34.608 15.6 31.92 15.6H16.08ZM19.32 21.6C20.328 21.6 20.832 21.6 21.216 21.794C21.556 21.968 21.832 22.244 22.004 22.582C22.2 22.968 22.202 23.472 22.202 24.48V26.52C22.202 27.526 22.2 28.032 22.004 28.416C21.832 28.754 21.556 29.03 21.216 29.204C20.832 29.4 20.328 29.4 19.32 29.4H17.282C16.274 29.4 15.768 29.4 15.382 29.204C15.044 29.03 14.768 28.754 14.596 28.416C14.4 28.032 14.4 27.526 14.4 26.52V24.48C14.4 23.472 14.4 22.968 14.596 22.582C14.768 22.244 15.044 21.968 15.382 21.794C15.768 21.598 16.274 21.6 17.282 21.6H19.32ZM33 26.4C33.828 26.4 34.5 27.072 34.5 27.9C34.5 28.728 33.828 29.4 33 29.4H26.4C25.572 29.4 24.9 28.728 24.9 27.9C24.9 27.072 25.572 26.4 26.4 26.4H33ZM33 21.6C33.828 21.6 34.5 22.272 34.5 23.1C34.5 23.928 33.828 24.6 33 24.6H26.4C25.572 24.6 24.9 23.928 24.9 23.1C24.9 22.272 25.572 21.6 26.4 21.6H33ZM15.6 12C15.042 12 14.764 12 14.532 12.038C13.472 12.204 12.602 12.92 12.214 13.884C13.222 13.8 14.496 13.8 16.202 13.8H31.8C33.504 13.8 34.776 13.8 35.784 13.884C35.396 12.92 34.528 12.204 33.468 12.038C33.236 12 32.958 12 32.4 12H15.6ZM18 9C16.864 9 15.876 9.63 15.368 10.56H32.632C32.124 9.63 31.136 9 30 9H18Z" fill="url(#paint0_linear_978_2271)"/>
<path d="M31.9196 15.5996C34.6076 15.5996 35.9541 15.6 36.9801 16.124C37.8839 16.584 38.6178 17.3179 39.0778 18.2197C39.5998 19.2477 39.5992 20.5923 39.5992 23.2803V30.1201C39.5992 32.8078 39.6016 34.1517 39.0778 35.1797C38.6178 36.0816 37.884 36.8183 36.9801 37.2783C35.9541 37.8003 34.6076 37.7979 31.9196 37.7979H16.0797C13.3921 37.7979 12.048 37.8001 11.0221 37.2783C10.1181 36.8183 9.38346 36.0817 8.92346 35.1797C8.39963 34.1517 8.40002 32.8078 8.40002 30.1201V23.2803C8.40002 20.5923 8.39946 19.2477 8.92346 18.2197C9.38347 17.3178 10.1181 16.584 11.0221 16.124C12.0481 15.6002 13.392 15.5996 16.0797 15.5996H31.9196ZM17.2819 21.5996C16.2739 21.5996 15.7675 21.5979 15.3815 21.7939C15.0435 21.9679 14.7673 22.2441 14.5953 22.582C14.3994 22.968 14.4 23.4726 14.4 24.4805V26.5195C14.4 27.5254 14.3994 28.032 14.5953 28.416C14.7673 28.754 15.0435 29.0301 15.3815 29.2041C15.7675 29.4001 16.2739 29.4004 17.2819 29.4004H19.3199C20.3276 29.4004 20.8315 29.4 21.2155 29.2041C21.5554 29.0301 21.8315 28.754 22.0035 28.416C22.1995 28.032 22.2018 27.5255 22.2018 26.5195V24.4805C22.2018 23.4725 22.1995 22.968 22.0035 22.582C21.8315 22.244 21.5554 21.9679 21.2155 21.7939C20.8315 21.6001 20.3276 21.5996 19.3199 21.5996H17.2819ZM26.4 26.4004C25.572 26.4004 24.9 27.0724 24.9 27.9004C24.9002 28.7282 25.5722 29.4004 26.4 29.4004H32.9996C33.8275 29.4004 34.4994 28.7282 34.4996 27.9004C34.4996 27.0724 33.8276 26.4004 32.9996 26.4004H26.4ZM26.4 21.5996C25.5722 21.5996 24.9002 22.2718 24.9 23.0996C24.9 23.9276 25.572 24.5996 26.4 24.5996H32.9996C33.8276 24.5996 34.4996 23.9276 34.4996 23.0996C34.4994 22.2718 33.8275 21.5996 32.9996 21.5996H26.4ZM32.4 12C32.9576 12 33.2355 12.0001 33.4674 12.0381C34.5274 12.2041 35.3958 12.9198 35.7838 13.8838C34.7758 13.7998 33.5034 13.7998 31.7994 13.7998H16.2018C14.4958 13.7998 13.2215 13.7998 12.2135 13.8838C12.6015 12.9199 13.4719 12.2041 14.5319 12.0381C14.7638 12.0001 15.0417 12 15.5992 12H32.4ZM29.9996 9C31.1355 9 32.1234 9.62979 32.6315 10.5596H15.3678C15.8759 9.62979 16.8638 9 17.9996 9H29.9996Z" fill="white"/>
<defs>
<linearGradient id="paint0_linear_978_2271" x1="24" y1="0" x2="24" y2="48" gradientUnits="userSpaceOnUse">
<stop stop-color="#549DE0"/>
<stop offset="1" stop-color="#5E9BFE"/>
</linearGradient>
</defs>
</svg>
