<svg width="48" height="48" viewBox="0 0 48 48" fill="none" xmlns="http://www.w3.org/2000/svg">
<path d="M24.0001 0C41.6661 0 48.0001 6.334 48.0001 24C48.0001 41.666 41.6661 48 24.0001 48C6.33406 48 6.10352e-05 41.666 6.10352e-05 24C6.10352e-05 7 6.33406 0 24.0001 0Z" fill="url(#paint0_linear_1035_2913)"/>
<path d="M30.1147 13.2802L31.4544 14.6213L34.309 11.768C33.8027 11.6832 33.2347 11.7598 32.5888 11.976C31.7541 12.2566 30.9029 12.741 30.1147 13.2802ZM36.2357 13.7126L33.3894 16.5564L34.7195 17.8866C35.2587 17.0997 35.7417 16.2526 36.0209 15.4205C36.2371 14.7787 36.3151 14.2162 36.2357 13.7126ZM33.0391 20.0762L31.453 18.4901L29.3005 20.6427L31.1315 22.4738L33.0391 20.0762ZM29.4127 24.6278L27.3641 22.5764L24.5451 25.3928C25.9081 25.3202 27.2738 25.4475 28.5164 25.7527L29.4127 24.6278ZM31.2054 26.7708C31.684 27.0203 32.1457 27.301 32.5875 27.6111C33.737 28.4185 34.6757 29.475 35.6665 30.4644L33.0596 30.8982C32.9858 30.9153 32.9128 30.9354 32.8406 30.9585C32.5018 31.0677 32.1704 31.1989 31.8485 31.3512C30.9207 31.7754 29.4647 32.5788 27.4805 34.0677C27.2752 34.2209 27.0357 34.4098 26.7648 34.6206C25.3908 35.6962 23.2397 37.3808 20.9393 38.2977C19.5312 38.8588 17.9342 39.1954 16.3126 38.8766C14.7074 38.5618 13.2377 37.6381 11.9965 36.0027C10.3626 34.7629 9.43893 33.2931 9.12282 31.6879C8.80534 30.0648 9.14061 28.4692 9.70304 27.061C10.6199 24.7619 12.3031 22.6079 13.3787 21.2353C13.5908 20.9643 13.7796 20.7248 13.9329 20.5195C15.4218 18.5352 16.2237 17.0778 16.6492 16.1513C16.8614 15.6888 16.9777 15.3576 17.0406 15.1591C17.0803 15.0332 17.0967 14.9593 17.1022 14.9402L17.536 12.3346C18.5213 13.3199 19.5763 14.2559 20.3824 15.4014C20.6424 15.7736 20.9338 16.232 21.2171 16.7699L27.1767 12.0581C28.3056 11.1549 29.9491 9.9739 31.7199 9.38134C33.5372 8.77236 35.7335 8.72446 37.5084 10.5104C39.2764 12.2894 39.2258 14.479 38.6168 16.2923C38.0216 18.059 36.842 19.6984 35.9402 20.8261H35.9374L35.9347 20.8329L31.2054 26.7708ZM27.9211 14.958L25.5167 16.8561L27.3641 18.7063L29.5181 16.555L27.9211 14.958ZM25.4278 20.6413L23.3546 18.5653L22.238 19.4494C22.5486 20.7043 22.68 22.0837 22.6047 23.4618L25.4278 20.6413Z" fill="white"/>
<defs>
<linearGradient id="paint0_linear_1035_2913" x1="23.8875" y1="3.5" x2="23.8875" y2="48.5" gradientUnits="userSpaceOnUse">
<stop stop-color="#26D32F"/>
<stop offset="1" stop-color="#3336E3"/>
</linearGradient>
</defs>
</svg>
