<svg width="48" height="48" viewBox="0 0 48 48" fill="none" xmlns="http://www.w3.org/2000/svg">
<path d="M24 0C41.666 0 48 6.334 48 24C48 41.666 41.666 48 24 48C6.334 48 0 41.666 0 24C0 7 6.334 0 24 0Z" fill="url(#paint0_linear_1030_2876)"/>
<path d="M11 10.9245C11 7.90773 14.3332 6.02254 17 7.53092L41 21.1061C43.6666 22.6145 43.6666 26.3848 41 27.8932L17 41.4684C14.3332 42.9768 11 41.0916 11 38.0749V10.9245ZM17.2695 17.1979C16.8754 16.8112 16.2423 16.8176 15.8554 17.2116C13.9455 19.1567 12.874 21.7295 12.874 24.4118C12.874 27.094 13.9454 29.6669 15.8554 31.612C16.2423 32.0058 16.8754 32.0122 17.2695 31.6256C17.6634 31.2388 17.6688 30.6057 17.2822 30.2116C15.7296 28.6305 14.874 26.5561 14.874 24.4118C14.874 22.2674 15.7296 20.1931 17.2822 18.612C17.6689 18.2179 17.6634 17.5848 17.2695 17.1979ZM31.8925 17.2116C31.5056 16.8178 30.8725 16.8111 30.4785 17.1979C30.0848 17.5848 30.0793 18.218 30.4658 18.612C32.0185 20.1931 32.874 22.2673 32.874 24.4118C32.8739 26.5562 32.0185 28.6305 30.4658 30.2116C30.0794 30.6056 30.0848 31.2388 30.4785 31.6256C30.8724 32.0123 31.5056 32.0057 31.8925 31.612C33.8026 29.6669 34.8739 27.0941 34.874 24.4118C34.874 21.7294 33.8026 19.1567 31.8925 17.2116ZM20.2851 20.069C19.8814 19.6923 19.2488 19.7142 18.872 20.1178C17.7745 21.2938 17.1601 22.8217 17.1601 24.4128C17.1603 26.0037 17.7745 27.5318 18.872 28.7077C19.2488 29.1109 19.8815 29.132 20.2851 28.7555C20.6886 28.3787 20.7106 27.7461 20.3339 27.3424C19.5735 26.5276 19.1603 25.4845 19.1601 24.4128C19.1601 23.3408 19.5734 22.2971 20.3339 21.4821C20.7107 21.0784 20.6886 20.4459 20.2851 20.069ZM28.8769 20.1178C28.5 19.7143 27.8675 19.6922 27.4638 20.069C27.0607 20.4458 27.0386 21.0785 27.415 21.4821C28.1757 22.2971 28.5888 23.3407 28.5888 24.4128C28.5887 25.4846 28.1756 26.5276 27.415 27.3424C27.0386 27.746 27.0607 28.3787 27.4638 28.7555C27.8673 29.1321 28.5 29.1107 28.8769 28.7077C29.9745 27.5318 30.5887 26.0038 30.5888 24.4128C30.5888 22.8215 29.9746 21.2939 28.8769 20.1178ZM23.874 21.9128C22.4934 21.913 21.374 23.0322 21.374 24.4128C21.374 25.7933 22.4934 26.9126 23.874 26.9128C25.2547 26.9128 26.374 25.7935 26.374 24.4128C26.374 23.032 25.2547 21.9128 23.874 21.9128Z" fill="white"/>
<defs>
<linearGradient id="paint0_linear_1030_2876" x1="23.8875" y1="3.5" x2="23.8875" y2="48.5" gradientUnits="userSpaceOnUse">
<stop stop-color="#FE624E"/>
<stop offset="1" stop-color="#FE4D4D"/>
</linearGradient>
</defs>
</svg>
