<svg width="48" height="48" viewBox="0 0 48 48" fill="none" xmlns="http://www.w3.org/2000/svg">
<path d="M24 0C41.666 0 48 6.334 48 24C48 41.666 41.666 48 24 48C6.334 48 0 41.666 0 24C0 7 6.334 0 24 0Z" fill="url(#paint0_linear_1030_2884)"/>
<path d="M27.2507 23.2311L37.3445 11.3561C37.5484 11.1159 37.8394 10.9666 38.1534 10.941C38.4674 10.9154 38.7787 11.0156 39.0189 11.2195C39.259 11.4235 39.4083 11.7144 39.4339 12.0284C39.4595 12.3424 39.3594 12.6538 39.1554 12.8939L29.0617 24.7689C28.9607 24.8878 28.8373 24.9857 28.6985 25.0569C28.5597 25.1281 28.4083 25.1713 28.2528 25.184C27.9388 25.2096 27.6274 25.1094 27.3873 24.9055C27.1472 24.7015 26.9979 24.4106 26.9722 24.0966C26.9466 23.7826 27.0468 23.4712 27.2507 23.2311ZM40.625 29.9375V34.6875C40.625 35.3174 40.3747 35.9215 39.9293 36.3669C39.4839 36.8123 38.8798 37.0625 38.25 37.0625H30.4867C30.1424 37.0624 29.8023 36.9875 29.4898 36.843C29.1774 36.6984 28.9001 36.4877 28.6772 36.2253L8.84449 12.8939C8.64056 12.6538 8.54039 12.3424 8.566 12.0284C8.59161 11.7144 8.74091 11.4235 8.98105 11.2195C9.2212 11.0156 9.53252 10.9154 9.84652 10.941C10.1605 10.9666 10.4515 11.1159 10.6554 11.3561L24.4304 27.5625H38.25C38.8798 27.5625 39.4839 27.8127 39.9293 28.2581C40.3747 28.7035 40.625 29.3076 40.625 29.9375ZM38.25 29.9375H35.875V34.6875H38.25V29.9375ZM22.1148 32.173C22.206 32.2803 22.2561 32.4166 22.2561 32.5574C22.2561 32.6983 22.206 32.8345 22.1148 32.9419L19.3227 36.2253C19.0998 36.4877 18.8225 36.6984 18.5101 36.843C18.1976 36.9875 17.8575 37.0624 17.5132 37.0625H9.74996C9.12007 37.0625 8.51598 36.8123 8.07058 36.3669C7.62518 35.9215 7.37496 35.3174 7.37496 34.6875V29.9375C7.37496 29.3076 7.62518 28.7035 8.07058 28.2581C8.51598 27.8127 9.12007 27.5625 9.74996 27.5625H17.9214C18.0063 27.5635 18.09 27.5827 18.1668 27.6188C18.2436 27.655 18.3118 27.7071 18.3668 27.7718L22.1148 32.173ZM12.125 29.9375H9.74996V34.6875H12.125V29.9375Z" fill="white"/>
<defs>
<linearGradient id="paint0_linear_1030_2884" x1="23.8875" y1="3.5" x2="23.8875" y2="48.5" gradientUnits="userSpaceOnUse">
<stop stop-color="#499CE9"/>
<stop offset="1" stop-color="#705AF8"/>
</linearGradient>
</defs>
</svg>
