<svg width="48" height="48" viewBox="0 0 48 48" fill="none" xmlns="http://www.w3.org/2000/svg">
<path d="M24 0C41.666 0 48 6.334 48 24C48 41.666 41.666 48 24 48C6.334 48 0 41.666 0 24C0 7 6.334 0 24 0Z" fill="url(#paint0_linear_1030_2885)"/>
<path d="M21 9L20.8245 9.0105C20.4596 9.05349 20.1232 9.22889 19.879 9.50344C19.6349 9.77799 19.5 10.1326 19.5 10.5V16.5H13.5C13.1021 16.5 12.7206 16.658 12.4393 16.9393C12.158 17.2206 12 17.6022 12 18V24L12.0105 24.1755C12.0534 24.5404 12.2288 24.8768 12.5034 25.1209C12.778 25.3651 13.1326 25.5 13.5 25.5H19.5V37.5C19.5 37.8978 19.658 38.2794 19.9393 38.5607C20.2206 38.842 20.6021 39 21 39H27L27.1755 38.9895C27.5403 38.9465 27.8767 38.7711 28.1209 38.4966C28.365 38.222 28.4999 37.8674 28.5 37.5V25.5H34.5C34.8978 25.5 35.2793 25.342 35.5606 25.0607C35.8419 24.7794 36 24.3978 36 24V18L35.9895 17.8245C35.9465 17.4596 35.7711 17.1232 35.4965 16.8791C35.222 16.6349 34.8674 16.5 34.5 16.5H28.5V10.5C28.5 10.1022 28.3419 9.72064 28.0606 9.43934C27.7793 9.15804 27.3978 9 27 9H21Z" fill="white"/>
<defs>
<linearGradient id="paint0_linear_1030_2885" x1="23.8875" y1="3.5" x2="23.8875" y2="48.5" gradientUnits="userSpaceOnUse">
<stop stop-color="#161616"/>
<stop offset="1"/>
</linearGradient>
</defs>
</svg>
