<svg width="48" height="48" viewBox="0 0 48 48" fill="none" xmlns="http://www.w3.org/2000/svg">
<path d="M24 0C41.666 0 48 6.334 48 24C48 41.666 41.666 48 24 48C6.33404 48 4.1013e-05 41.666 4.1013e-05 24C4.1013e-05 7 6.33404 0 24 0Z" fill="url(#paint0_linear_981_2307)"/>
<path fill-rule="evenodd" clip-rule="evenodd" d="M23.8878 9.25034C26.5743 9.25037 28.7869 9.48668 30.4796 9.7728C32.1947 10.0619 33.0519 10.2068 33.7687 11.0892C34.4852 11.9716 34.4465 12.925 34.3712 14.8314C34.1122 21.3811 32.6989 29.5607 25.0167 30.2835V35.6058H27.17C27.5181 35.606 27.8561 35.7259 28.1251 35.9466C28.3941 36.1673 28.5783 36.4746 28.6466 36.8158L28.9327 38.2406H32.923C33.2224 38.2406 33.51 38.3599 33.7218 38.5716C33.9336 38.7835 34.0529 39.0709 34.0529 39.3705C34.0528 39.67 33.9336 39.9575 33.7218 40.1693C33.51 40.3809 33.2224 40.5003 32.923 40.5003H14.8517C14.5522 40.5003 14.2647 40.381 14.0529 40.1693C13.841 39.9575 13.7218 39.67 13.7218 39.3705C13.7218 39.0709 13.841 38.7835 14.0529 38.5716C14.2647 38.3599 14.5522 38.2406 14.8517 38.2406H18.8419L19.1281 36.8158C19.1963 36.4746 19.3806 36.1673 19.6495 35.9466C19.9186 35.7259 20.2566 35.606 20.6046 35.6058H22.7579V30.2835C15.0773 29.5607 13.6644 21.3796 13.4054 14.8314C13.3286 12.9249 13.2912 11.9702 14.0079 11.0892C14.7232 10.2068 15.58 10.0619 17.295 9.7728C19.474 9.41587 21.6798 9.2412 23.8878 9.25034ZM23.8878 13.7679C23.4601 13.7679 23.1739 14.2804 22.6017 15.3089L22.4532 15.5736C22.2906 15.8657 22.2096 16.0104 22.0831 16.1068C21.9551 16.2032 21.7969 16.2391 21.4806 16.3099L21.1945 16.3763C20.0831 16.6278 19.5272 16.7534 19.3947 17.1781C19.2625 17.6026 19.6423 18.0468 20.3995 18.932L20.5948 19.1615C20.8102 19.413 20.9187 19.5381 20.9669 19.6947C21.015 19.8512 20.9985 20.0182 20.9669 20.3539L20.9366 20.6595C20.8222 21.8417 20.7656 22.4336 21.1105 22.6957C21.4569 22.9576 21.9781 22.7185 23.0187 22.2396L23.2863 22.1156C23.5829 21.98 23.7312 21.9125 23.8878 21.9125C24.0443 21.9126 24.192 21.9802 24.4884 22.1156L24.756 22.2396C25.7965 22.72 26.3178 22.9576 26.6642 22.6957C27.0106 22.4336 26.9525 21.8417 26.838 20.6595L26.8077 20.3539C26.7761 20.0183 26.7597 19.8512 26.8077 19.6947C26.8559 19.5381 26.9645 19.413 27.1798 19.1615L27.3751 18.932C28.1324 18.0467 28.5122 17.6042 28.38 17.1781C28.2475 16.7534 27.6916 16.6278 26.5802 16.3763L26.2941 16.3099C25.9778 16.2391 25.8195 16.2047 25.6915 16.1068C25.5651 16.0104 25.484 15.8657 25.3214 15.5736L25.174 15.3089C24.6019 14.2807 24.3153 13.7683 23.8878 13.7679Z" fill="white"/>
<path d="M11.132 14.5892L11.1466 14.9212C11.2475 17.4785 11.523 20.4701 12.3468 23.2533L11.1515 22.5902C10.019 21.9592 9.45055 21.6447 9.13879 21.1146C8.82705 20.5845 8.82727 19.9351 8.82727 18.64V18.5296C8.82727 16.9609 8.82711 16.1732 9.25305 15.5814C9.59642 15.1055 10.1481 14.8505 11.13 14.5101L11.132 14.5892Z" fill="white"/>
<path d="M36.6466 14.5101C37.627 14.8505 38.1782 15.1055 38.5216 15.5814C38.9476 16.1732 38.9474 16.9593 38.9474 18.5296V18.64C38.9474 19.9351 38.9476 20.5845 38.6359 21.1146C38.3241 21.6446 37.7564 21.9593 36.6241 22.5902L35.4298 23.2533C36.2521 20.4701 36.5271 17.4785 36.6281 14.9212L36.6437 14.5892L36.6466 14.5101Z" fill="white"/>
<defs>
<linearGradient id="paint0_linear_981_2307" x1="23.8875" y1="3.5" x2="23.8875" y2="48.5" gradientUnits="userSpaceOnUse">
<stop stop-color="#8573FF"/>
<stop offset="1" stop-color="#8472FC"/>
</linearGradient>
</defs>
</svg>
