<svg width="24" height="24" viewBox="0 0 24 24" fill="none" xmlns="http://www.w3.org/2000/svg">
<path d="M5.474 20.2993L4.872 21.2413C4.66639 21.5907 4.33134 21.8449 3.93951 21.9488C3.54769 22.0527 3.1307 21.9979 2.779 21.7963C2.60529 21.6978 2.45286 21.5658 2.33052 21.4079C2.20818 21.2501 2.11837 21.0695 2.06629 20.8767C2.0142 20.6839 2.00088 20.4827 2.0271 20.2847C2.05331 20.0867 2.11854 19.8959 2.219 19.7233L2.6 19.1653C2.747 18.9573 3.108 18.5973 3.83 18.6653C3.83 18.6653 5.53 18.8483 5.653 19.7233C5.653 19.7233 5.67 20.0113 5.474 20.2993ZM22.468 14.1713H18.853C18.607 14.1553 18.5 14.0683 18.457 14.0173L18.455 14.0123L15 8.41233C14.62 7.83633 14.016 9.30933 14.016 9.30933C13.295 10.9513 14.118 12.8183 14.406 13.3823L19.128 21.2393C19.3336 21.5887 19.6687 21.8429 20.0605 21.9468C20.4523 22.0507 20.8693 21.9959 21.221 21.7943C21.3947 21.6958 21.5471 21.5638 21.6695 21.4059C21.7918 21.2481 21.8816 21.0675 21.9337 20.8747C21.9858 20.6819 21.9991 20.4807 21.9729 20.2827C21.9467 20.0847 21.8815 19.8939 21.781 19.7213L20.438 17.4153C20.412 17.3593 20.366 17.2083 20.642 17.2073H22.468C23.314 17.2073 24 16.5273 24 15.6893C24 14.8513 23.314 14.1713 22.468 14.1713ZM13.764 16.2353C13.764 16.2353 13.957 17.2073 13.21 17.2073H1.532C0.686 17.2073 0 16.5273 0 15.6893C0 14.8513 0.686 14.1713 1.532 14.1713H4.967C5.522 14.1393 5.653 13.8223 5.653 13.8223L5.656 13.8243L10.14 6.13033C10.1649 6.0821 10.1779 6.02861 10.1779 5.97433C10.1779 5.92005 10.1649 5.86656 10.14 5.81833L8.66 3.27733C8.55954 3.10473 8.49431 2.91392 8.4681 2.71593C8.44188 2.51795 8.4552 2.31674 8.50729 2.12394C8.55937 1.93114 8.64918 1.75059 8.77152 1.59274C8.89386 1.43488 9.04629 1.30287 9.22 1.20433C9.57179 1.00244 9.98902 0.947488 10.3811 1.0514C10.7731 1.15532 11.1084 1.40971 11.314 1.75933L12 2.93833L12.685 1.76133C12.8906 1.41198 13.2257 1.15778 13.6175 1.05388C14.0093 0.949977 14.4263 1.00476 14.778 1.20633C14.9518 1.30479 15.1043 1.43674 15.2268 1.59455C15.3492 1.75237 15.4391 1.93291 15.4913 2.12571C15.5435 2.31852 15.5569 2.51976 15.5307 2.71778C15.5046 2.9158 15.4394 3.10667 15.339 3.27933L9.1 13.9863C9.073 14.0513 9.065 14.1533 9.268 14.1713H11.314C11.314 14.1713 13.47 14.2413 13.764 16.2353Z" fill="white"/>
</svg>
