<svg width="48" height="48" viewBox="0 0 48 48" fill="none" xmlns="http://www.w3.org/2000/svg">
<path d="M24 0C41.666 0 48 6.334 48 24C48 41.666 41.666 48 24 48C6.334 48 0 41.666 0 24C0 7 6.334 0 24 0Z" fill="url(#paint0_linear_1030_2882)"/>
<path d="M26.1604 18.6352C31.0115 18.6352 33.7635 21.8458 34.1631 25.7239H34.2856C37.4074 25.7239 39.9382 28.2478 39.9382 31.3619C39.9382 34.4761 37.4074 37 34.2856 37H18.0336C14.9126 37 12.3818 34.4753 12.3818 31.3619C12.3818 28.2486 14.9126 25.7239 18.0344 25.7239H18.1569C18.5595 21.8197 21.3093 18.6352 26.1604 18.6352ZM12.0542 24.9063C12.2208 25.1948 12.274 25.5349 12.2033 25.8605C12.1327 26.186 11.9433 26.4736 11.6722 26.667L11.5635 26.7359L10.5691 27.3101C10.271 27.4827 9.91788 27.534 9.58304 27.4531C9.2482 27.3722 8.95737 27.1655 8.77096 26.8758C8.58455 26.5862 8.51688 26.2358 8.58201 25.8976C8.64713 25.5593 8.84005 25.2592 9.12069 25.0594L9.2294 24.9905L10.2246 24.4164C10.5322 24.2388 10.8977 24.1907 11.2408 24.2826C11.5839 24.3745 11.8764 24.5988 12.0542 24.9063ZM22.8755 17.6033C19.9658 18.5372 17.8928 20.735 17.0423 23.6677L16.9703 23.928L16.8815 24.2924L16.5661 24.3513C15.6496 24.5444 14.7802 24.9164 14.0078 25.446C13.3039 24.2398 13.0401 22.8267 13.2616 21.4478C13.483 20.0689 14.1758 18.8094 15.222 17.8842C16.2681 16.9589 17.6028 16.4252 18.9985 16.374C20.3942 16.3228 21.7644 16.7572 22.8755 17.6033ZM10.4741 17.0896L10.5752 17.1317L11.6163 17.617C11.9291 17.7635 12.1733 18.0252 12.2979 18.3474C12.4224 18.6697 12.4176 19.0276 12.2845 19.3464C12.1515 19.6652 11.9004 19.9202 11.5837 20.0583C11.267 20.1964 10.9093 20.2068 10.5851 20.0874L10.4841 20.0453L9.44298 19.5599C9.13011 19.4135 8.88593 19.1518 8.76141 18.8295C8.63689 18.5073 8.64167 18.1494 8.77474 17.8306C8.90781 17.5118 9.15889 17.2568 9.47555 17.1187C9.79221 16.9806 10.15 16.9702 10.4741 17.0896ZM25.1032 12.6779C25.3789 12.8707 25.572 13.1602 25.644 13.4888C25.7161 13.8175 25.6618 14.1612 25.4921 14.4516L25.4324 14.5435L24.774 15.4851C24.5764 15.7701 24.2759 15.9674 23.9358 16.0354C23.5957 16.1034 23.2424 16.0369 22.9503 15.8498C22.6583 15.6626 22.4502 15.3695 22.3699 15.0321C22.2895 14.6946 22.3432 14.3392 22.5196 14.0405L22.5793 13.9479L23.2376 13.0071C23.3385 12.8629 23.4669 12.74 23.6153 12.6454C23.7637 12.5508 23.9293 12.4864 24.1026 12.4558C24.2759 12.4252 24.4536 12.4291 24.6254 12.4672C24.7972 12.5053 24.9591 12.5769 25.1032 12.6779ZM17.226 12.3572L17.2758 12.4766L17.6685 13.556C17.7863 13.8794 17.7751 14.2358 17.6372 14.5512C17.4993 14.8666 17.2453 15.1168 16.9278 15.2499C16.6104 15.383 16.2539 15.3888 15.9322 15.2662C15.6106 15.1435 15.3486 14.9017 15.2004 14.591L15.1507 14.4715L14.758 13.3921C14.6402 13.0687 14.6514 12.7123 14.7893 12.3969C14.9272 12.0815 15.1812 11.8313 15.4986 11.6982C15.8161 11.5651 16.1726 11.5593 16.4942 11.682C16.8158 11.8047 17.0779 12.0464 17.226 12.3572Z" fill="white"/>
<defs>
<linearGradient id="paint0_linear_1030_2882" x1="23.8875" y1="3.5" x2="23.8875" y2="48.5" gradientUnits="userSpaceOnUse">
<stop stop-color="#5CB2FD"/>
<stop offset="1" stop-color="#3675E6"/>
</linearGradient>
</defs>
</svg>
