<svg width="20" height="24" viewBox="0 0 20 24" fill="none" xmlns="http://www.w3.org/2000/svg">
<path fill-rule="evenodd" clip-rule="evenodd" d="M3 8.50765C3 6.57997 3 5.61613 3.37501 4.87948C3.70505 4.23119 4.23149 3.70452 4.87907 3.37521C5.61521 3 6.57895 3 8.50644 3H11.4936C13.4209 3 14.3847 3 15.1208 3.37521C15.7684 3.70452 16.2949 4.23119 16.6249 4.87948C17 5.61613 17 6.57997 17 8.50765V18.4914C17 19.6572 17 20.2401 16.7588 20.5499C16.5487 20.8207 16.229 20.9825 15.8868 20.9928C15.4938 21.0054 15.0232 20.6612 14.0819 19.9739L11.0984 17.7938C10.7104 17.5103 10.5165 17.3692 10.3042 17.3141C10.1167 17.2659 9.9201 17.2648 9.73254 17.313C9.52008 17.3681 9.32575 17.5092 8.93709 17.7915L5.91417 19.9876C4.97383 20.6715 4.5036 21.0123 4.11104 20.9997C3.7693 20.9893 3.45027 20.8264 3.24068 20.5568C3 20.2458 3 19.6652 3 18.5029V8.50765Z" stroke="#C1C1C1" stroke-width="1.4" stroke-linejoin="round"/>
</svg>
