<svg width="48" height="48" viewBox="0 0 48 48" fill="none" xmlns="http://www.w3.org/2000/svg">
<path d="M24 0C41.666 0 48 6.334 48 24C48 41.666 41.666 48 24 48C6.33404 48 4.1013e-05 41.666 4.1013e-05 24C4.1013e-05 7 6.33404 0 24 0Z" fill="url(#paint0_linear_1010_2322)"/>
<path fill-rule="evenodd" clip-rule="evenodd" d="M24 6C28.8205 6 32.7282 10.1515 32.7282 15.2727H33.5451C35.1165 15.2727 36.4039 16.5984 36.453 18.267L36.9985 36.8125C37.0499 38.5565 35.733 40 34.0906 40H13.9094C12.267 40 10.9501 38.5565 11.0014 36.8125L11.547 18.267C11.5961 16.5984 12.8835 15.2727 14.4549 15.2727H15.2718C15.2718 10.1516 19.1796 6.00002 24 6ZM32.0009 19.9091C31.5993 19.9091 31.2778 20.2558 31.238 20.6803C30.8735 24.5857 27.7719 27.6364 24 27.6364C20.2281 27.6364 17.1265 24.5857 16.762 20.6803C16.7222 20.2558 16.4007 19.9091 15.9991 19.9091C15.5974 19.9091 15.2686 20.2565 15.3016 20.6818C15.6712 25.4415 19.4245 29.1818 24 29.1818C28.5755 29.1818 32.3288 25.4415 32.6984 20.6818C32.7314 20.2565 32.4026 19.9091 32.0009 19.9091ZM24 7.54545C19.983 7.54547 16.7265 11.0051 16.7265 15.2727H31.2735C31.2735 11.0051 28.017 7.54545 24 7.54545Z" fill="white"/>
<defs>
<linearGradient id="paint0_linear_1010_2322" x1="23.8875" y1="3.5" x2="23.8875" y2="48.5" gradientUnits="userSpaceOnUse">
<stop stop-color="#FE624E"/>
<stop offset="1" stop-color="#FE4D4D"/>
</linearGradient>
</defs>
</svg>
