<svg width="48" height="48" viewBox="0 0 48 48" fill="none" xmlns="http://www.w3.org/2000/svg">
<path d="M24 0C41.666 0 48 6.334 48 24C48 41.666 41.666 48 24 48C6.334 48 0 41.666 0 24C0 7 6.334 0 24 0Z" fill="url(#paint0_linear_1030_2881)"/>
<path d="M16.8888 16.8885C17.1246 16.8885 17.3507 16.7948 17.5174 16.6281C17.6841 16.4614 17.7777 16.2353 17.7777 15.9996V10.6662C17.7777 10.4305 17.6841 10.2044 17.5174 10.0377C17.3507 9.87099 17.1246 9.77734 16.8888 9.77734C16.6531 9.77734 16.427 9.87099 16.2603 10.0377C16.0936 10.2044 16 10.4305 16 10.6662V15.9996C16 16.2353 16.0936 16.4614 16.2603 16.6281C16.427 16.7948 16.6531 16.8885 16.8888 16.8885Z" fill="white"/>
<path d="M31.111 16.8885C31.3468 16.8885 31.5729 16.7948 31.7396 16.6281C31.9063 16.4614 31.9999 16.2353 31.9999 15.9996V10.6662C31.9999 10.4305 31.9063 10.2044 31.7396 10.0377C31.5729 9.87099 31.3468 9.77734 31.111 9.77734C30.8753 9.77734 30.6492 9.87099 30.4825 10.0377C30.3158 10.2044 30.2221 10.4305 30.2221 10.6662V15.9996C30.2221 16.2353 30.3158 16.4614 30.4825 16.6281C30.6492 16.7948 30.8753 16.8885 31.111 16.8885Z" fill="white"/>
<path d="M36.6667 13.3331H33.1111V15.9998C33.1111 16.5184 32.9051 17.0158 32.5383 17.3826C32.1716 17.7493 31.6742 17.9553 31.1556 17.9553C30.6369 17.9553 30.1395 17.7493 29.7728 17.3826C29.406 17.0158 29.2 16.5184 29.2 15.9998V13.3331H18.8444V15.9998C18.8444 16.5184 18.6384 17.0158 18.2717 17.3826C17.9049 17.7493 17.4075 17.9553 16.8889 17.9553C16.3702 17.9553 15.8728 17.7493 15.5061 17.3826C15.1394 17.0158 14.9333 16.5184 14.9333 15.9998V13.3331H11.3778C11.1662 13.3307 10.9564 13.3707 10.7606 13.4509C10.5648 13.531 10.387 13.6495 10.2379 13.7995C10.0887 13.9495 9.97113 14.1279 9.8921 14.3242C9.81307 14.5204 9.7742 14.7305 9.77778 14.942V34.8353C9.77424 35.0431 9.81168 35.2496 9.88795 35.4429C9.96422 35.6362 10.0778 35.8126 10.2223 35.962C10.3667 36.1114 10.5392 36.2309 10.7298 36.3136C10.9205 36.3964 11.1255 36.4407 11.3333 36.4442H36.6667C36.8745 36.4407 37.0795 36.3964 37.2702 36.3136C37.4608 36.2309 37.6333 36.1114 37.7777 35.962C37.9222 35.8126 38.0358 35.6362 38.112 35.4429C38.1883 35.2496 38.2257 35.0431 38.2222 34.8353V14.942C38.2257 14.7342 38.1883 14.5278 38.112 14.3344C38.0358 14.1411 37.9222 13.9647 37.7777 13.8153C37.6333 13.6659 37.4608 13.5464 37.2702 13.4637C37.0795 13.381 36.8745 13.3366 36.6667 13.3331ZM31.0578 22.7376L22.4622 31.3331L17.7778 26.6131C17.5702 26.3849 17.4578 26.0859 17.4635 25.7774C17.4693 25.469 17.5927 25.1744 17.8086 24.954C18.0244 24.7336 18.3164 24.6041 18.6246 24.5919C18.9329 24.5798 19.2341 24.6859 19.4667 24.8887L22.4711 27.8931L29.3333 21.0309C29.446 20.9182 29.5797 20.8289 29.7269 20.7679C29.8741 20.707 30.0318 20.6756 30.1911 20.6756C30.3504 20.6756 30.5082 20.707 30.6553 20.7679C30.8025 20.8289 30.9362 20.9182 31.0489 21.0309C31.1615 21.1435 31.2509 21.2773 31.3118 21.4244C31.3728 21.5716 31.4042 21.7294 31.4042 21.8887C31.4042 22.048 31.3728 22.2057 31.3118 22.3529C31.2509 22.5001 31.1615 22.6338 31.0489 22.7464L31.0578 22.7376Z" fill="white"/>
<defs>
<linearGradient id="paint0_linear_1030_2881" x1="23.8875" y1="3.5" x2="23.8875" y2="48.5" gradientUnits="userSpaceOnUse">
<stop stop-color="#8673FF"/>
<stop offset="1" stop-color="#8673FF"/>
</linearGradient>
</defs>
</svg>
