<svg width="48" height="48" viewBox="0 0 48 48" fill="none" xmlns="http://www.w3.org/2000/svg">
<path d="M24 0C41.666 0 48 6.334 48 24C48 41.666 41.666 48 24 48C6.33404 48 4.1013e-05 41.666 4.1013e-05 24C4.1013e-05 7 6.33404 0 24 0Z" fill="url(#paint0_linear_1035_2902)"/>
<path d="M38.4949 17.8969C37.7061 16.0144 36.5586 14.3033 35.1164 12.859C33.6784 11.4122 31.9703 10.2619 30.089 9.47347C28.1618 8.66181 26.0911 8.24576 23.9999 8.25003H23.9296C21.8027 8.26058 19.746 8.68245 17.8089 9.51214C15.9438 10.3087 14.2517 11.461 12.8273 12.9047C11.399 14.3458 10.2647 16.0509 9.48744 17.925C8.68067 19.874 8.27187 21.9646 8.2851 24.0739C8.29565 26.5137 8.87924 28.936 9.96909 31.1016V36.4453C9.96909 37.3383 10.6933 38.0625 11.5828 38.0625H16.9195C19.0952 39.1604 21.4961 39.7381 23.9331 39.75H24.007C26.1093 39.75 28.1449 39.3422 30.0644 38.5442C31.9362 37.7651 33.6379 36.6282 35.0742 35.1973C36.5226 33.7594 37.6617 32.0789 38.4597 30.2051C39.2859 28.2645 39.7078 26.2008 39.7183 24.0703C39.7253 21.9293 39.3105 19.8516 38.4949 17.8969ZM16.9828 25.6875C16.0546 25.6875 15.2988 24.9317 15.2988 24C15.2988 23.0684 16.0546 22.3125 16.9828 22.3125C17.9109 22.3125 18.6667 23.0684 18.6667 24C18.6667 24.9317 17.9144 25.6875 16.9828 25.6875ZM23.9999 25.6875C23.0718 25.6875 22.316 24.9317 22.316 24C22.316 23.0684 23.0718 22.3125 23.9999 22.3125C24.9281 22.3125 25.6839 23.0684 25.6839 24C25.6839 24.9317 24.9281 25.6875 23.9999 25.6875ZM31.0171 25.6875C30.089 25.6875 29.3331 24.9317 29.3331 24C29.3331 23.0684 30.089 22.3125 31.0171 22.3125C31.9453 22.3125 32.7011 23.0684 32.7011 24C32.7011 24.9317 31.9453 25.6875 31.0171 25.6875Z" fill="white"/>
<defs>
<linearGradient id="paint0_linear_1035_2902" x1="23.8875" y1="3.5" x2="23.8875" y2="48.5" gradientUnits="userSpaceOnUse">
<stop stop-color="#FEA04E"/>
<stop offset="1" stop-color="#FE6B4D"/>
</linearGradient>
</defs>
</svg>
