<svg width="28" height="28" viewBox="0 0 28 28" fill="none" xmlns="http://www.w3.org/2000/svg">
<path fill-rule="evenodd" clip-rule="evenodd" d="M17.293 4.2928C17.684 3.9024 18.317 3.9024 18.707 4.2928L22.687 8.2742C22.857 8.4359 22.972 8.6565 22.995 8.9041C22.998 8.9368 23 8.9697 23 9.0028C23 9.2678 22.895 9.5224 22.707 9.7098L18.707 13.7069C18.316 14.0972 17.683 14.0973 17.293 13.7069C16.903 13.3163 16.903 12.6832 17.293 12.2928L19.587 9.9998H7C6.448 9.9998 6 9.5521 6 8.9998C6 8.4475 6.448 7.9998 7 7.9998H19.585L17.293 5.7069C16.903 5.3163 16.903 4.6832 17.293 4.2928Z" fill="#ffffff"/>
<path fill-rule="evenodd" clip-rule="evenodd" d="M11.707 23.7069C11.316 24.0973 10.683 24.0973 10.293 23.7069L6.313 19.7255C6.143 19.5638 6.028 19.3432 6.005 19.0956C6.002 19.0629 6 19.03 6 18.9969C6 18.7319 6.105 18.4773 6.293 18.2899L10.293 14.2928C10.684 13.9025 11.317 13.9024 11.707 14.2928C12.097 14.6834 12.097 15.3165 11.707 15.7069L9.41299 17.9999H22C22.552 17.9999 23 18.4476 23 18.9999C23 19.5522 22.552 19.9999 22 19.9999H9.41499L11.707 22.2928C12.097 22.6834 12.097 23.3165 11.707 23.7069Z" fill="#ffffff"/>
</svg>
