<svg width="48" height="48" viewBox="0 0 48 48" fill="none" xmlns="http://www.w3.org/2000/svg">
<path d="M24 0C41.666 0 48 6.334 48 24C48 41.666 41.666 48 24 48C6.334 48 0 41.666 0 24C0 7 6.334 0 24 0Z" fill="url(#paint0_linear_1030_2891)"/>
<path d="M24 7C14.6262 7 6.99996 14.6262 6.99996 24C6.99996 33.3738 14.6262 41 24 41C33.3738 41 41 33.3738 41 24C41 14.6262 33.3738 7 24 7ZM10.4 24C10.4 22.4717 10.6652 21.0046 11.1327 19.6327L17.2 25.7V29.1L22.3 34.2V37.4827C15.6037 36.6412 10.4 30.9224 10.4 24ZM34.761 32.2841C33.6509 31.3899 31.9679 30.8 30.8 30.8V29.1C30.8 28.1983 30.4417 27.3335 29.8041 26.6958C29.1665 26.0582 28.3017 25.7 27.4 25.7H20.6V20.6C21.5017 20.6 22.3665 20.2418 23.0041 19.6042C23.6417 18.9665 24 18.1017 24 17.2V15.5H25.7C26.6017 15.5 27.4665 15.1418 28.1041 14.5042C28.7417 13.8665 29.1 13.0017 29.1 12.1V11.4013C34.0776 13.4226 37.6 18.305 37.6 24C37.5993 26.9999 36.6005 29.9143 34.761 32.2841Z" fill="white"/>
<defs>
<linearGradient id="paint0_linear_1030_2891" x1="23.8875" y1="3.5" x2="23.8875" y2="48.5" gradientUnits="userSpaceOnUse">
<stop stop-color="#34EB3E"/>
<stop offset="1" stop-color="#1F82C4"/>
</linearGradient>
</defs>
</svg>
