<?xml version="1.0" encoding="UTF-8" standalone="no"?>
<svg width="178px" height="30px" viewBox="0 0 178 30" version="1.1" xmlns="http://www.w3.org/2000/svg" xmlns:xlink="http://www.w3.org/1999/xlink">
    <!-- Generator: Sketch 39.1 (31720) - http://www.bohemiancoding.com/sketch -->
    <title>ljs-logo</title>
    <desc>Created with Sketch.</desc>
    <defs>
        <polygon id="path-1" points="14.7763636 21.725 14.7763636 0.750454545 0.592090909 0.750454545 0.592090909 21.725 14.7763636 21.725"></polygon>
        <polygon id="path-3" points="0.716727273 29.0909091 12.414 29.0909091 12.414 0.381363636 0.716727273 0.381363636 0.716727273 29.0909091"></polygon>
    </defs>
    <g id="Page-1" stroke="none" stroke-width="1" fill="none" fill-rule="evenodd">
        <g id="ljs-logo" transform="translate(-10.000000, -8.000000)">
            <g transform="translate(10.000000, 8.000000)">
                <polygon id="Fill-1" fill="#1996CD" points="0 3.31745455 0 23.422 13.4318182 23.422 13.4318182 19.5347273 4.52636364 19.5347273 4.52636364 3.31745455"></polygon>
                <g id="Group-26" transform="translate(14.545455, 0.700455)">
                    <path d="M10.8194545,15.063 C10.8194545,13.7275455 10.5530909,12.6793636 10.0212727,11.9148182 C9.48945455,11.1520909 8.73036364,10.7693636 7.744,10.7693636 C6.75763636,10.7693636 5.99309091,11.1520909 5.45127273,11.9148182 C4.91036364,12.6793636 4.63945455,13.7275455 4.63945455,15.063 C4.63945455,16.3975455 4.91036364,17.4557273 5.45127273,18.2402727 C5.99309091,19.023 6.75763636,19.4148182 7.744,19.4148182 C8.73036364,19.4148182 9.48945455,19.023 10.0212727,18.2402727 C10.5530909,17.4557273 10.8194545,16.3975455 10.8194545,15.063 M15.2285455,15.063 C15.2285455,16.2620909 15.0549091,17.3602727 14.7058182,18.3557273 C14.3585455,19.3520909 13.8558182,20.203 13.1976364,20.9093636 C12.5403636,21.6157273 11.7521818,22.1611818 10.834,22.5475455 C9.914,22.9348182 8.88490909,23.1275455 7.744,23.1275455 C6.62218182,23.1275455 5.60218182,22.9348182 4.68309091,22.5475455 C3.764,22.1611818 2.97581818,21.6157273 2.31854545,20.9093636 C1.66127273,20.203 1.14854545,19.3520909 0.781272727,18.3557273 C0.413090909,17.3602727 0.230363636,16.2620909 0.230363636,15.063 C0.230363636,13.8639091 0.418545455,12.7711818 0.795818182,11.7848182 C1.17218182,10.7984545 1.69490909,9.95663636 2.36218182,9.26027273 C3.02945455,8.56481818 3.82218182,8.023 4.74127273,7.63572727 C5.66036364,7.24936364 6.66036364,7.05572727 7.744,7.05572727 C8.84581818,7.05572727 9.85581818,7.24936364 10.7758182,7.63572727 C11.694,8.023 12.4821818,8.56481818 13.1394545,9.26027273 C13.7976364,9.95663636 14.3094545,10.7984545 14.6776364,11.7848182 C15.0449091,12.7711818 15.2285455,13.8639091 15.2285455,15.063" id="Fill-2" fill="#1996CD"></path>
                    <path d="M17.0263636,15.0923636 C17.0263636,13.9896364 17.2045455,12.9505455 17.5636364,11.9732727 C17.92,10.9969091 18.4381818,10.146 19.1145455,9.41963636 C19.7918182,8.69509091 20.6136364,8.11963636 21.58,7.69418182 C22.5472727,7.26963636 23.65,7.056 24.8881818,7.056 C25.7009091,7.056 26.4454545,7.12872727 27.1218182,7.27327273 C27.7990909,7.41872727 28.4563636,7.62690909 29.0936364,7.89690909 L28.1954545,11.3496364 C27.7890909,11.1950909 27.3436364,11.0596364 26.8609091,10.9441818 C26.3781818,10.8269091 25.8363636,10.7696364 25.2363636,10.7696364 C23.96,10.7696364 23.0072727,11.166 22.3781818,11.9587273 C21.7490909,12.7523636 21.4354545,13.796 21.4354545,15.0923636 C21.4354545,16.466 21.73,17.5287273 22.3209091,18.2832727 C22.9109091,19.0369091 23.94,19.4141818 25.41,19.4141818 C25.9327273,19.4141818 26.4936364,19.3669091 27.0927273,19.2696364 C27.6918182,19.1732727 28.2436364,19.0187273 28.7463636,18.8050909 L29.3554545,22.3450909 C28.8518182,22.5578182 28.2245455,22.7405455 27.47,22.896 C26.7163636,23.0505455 25.8845455,23.1278182 24.9754545,23.1278182 C23.5827273,23.1278182 22.3836364,22.9205455 21.3781818,22.5041818 C20.3718182,22.0887273 19.5445455,21.5223636 18.8972727,20.8069091 C18.2490909,20.0923636 17.7754545,19.2450909 17.4763636,18.2687273 C17.1763636,17.2923636 17.0263636,16.2332727 17.0263636,15.0923636" id="Fill-4" fill="#1996CD"></path>
                    <path d="M37.6340909,19.7048182 C38.0595455,19.7048182 38.4659091,19.6957273 38.8522727,19.6757273 C39.2386364,19.6566364 39.5486364,19.6275455 39.7804545,19.5884545 L39.7804545,16.3102727 C39.6068182,16.2720909 39.345,16.2339091 38.9977273,16.1948182 C38.6495455,16.1557273 38.3304545,16.1366364 38.0404545,16.1366364 C37.6340909,16.1366364 37.2522727,16.1611818 36.8940909,16.2093636 C36.5359091,16.2575455 36.2222727,16.3502727 35.9504545,16.4848182 C35.6804545,16.6202727 35.4668182,16.8039091 35.3131818,17.0357273 C35.1577273,17.2675455 35.0813636,17.5584545 35.0813636,17.9057273 C35.0813636,18.583 35.3086364,19.0520909 35.7622727,19.313 C36.2168182,19.5739091 36.8404545,19.7048182 37.6340909,19.7048182 M37.2859091,7.05572727 C38.5622727,7.05572727 39.625,7.20118182 40.4768182,7.49118182 C41.3277273,7.78118182 42.0086364,8.19663636 42.5222727,8.73845455 C43.0340909,9.28027273 43.3968182,9.93754545 43.6095455,10.7111818 C43.8222727,11.4857273 43.9286364,12.3466364 43.9286364,13.2939091 L43.9286364,22.2866364 C43.3104545,22.4220909 42.4504545,22.5820909 41.3468182,22.7657273 C40.245,22.9484545 38.9104545,23.0411818 37.3440909,23.0411818 C36.3577273,23.0411818 35.4622727,22.9539091 34.6604545,22.7793636 C33.8577273,22.6057273 33.1668182,22.3202727 32.5859091,21.9239091 C32.0059091,21.5275455 31.5604545,21.0102727 31.2513636,20.3720909 C30.9422727,19.733 30.7877273,18.9502727 30.7877273,18.0220909 C30.7877273,17.133 30.9659091,16.3784545 31.3240909,15.7593636 C31.6813636,15.1402727 32.1604545,14.6475455 32.7604545,14.2802727 C33.3586364,13.9120909 34.0468182,13.6457273 34.8195455,13.4820909 C35.5931818,13.3175455 36.3959091,13.2357273 37.2277273,13.2357273 C37.7886364,13.2357273 38.2868182,13.2593636 38.7222727,13.3084545 C39.1577273,13.3566364 39.5095455,13.4193636 39.7804545,13.4966364 L39.7804545,13.0902727 C39.7804545,12.3557273 39.5577273,11.7657273 39.1140909,11.3202727 C38.6686364,10.8766364 37.8959091,10.653 36.7922727,10.653 C36.0577273,10.653 35.3322727,10.7066364 34.6168182,10.813 C33.9013636,10.9184545 33.2822727,11.0693636 32.7604545,11.2620909 L32.2086364,7.78118182 C32.4604545,7.70390909 32.775,7.62118182 33.1513636,7.53481818 C33.5286364,7.44754545 33.9404545,7.37027273 34.385,7.30209091 C34.8295455,7.23481818 35.2986364,7.17663636 35.7913636,7.12845455 C36.285,7.08027273 36.7822727,7.05572727 37.2859091,7.05572727" id="Fill-6" fill="#1996CD"></path>
                    <path d="M47.0325455,22.6949091 L47.0325455,0.905818182 L51.3552727,0.209454545 L51.3552727,22.6949091 C50.0798182,22.6876364 47.0325455,22.6949091 47.0325455,22.6949091" id="Fill-8" fill="#1996CD"></path>
                    <path d="M74.636,15.063 C74.636,13.7275455 74.3696364,12.6793636 73.8378182,11.9148182 C73.3069091,11.1520909 72.5469091,10.7693636 71.5596364,10.7693636 C70.5732727,10.7693636 69.8087273,11.1520909 69.2687273,11.9148182 C68.7269091,12.6793636 68.456,13.7275455 68.456,15.063 C68.456,16.3975455 68.7269091,17.4557273 69.2687273,18.2402727 C69.8087273,19.023 70.5732727,19.4148182 71.5596364,19.4148182 C72.5469091,19.4148182 73.3069091,19.023 73.8378182,18.2402727 C74.3696364,17.4557273 74.636,16.3975455 74.636,15.063 M79.0450909,15.063 C79.0450909,16.2620909 78.8714545,17.3602727 78.5223636,18.3557273 C78.1750909,19.3520909 77.6714545,20.203 77.0141818,20.9093636 C76.3569091,21.6157273 75.5687273,22.1611818 74.6505455,22.5475455 C73.7305455,22.9348182 72.7014545,23.1275455 71.5596364,23.1275455 C70.4387273,23.1275455 69.4178182,22.9348182 68.4996364,22.5475455 C67.5814545,22.1611818 66.7932727,21.6157273 66.1350909,20.9093636 C65.4778182,20.203 64.9650909,19.3520909 64.5978182,18.3557273 C64.2305455,17.3602727 64.046,16.2620909 64.046,15.063 C64.046,13.8639091 64.2350909,12.7711818 64.6132727,11.7848182 C64.9896364,10.7984545 65.5114545,9.95663636 66.1796364,9.26027273 C66.846,8.56481818 67.6396364,8.023 68.5569091,7.63572727 C69.476,7.24936364 70.4769091,7.05572727 71.5596364,7.05572727 C72.6623636,7.05572727 73.6732727,7.24936364 74.5932727,7.63572727 C75.5105455,8.023 76.2987273,8.56481818 76.956,9.26027273 C77.6141818,9.95663636 78.126,10.7984545 78.4941818,11.7848182 C78.8605455,12.7711818 79.0450909,13.8639091 79.0450909,15.063" id="Fill-10" fill="#EA7123"></path>
                    <path d="M91.3440909,14.976 C91.3440909,12.1905455 90.3195455,10.7987273 88.2695455,10.7987273 C87.8231818,10.7987273 87.385,10.8569091 86.9495455,10.9723636 C86.5140909,11.0887273 86.1613636,11.2332727 85.8904545,11.4078182 L85.8904545,19.2696364 C86.1031818,19.3087273 86.3740909,19.3423636 86.7031818,19.3705455 C87.0313636,19.4005455 87.3895455,19.4141818 87.7759091,19.4141818 C88.955,19.4141818 89.845,19.0087273 90.4459091,18.196 C91.0440909,17.3832727 91.3440909,16.3105455 91.3440909,14.976 M95.7540909,15.0923636 C95.7540909,16.3105455 95.575,17.4132727 95.2168182,18.3996364 C94.8586364,19.3850909 94.3422727,20.2269091 93.6659091,20.9232727 C92.9886364,21.6196364 92.1568182,22.156 91.1713636,22.5332727 C90.185,22.9105455 89.0631818,23.0996364 87.805,23.0996364 C87.2831818,23.0996364 86.7368182,23.0741818 86.1659091,23.0269091 C85.5959091,22.9778182 85.035,22.9150909 84.4831818,22.8378182 C83.9322727,22.7605455 83.4059091,22.6687273 82.9022727,22.5623636 C82.3986364,22.4569091 81.9540909,22.3450909 81.5677273,22.2296364 L81.5677273,0.905090909 L85.8904545,0.209636364 L85.8904545,7.81054545 C86.3740909,7.59781818 86.8768182,7.43327273 87.3986364,7.31690909 C87.9204545,7.20054545 88.4822727,7.14327273 89.0822727,7.14327273 C90.1640909,7.14327273 91.1213636,7.33145455 91.9540909,7.70872727 C92.785,8.08509091 93.4813636,8.62236364 94.0422727,9.31872727 C94.6031818,10.0150909 95.0295455,10.8514545 95.3195455,11.8287273 C95.6095455,12.8050909 95.7540909,13.8932727 95.7540909,15.0923636" id="Fill-12" fill="#EA7123"></path>
                    <path d="M105.676909,19.2693636 C106.315091,19.2693636 106.841455,19.2166364 107.257818,19.1093636 C107.673273,19.0039091 108.006909,18.8584545 108.258727,18.6748182 C108.509636,18.4911818 108.684182,18.2739091 108.781455,18.0220909 C108.877818,17.7711818 108.926,17.4902727 108.926,17.1811818 C108.926,16.523 108.616,15.9766364 107.997818,15.5411818 C107.378727,15.1066364 106.315091,14.6375455 104.806,14.1339091 C104.148727,13.903 103.490545,13.6375455 102.833273,13.3366364 C102.175091,13.0375455 101.586909,12.6593636 101.063273,12.2048182 C100.541455,11.7511818 100.116909,11.2002727 99.7878182,10.5520909 C99.4587273,9.90390909 99.2941818,9.11572727 99.2941818,8.18754545 C99.2941818,7.25936364 99.4678182,6.423 99.8178182,5.67845455 C100.165091,4.933 100.657818,4.30027273 101.296909,3.77754545 C101.934182,3.25481818 102.707818,2.85481818 103.616909,2.57390909 C104.526,2.29390909 105.551455,2.153 106.693273,2.153 C108.046,2.153 109.215091,2.29845455 110.202364,2.58754545 C111.188727,2.87845455 112.001455,3.19754545 112.639636,3.54572727 L111.334182,7.11390909 C110.773273,6.82390909 110.147818,6.56845455 109.462364,6.34572727 C108.775091,6.123 107.948727,6.01209091 106.982364,6.01209091 C105.898727,6.01209091 105.121455,6.16209091 104.646,6.46118182 C104.173273,6.76118182 103.935091,7.22118182 103.935091,7.83936364 C103.935091,8.20663636 104.022364,8.51663636 104.196909,8.76754545 C104.370545,9.01936364 104.617818,9.24663636 104.937818,9.44936364 C105.255091,9.65209091 105.623273,9.83663636 106.039636,10.0002727 C106.454182,10.1648182 106.913273,10.3339091 107.417818,10.5084545 C108.462364,10.8957273 109.370545,11.2766364 110.144182,11.6539091 C110.917818,12.0311818 111.561455,12.4711818 112.073273,12.9748182 C112.585091,13.4766364 112.968727,14.0666364 113.218727,14.7439091 C113.471455,15.4220909 113.596909,16.243 113.596909,17.2102727 C113.596909,19.0857273 112.938727,20.5411818 111.624182,21.5766364 C110.308727,22.6102727 108.326,23.1275455 105.676909,23.1275455 C104.786909,23.1275455 103.984182,23.0748182 103.268727,22.9684545 C102.552364,22.8620909 101.919636,22.7311818 101.369636,22.5766364 C100.817818,22.4220909 100.343273,22.2575455 99.9469091,22.083 C99.5505455,21.9102727 99.2178182,21.7457273 98.9469091,21.5902727 L100.222364,17.993 C100.822364,18.3220909 101.561455,18.6166364 102.441455,18.8775455 C103.322364,19.1384545 104.400545,19.2693636 105.676909,19.2693636" id="Fill-14" fill="#1996CD"></path>
                    <path d="M115.973455,22.7215455 L115.973455,0.905181818 L120.297091,0.209727273 L120.297091,7.51972727 C120.587091,7.42336364 120.958909,7.33154545 121.412545,7.24518182 C121.867091,7.15790909 122.307091,7.11427273 122.733455,7.11427273 C123.969818,7.11427273 124.999818,7.28427273 125.822545,7.62154545 C126.646182,7.96063636 127.302545,8.43881818 127.796182,9.05790909 C128.288909,9.677 128.637091,10.4115455 128.839818,11.2624545 C129.043455,12.1142727 129.146182,13.0615455 129.146182,14.1051818 L129.146182,22.7215455 L124.821636,22.7215455 L124.821636,14.6279091 C124.821636,13.2360909 124.643455,12.2488182 124.285273,11.6688182 C123.928,11.0888182 123.265273,10.7988182 122.298,10.7988182 C121.911636,10.7988182 121.548,10.8324545 121.211636,10.8997273 C120.871636,10.9679091 120.568,11.0406364 120.297091,11.117 L120.297091,22.7215455 L115.973455,22.7215455 Z" id="Fill-16" fill="#1996CD"></path>
                    <path d="M141.840364,15.063 C141.840364,13.7275455 141.574,12.6793636 141.043091,11.9148182 C140.510364,11.1520909 139.751273,10.7693636 138.764909,10.7693636 C137.778545,10.7693636 137.013091,11.1520909 136.474,11.9148182 C135.932182,12.6793636 135.661273,13.7275455 135.661273,15.063 C135.661273,16.3975455 135.932182,17.4557273 136.474,18.2402727 C137.013091,19.023 137.778545,19.4148182 138.764909,19.4148182 C139.751273,19.4148182 140.510364,19.023 141.043091,18.2402727 C141.574,17.4557273 141.840364,16.3975455 141.840364,15.063 M146.249455,15.063 C146.249455,16.2620909 146.074909,17.3602727 145.728545,18.3557273 C145.380364,19.3520909 144.875818,20.203 144.218545,20.9093636 C143.560364,21.6157273 142.773091,22.1611818 141.855818,22.5475455 C140.936727,22.9348182 139.906727,23.1275455 138.764909,23.1275455 C137.643091,23.1275455 136.623091,22.9348182 135.704,22.5475455 C134.786727,22.1611818 133.998545,21.6157273 133.340364,20.9093636 C132.683091,20.203 132.168545,19.3520909 131.803091,18.3557273 C131.434909,17.3602727 131.252182,16.2620909 131.252182,15.063 C131.252182,13.8639091 131.439455,12.7711818 131.816727,11.7848182 C132.194,10.7984545 132.715818,9.95663636 133.384,9.26027273 C134.052182,8.56481818 134.844,8.023 135.763091,7.63572727 C136.680364,7.24936364 137.681273,7.05572727 138.764909,7.05572727 C139.866727,7.05572727 140.878545,7.24936364 141.797636,7.63572727 C142.714909,8.023 143.503091,8.56481818 144.161273,9.26027273 C144.817636,9.95663636 145.332182,10.7984545 145.698545,11.7848182 C146.065818,12.7711818 146.249455,13.8639091 146.249455,15.063" id="Fill-18" fill="#1996CD"></path>
                    <g id="Group-22" transform="translate(148.181818, 6.363636)">
                        <mask id="mask-2" fill="white">
                            <use xlink:href="#path-1"></use>
                        </mask>
                        <g id="Clip-21"></g>
                        <path d="M10.3675455,8.84409091 C10.3675455,7.50954545 10.0666364,6.44136364 9.46845455,5.63863636 C8.86936364,4.83590909 7.97845455,4.435 6.79845455,4.435 C6.41118182,4.435 6.05572727,4.44954545 5.72663636,4.47772727 C5.39663636,4.50681818 5.12663636,4.54136364 4.91390909,4.58045455 L4.91390909,12.3840909 C5.18481818,12.5577273 5.53663636,12.7031818 5.97209091,12.8195455 C6.40754545,12.935 6.84754545,12.9931818 7.29209091,12.9931818 C9.34209091,12.9931818 10.3675455,11.6104545 10.3675455,8.84409091 M14.7766364,8.72863636 C14.7766364,9.90863636 14.6320909,10.9822727 14.3411818,11.9486364 C14.0520909,12.9159091 13.6257273,13.7477273 13.0657273,14.4431818 C12.5048182,15.1404545 11.8075455,15.6813636 10.9766364,16.0677273 C10.1457273,16.455 9.18845455,16.6477273 8.10481818,16.6477273 C7.50572727,16.6477273 6.94390909,16.5904545 6.42118182,16.475 C5.90027273,16.3577273 5.39663636,16.1940909 4.91390909,15.9813636 L4.91390909,21.725 L0.592090909,21.725 L0.592090909,1.62045455 C0.977545455,1.505 1.42209091,1.39409091 1.92663636,1.28681818 C2.42845455,1.18136364 2.95481818,1.08954545 3.50572727,1.01136364 C4.05754545,0.934090909 4.61936364,0.871363636 5.18845455,0.822272727 C5.75936364,0.775909091 6.30572727,0.750454545 6.82754545,0.750454545 C8.08572727,0.750454545 9.20754545,0.938636364 10.1939091,1.31590909 C11.1802727,1.69227273 12.0111818,2.22590909 12.6884545,2.91136364 C13.3639091,3.59863636 13.8820909,4.435 14.2402727,5.42045455 C14.5984545,6.40772727 14.7766364,7.50954545 14.7766364,8.72863636" id="Fill-20" fill="#1996CD" mask="url(#mask-2)"></path>
                    </g>
                    <g id="Group-25" transform="translate(49.090909, 0.000000)">
                        <mask id="mask-4" fill="white">
                            <use xlink:href="#path-3"></use>
                        </mask>
                        <g id="Clip-24"></g>
                        <path d="M7.90218182,1.28863636 L7.90218182,21.7168182 C7.90218182,22.9895455 7.66127273,23.8959091 7.17945455,24.435 C6.69763636,24.975 5.90672727,25.245 4.80672727,25.245 C4.05490909,25.245 3.36036364,25.1195455 2.724,24.8686364 C2.56218182,24.805 2.40945455,24.7313636 2.25309091,24.6622727 L0.716727273,28.2022727 C1.044,28.3477273 1.38945455,28.4868182 1.77036364,28.615 C2.714,28.9322727 3.84218182,29.0913636 5.15490909,29.0913636 C6.58036364,29.0913636 7.76218182,28.9040909 8.69763636,28.5277273 C9.63218182,28.1513636 10.3730909,27.6413636 10.924,26.995 C11.474,26.3486364 11.8594545,25.5913636 12.0812727,24.7240909 C12.3021818,23.8568182 12.414,22.9313636 12.414,21.9486364 L12.414,0.381363636 L7.90218182,1.28863636 Z" id="Fill-23" fill="#EA7123" mask="url(#mask-4)"></path>
                    </g>
                </g>
            </g>
        </g>
    </g>
</svg>