<svg xmlns="http://www.w3.org/2000/svg" xmlns:xlink="http://www.w3.org/1999/xlink" width="169" height="80" viewBox="0 0 169 80">
  <defs>
    <clipPath id="clip-path">
      <rect id="Rectangle_181" data-name="Rectangle 181" width="135.77" height="62.587" fill="none"/>
    </clipPath>
    <clipPath id="clip-radio2-dark">
      <rect width="169" height="80"/>
    </clipPath>
  </defs>
  <g id="radio2-dark" clip-path="url(#clip-radio2-dark)">
    <g id="Group_381" data-name="Group 381" transform="translate(17 9)">
      <g id="Group_380" data-name="Group 380" clip-path="url(#clip-path)">
        <path id="Path_705" data-name="Path 705" d="M139.7,34.214c-.143-.576-.34-1.377-.434-1.784-.373-1.566-1.033-4.269-1.417-5.84l-.033-.138c-.08-.338-.129-.542-.375-.542a1.356,1.356,0,0,0-.355.08l-.119.035c-.412.121-4.159,1.23-4.7,1.39-.228.067-.473.144-.589.18l-.036.011c.043-.455.249-2.068.779-6.167.674-5.216.674-5.216.585-5.305-.06-.059-.071-.07-4.674-.321-.812-.044-1.888-.1-2.387-.137s-1.6-.093-2.447-.137c-1.806-.092-3.981-.216-5.886-.325l-.582-.033c-.7-.04-1.5-.086-1.963-.108-1.653-.088-3.894-.214-5.41-.3-.648-.038-1.566-.088-2.195-.122l-.278-.015c-1.557-.079-3.908-.21-4.969-.274-.5-.033-1.6-.093-2.446-.137-1.824-.1-3.949-.214-5.96-.329-1.693-.1-7.126-.4-10.877-.6l-3.955-.22-.68-.039c-2.273-.131-2.748-.158-3.688-.208l-1.72-.094c-1.457-.079-2.575-.14-3.224-.181l-2.005-.11-1.976-.11c-.5-.033-1.6-.093-2.446-.137-.513-.027-1.124-.061-1.639-.091l-.832-.047c-.511-.027-1.4-.077-1.977-.109-.4-.023-1.066-.059-1.705-.094l-3.349-.18c-.708-.039-1.17-.067-1.246-.077-.04,0-.076,0-.1,0-.182,0-.2.106-.2.152a.243.243,0,0,0,.023.077,13.365,13.365,0,0,0-1.777-.737A23.049,23.049,0,0,0,46.1,9.645a8.547,8.547,0,0,0-2.182-.114,5,5,0,0,0-2.235.786c-.1.1-.185.233-.41,1.321q-.075.37-.157.747l-.209-.011a.157.157,0,0,0,.1-.038,5.844,5.844,0,0,0,.225-1.214c-.017-.011-.95-.072-2.082-.137s-2.95-.159-4.038-.22l-3.928-.22c-1.071-.06-2.851-.159-3.955-.22l-3.982-.22c-1.088-.06-2.384-.132-2.884-.165-1.077-.066-1.208-.066-1.208-.022s.412,2.56.643,3.95a3.649,3.649,0,0,0,.126.593,9.763,9.763,0,0,0,1.111.124l.017.1c-.625-.053-1.25-.082-1.851-.082a14.506,14.506,0,0,0-1.785.1A8.364,8.364,0,0,0,14.3,15.8l-.218.127c-.767.439-.769.6-.789,2.1l-.008.541c-.032,1.8-.057,2.334-.2,4.424-.054.825-.306,3.478-.361,3.8l0,.029c-.017.139-.073.6-.128,1.072-.188,1.623-.629,4.787-1.152,8.258l-.081.54c-.036.237-.068.448-.084.562s-.05.341-.088.589l-.076.507c-.714,4.758-1.19,8.689-1.376,11.367A45.877,45.877,0,0,0,9.6,56.173a9.354,9.354,0,0,0,1.854,1.489,6.15,6.15,0,0,0,1,.45,2.4,2.4,0,0,0,1.106.123c.657-.036,1.036-.085,1.193-.674.448-1.668.666-4.126,1.015-11.435.106-2.295.32-5.569.466-7.149.167-1.775.436-4.025.574-4.818l.024-.146c.027-.166.062-.38.092-.543.134-.845.456-2.393.626-3.065.113-.44.235-.871.338-1.212.049.139.1.29.149.429.523,1.514,1.151,3.689,1.976,6.844,1.188,4.557,1.479,5.57,2.226,7.739a32.754,32.754,0,0,0,2.226,5.215l.139.243.172.3c.179.327.292.386.7.494.267.067.822.185,1.413.3l.018.109-.143-.029c-.247-.049-.544-.109-.654-.137-.2-.044-.209-.039-.209.083a2.321,2.321,0,0,0,.055.39c.044.23.242,1.444.385,2.378.077.472.214,1.318.269,1.621.033.148.258,1.527.511,3.059.456,2.791.456,2.791.6,2.791.083,0,1.329-.149,2.774-.33s4.356-.538,6.471-.8,3.856-.489,3.867-.494a8.542,8.542,0,0,0-.246-1.077l.106-.013c.534,2.115,1.03,4.135,1.389,5.67l.035.15c.161.68.161.68.3,1.2l.047.175c.243.888.316,1.156.621,1.156.2,0,.3-.151.444-.466l.1-.21c.073-.161.164-.362.244-.53a3.086,3.086,0,0,0,.234-.562,5.691,5.691,0,0,1,.493-.871.78.78,0,0,1,.712-.239h.085a2.837,2.837,0,0,1,.984.167,10.394,10.394,0,0,0,1.715.393.321.321,0,0,0,.244-.095c.1-.1.125-.157.053-.836a48.8,48.8,0,0,1-.24-4.883.2.2,0,0,0,.191.082l.061,0c.171-.013,18.734-2.32,21.13-2.626.467-.061,1.2-.15,1.795-.223l.7-.084c.562-.068,1.093-.132,1.271-.16l.378-.047c.271-.033.622-.076.94-.117,1-.121,1.583-.193,2.2-.275.214-.027.817-.1,1.345-.165l.268-.034c.534-.067,1.266-.158,1.765-.219.377-.049.8-.1,1.117-.14l.418-.052c.258-.027,8.765-1.089,19.366-2.417l7.684-.959c7.214-.9,12.912-1.611,14.1-1.755,5.935-.739,5.935-.739,6-.8a9.47,9.47,0,0,0,.331-2.186l.222-1.723c.077-.595.144-1.12.184-1.425.077-.587.241-1.851.362-2.8.115-.9.235-1.832.263-1.973s.024-.153.652-.341l6.482-1.913c.741-.219,1.357-.4,1.627-.482.954-.289.957-.4.7-1.467M53.065,13.035l-.031,0c-.011-.025-.025-.055-.043-.088l.074.09M21.658,11.314c.511.033,1.609.093,2.439.137,1.334.068,3.253.176,6.212.346l-9.547-.519c.133,0,.485.014.9.036" transform="translate(-6.797 -6.786)" fill="#fff"/>
        <path id="Path_706" data-name="Path 706" d="M36.3,62.586c-2.377,0-2.96-2.131-3.24-3.156l-.05-.186c-.147-.547-.153-.57-.32-1.277l-.035-.149c-.153-.651-.332-1.4-.531-2.216l-1.608.2c-2.117.264-5.032.627-6.479.8-2.785.35-2.925.35-3.1.35a2.884,2.884,0,0,1-2.841-2.49c-.09-.417-.2-1.094-.443-2.578l-.122-.742c-.152-.925-.324-1.97-.365-2.19l-.016-.081c-.053-.292-.181-1.075-.262-1.574l-.015-.1c-.079-.52-.168-1.078-.24-1.518a3.563,3.563,0,0,1-1.02-1.189l-.155-.271-.142-.25a35.047,35.047,0,0,1-2.438-5.687c-.375-1.09-.639-1.9-.95-2.97-.092,1.38-.181,2.905-.239,4.144-.364,7.631-.591,10.1-1.1,12.013-.444,1.669-1.678,2.572-3.667,2.682a5.06,5.06,0,0,1-2.061-.242l-.037-.012a8.787,8.787,0,0,1-1.525-.686A9.88,9.88,0,0,1,.424,50.687c-.315-.584-.665-1.232-.2-7.945.192-2.751.675-6.755,1.4-11.582l.077-.509c.036-.236.068-.446.083-.557s.051-.346.089-.6l.081-.537c.519-3.441.956-6.57,1.14-8.164.054-.465.109-.91.128-1.071l.022-.158c.051-.371.279-2.74.331-3.539.144-2.06.166-2.541.2-4.3l.008-.532c.022-1.649.043-3.21,2.155-4.419l.181-.1A11.167,11.167,0,0,1,9.947,5.271a15.054,15.054,0,0,1-.306-2.14V1.958l.86-.817c.894-.841,1.724-.79,3.23-.7.475.031,1.623.095,2.649.152l.22.012,3.98.22c1.105.06,2.887.159,3.96.22l3.926.22c1.086.06,2.9.159,4.032.22l.568.033A7.732,7.732,0,0,1,36.817.045,11.029,11.029,0,0,1,39.847.2a25.821,25.821,0,0,1,4.77,1.559l.851.329a3.844,3.844,0,0,1,.4.007L46,2.1c.155.012.545.035,1.094.065l3.346.18,1.716.095c.572.033,1.457.082,1.964.109L55,2.6c.5.028,1.088.062,1.583.087.86.045,1.976.106,2.484.139l1.948.108,2,.109c.663.041,1.756.1,3.18.178l1.768.1c.926.049,1.4.077,3.595.2l.781.045,3.951.22c3.763.2,9.2.506,10.883.6,2.005.115,4.128.23,5.949.328.853.045,1.97.106,2.479.14,1.043.063,3.382.194,4.928.272l.332.018c.63.034,1.525.083,2.162.121,1.511.087,3.746.214,5.4.3.457.021,1.27.068,1.976.109l.686.04c1.874.107,4,.228,5.764.318.863.045,1.978.106,2.487.14.493.033,1.555.092,2.356.135,5.631.307,5.631.307,6.434,1.1a3.248,3.248,0,0,1,.786,2.961c-.076.688-.246,2-.585,4.626q-.146,1.126-.263,2.03l1.349-.4.107-.032a3.754,3.754,0,0,1,1.131-.193,3.057,3.057,0,0,1,3.017,2.629l.032.136c.382,1.56,1.044,4.271,1.418,5.841.1.418.289,1.2.428,1.761l0,.011a4.047,4.047,0,0,1-.05,2.771,3.642,3.642,0,0,1-2.5,1.937c-.262.079-.834.248-1.53.454l-5.542,1.636-.047.365c-.121.953-.286,2.221-.363,2.811-.031.238-.079.6-.134,1.033L125.11,39.9c-.328,2.618-.378,3.022-1.09,3.744a3.534,3.534,0,0,1-2.373.936c-.763.1-2.255.288-5.227.658-1.188.144-6.883.855-14.093,1.755l-7.687.959c-6.4.8-18.475,2.312-19.372,2.418l-.414.051c-.318.039-.729.09-1.1.138-.521.063-1.25.155-1.781.221l-.269.033c-.541.062-1.128.137-1.337.164-.609.081-1.2.154-2.216.277-.3.038-.645.081-.918.114l-.353.044c-.221.033-.607.081-1.32.167l-.695.084c-.588.071-1.308.159-1.768.219-.166.021-13.46,1.683-18.955,2.36.035.734.085,1.367.16,2.1a3.4,3.4,0,0,1-.777,2.973,3.032,3.032,0,0,1-2.221.949,8.467,8.467,0,0,1-1.827-.318c-.059.127-.115.252-.164.358l-.1.223A3.113,3.113,0,0,1,36.3,62.586m-.345-14.05.587,2.324c.316,1.253.616,2.458.88,3.544a4.248,4.248,0,0,1,1.1-.127h.1l.085,0c-.03-.707-.049-1.5-.062-2.5l-.124-9.264,4.247,6.431c4.447-.548,17.675-2.194,19.631-2.444.465-.061,1.207-.151,1.813-.225l.7-.084c.412-.049,1.031-.124,1.17-.146l.471-.06c.286-.035.623-.076.928-.115,1.005-.122,1.579-.192,2.185-.273.235-.03.854-.109,1.4-.171l.242-.03c.535-.067,1.272-.159,1.773-.22.359-.047.787-.1,1.113-.14l.463-.057c.337-.038,7.66-.951,19.315-2.411l7.686-.959c7.218-.9,12.917-1.612,14.105-1.756,1.762-.22,3.047-.38,3.947-.493.005-.045.011-.091.017-.139L120,37.1c.056-.435.1-.807.136-1.045.076-.582.24-1.842.361-2.789.216-1.7.259-1.981.285-2.118a3.1,3.1,0,0,1,2.544-2.455l6.608-1.95.011,0c-.045-.187-.085-.354-.115-.483-.237-.994-.595-2.467-.922-3.808l-2.658.787c-.194.057-.4.122-.52.159l-3.961,1.238.382-4.063c.044-.472.2-1.7.79-6.262.126-.974.232-1.792.318-2.464l-1.862-.1c-.822-.045-1.913-.106-2.418-.139s-1.575-.092-2.409-.135c-1.775-.091-3.909-.212-5.794-.32l-.689-.04c-.686-.04-1.475-.085-1.935-.107-1.674-.089-3.92-.216-5.44-.3-.632-.037-1.519-.085-2.143-.119l-.322-.018c-1.55-.079-3.914-.21-4.985-.275-.508-.034-1.59-.093-2.423-.136-1.833-.1-3.961-.215-5.974-.33-1.682-.1-7.105-.4-10.868-.6l-3.957-.22-.788-.045c-2.179-.125-2.653-.152-3.576-.2l-1.77-.1c-1.444-.079-2.552-.139-3.2-.179l-1.988-.109-1.974-.11c-.52-.034-1.6-.093-2.437-.137-.5-.026-1.1-.06-1.609-.089l-.874-.049c-.506-.027-1.4-.077-1.979-.11l-.691-.039,1.237,1.467-2.232-.118,1.452,3.373-5.23-3.574-1.978-.1-.663-1.559c.013.031.03.068.052.11l.149-.1c-.24-.1-.727-.288-1.275-.5a20.56,20.56,0,0,0-3.92-1.309,6.29,6.29,0,0,0-1.291-.076,2.985,2.985,0,0,0-.337.061c-.045.218-.093.444-.142.672l-.49,2.262L33.965,8.3l-.071-1.284c-.295-.021-.855-.057-1.7-.106-1.121-.06-2.942-.159-4.031-.22l-3.93-.22-.8-.045-.073,1.3L16.917,7.37l.569,3.527-3.462-.292a15.566,15.566,0,0,0-3.07.007,5.584,5.584,0,0,0-1.741.558l0,.108-.008.544C9.171,13.671,9.144,14.269,9,16.4c-.041.62-.274,3.227-.377,3.963h0c-.022.182-.075.614-.127,1.062-.013.115-.028.237-.043.366l.051-.169,2.4-7.936L13.658,21.5c.051.145.106.3.156.447.545,1.581,1.192,3.819,2.036,7.041,1.166,4.473,1.449,5.46,2.166,7.542a31.4,31.4,0,0,0,1.954,4.643c.19.04.412.086.662.135l1.849.368.954,5.9L22.4,47.353c.035.214.068.405.089.526.042.211.121.686.4,2.385l.123.744.041.248.32-.04c1.453-.177,4.361-.539,6.473-.8l.757-.095-.318-1.061,3.293-.43ZM5.339,50.072v0m.115-1.226Zm-.02-.739c.077.059.155.117.229.171.206-1.659.374-4.308.6-9.067.049-1.042.119-2.285.2-3.486-.407,3-.685,5.521-.815,7.395-.111,1.6-.206,3.8-.211,4.987m-.548-.452Zm39-40.387.022.015ZM33.685,5.46,32.931,6.6a2.725,2.725,0,0,0,.962.4L33.81,5.487Zm-1.868-.4a2.676,2.676,0,0,0,.559,1.051l.863-.743ZM37.3,4.679h0Zm-5.58-.223c0,.065.008.138.018.218q.039-.184.076-.365l.016-.076c-.045.081-.081.157-.11.224M46.032,2.107h0" transform="translate(0 0.001)" fill="#fff"/>
        <path id="Path_707" data-name="Path 707" d="M47.921,15.662l111.444,6.063-4.106,30.239L55.8,64.232Z" transform="translate(-34.224 -11.185)" fill="#ffd24e" fill-rule="evenodd"/>
        <path id="Path_708" data-name="Path 708" d="M43.228,10.881c0,.033.412,2.56.643,3.95a3.63,3.63,0,0,0,.126.593,9.271,9.271,0,0,0,1.3.126s-.016-.131-.038-.28c-.318-1.829-.5-3-.484-3.027s.44.006.956.033,1.609.093,2.439.137c1.5.077,3.735.2,7.361.412,1.044.061,2.824.159,3.955.22,3.093.165,4.993.275,5.285.3.154.011.28-.005.308-.044a5.858,5.858,0,0,0,.225-1.214c-.017-.011-.95-.072-2.082-.137s-2.95-.159-4.038-.22l-3.928-.22c-1.071-.06-2.851-.159-3.955-.22l-3.982-.22c-1.088-.06-2.384-.132-2.884-.165-1.077-.066-1.209-.066-1.209-.022" transform="translate(-30.872 -7.749)" fill="#2b5daa"/>
        <path id="Path_709" data-name="Path 709" d="M149.039,17.3a8.34,8.34,0,0,0,.928,1.3c.066.044,2.345.181,7.394.445.879.044,1.978.11,2.445.137s1.544.093,2.389.137,1.972.1,2.5.137,1.434.077,2.005.11,1.417.077,1.868.11,1.131.066,1.51.083,1.082.055,1.566.082l1.9.11c.561.027,1.659.093,2.444.137s2.131.121,2.994.165c1.9.1,3.093.165,4.944.275.769.044,2.093.121,2.939.165,1.856.1,3.055.165,4.944.275,1.642.093,7.619.428,9.888.544.846.049,1.736.1,1.978.115s1.34.077,2.444.137,2.445.137,2.983.165,1.423.082,1.978.11,1.423.082,1.933.11,1.407.077,1.977.11c1.5.082,3.862.209,4.944.274.517.027,1.406.077,1.978.11l2.445.137c.769.044,1.933.109,2.581.143a11.134,11.134,0,0,1,1.225.1,6.971,6.971,0,0,1-.094,1.055c-.076.555-.264,2-.417,3.208s-.34,2.665-.412,3.242-.187,1.439-.253,1.922c-.182,1.417-.137,1.291-.489,1.4-.478.148-1.11.335-1.29.384-.088.022-.374.1-.632.181-1.676.505-2.2.659-2.472.731a4.679,4.679,0,0,0-1.373.483c0,.039.2.873.434,1.851s.56,2.313.714,2.961a29.427,29.427,0,0,0,1.154,4.395,1.3,1.3,0,0,0,.248-.055c.148-.049,1-.3,1.736-.522.137-.039.291-.087.346-.11.127-.055.127-.016-.071,1.483-.093.7-.3,2.313-.467,3.6s-.335,2.615-.385,2.961-.082.637-.082.637c0,.017-.692.1-4.972.632-2.2.269-4.2.516-4.422.549-.632.083-2.615.33-4.175.522-.379.044-.873.1-1.1.137s-2.313.291-4.642.577c-5.883.731-40.029,4.993-41.336,5.163-.588.077-1.478.187-1.978.247s-1.4.17-2.005.247-1.4.176-1.758.22-.956.115-1.318.165-1.154.143-1.758.22-1.494.181-1.977.242l-3.351.418c-1.357.165-2.945.362-3.521.439s-1.071.137-1.088.137a2.929,2.929,0,0,0-.022.643c.016.648.016.648.181.637.148-.011,18.545-2.3,21.122-2.626.588-.077,1.593-.2,2.225-.275s1.329-.159,1.538-.193.807-.1,1.319-.164c1-.121,1.582-.193,2.2-.275.214-.027.818-.1,1.346-.165s1.445-.181,2.032-.252,1.281-.159,1.539-.193,8.97-1.115,19.363-2.417,20.193-2.522,21.781-2.714c5.2-.648,5.889-.736,5.916-.763s.148-.961.291-2.1.329-2.56.407-3.148.242-1.851.362-2.8.236-1.84.264-1.977c.038-.242.038-.242.753-.456l4.7-1.385c1.406-.417,2.939-.868,3.411-1.011.851-.258.851-.258.6-1.3-.143-.577-.341-1.379-.434-1.785-.374-1.566-1.033-4.269-1.417-5.839-.165-.676-.1-.637-.7-.462-.412.121-4.158,1.23-4.7,1.39-.258.077-.539.165-.626.192s-.17.039-.187.022.088-.956.785-6.345c.544-4.208.659-5.153.627-5.185s-1.363-.1-4.582-.28c-.813-.044-1.89-.1-2.389-.137s-1.6-.093-2.445-.137c-1.829-.093-4.038-.22-5.96-.33-.769-.044-1.884-.11-2.472-.137-1.654-.088-3.895-.214-5.411-.3-.752-.044-1.868-.1-2.472-.138-1.511-.077-3.884-.209-4.971-.274-.5-.033-1.6-.094-2.445-.137-1.824-.1-3.95-.214-5.96-.33-1.609-.094-7-.4-10.877-.6l-3.955-.22c-2.868-.164-3.34-.192-4.367-.247-2.3-.126-4.06-.22-4.944-.275l-2.005-.11-1.977-.11c-.5-.033-1.6-.093-2.445-.137s-1.956-.11-2.472-.138-1.4-.076-1.977-.109-1.7-.093-2.5-.137l-2.554-.137c-.6-.033-1.165-.066-1.247-.077s-.154-.005-.154.006m83.777,17.436a2.057,2.057,0,0,1,.538.12c.083.066.071.171-.077,1.192-.044.319-.1,1.06-.121,1.648a7.262,7.262,0,0,0,.061,1.642,3.71,3.71,0,0,1,.077.577c-.011.011-.181.055-.384.109a1.118,1.118,0,0,1-.868-.06,3.4,3.4,0,0,1-.291-1.346,4.718,4.718,0,0,0-.093-.758,5.4,5.4,0,0,0-.3,1.494c-.033.3-.039.313-.258.4a2.9,2.9,0,0,1-.676.121c-.445.033-.445.033-.621-.181a9.371,9.371,0,0,1-.627-1.121c-.45-.906-.45-.906-.494-.632a14.829,14.829,0,0,0-.011,1.609,5.057,5.057,0,0,1-.033,1.412c-.088.1-.4.1-.6,0-.126-.06-.159-.126-.192-.335a10.039,10.039,0,0,1,.027-1.835c.033-.406.06-1.154.06-1.664,0-.918,0-.918.149-1.022a1.888,1.888,0,0,1,.439-.192,2.729,2.729,0,0,1,1.28-.022,2.967,2.967,0,0,1,.258.731c.264,1.01.643,1.933.747,1.834a2.036,2.036,0,0,0,.11-.3c.038-.149.159-.566.269-.929a15.458,15.458,0,0,0,.527-2.153c0-.214.165-.319.61-.4.016-.005.242.022.494.055m-4.928,1.2c.022.027-.039.11-.121.181a3.469,3.469,0,0,1-1.148.483c-.555.192-.61.253-.726.769a5.91,5.91,0,0,0-.065,1.615,2.489,2.489,0,0,0,.648-.082c.637-.132.918-.115.884.049-.022.115-.236.22-.961.456a2.635,2.635,0,0,0-.588.242,8.881,8.881,0,0,0,.126,1.582c.1.269-.1.461-.538.516a1.659,1.659,0,0,1-.945-.181,9.851,9.851,0,0,1-.11-1.851,9.347,9.347,0,0,0-.275-2.846c-.126-.236-.005-.3,1.214-.593a10.027,10.027,0,0,1,2.291-.385.66.66,0,0,1,.313.044" transform="translate(-103.504 -12.346)" fill="#2b5daa"/>
        <path id="Path_710" data-name="Path 710" d="M144.7,63.81c-.253,0-.257-.165-.273-.779-.011-.673.015-.7.061-.745l.042-.043h.062c.031,0,.5-.061,1.069-.136s2.107-.268,3.523-.439l3.35-.418c.484-.061,1.374-.171,1.978-.242s1.395-.176,1.758-.22c.326-.045.843-.107,1.208-.151l.111-.013c.362-.044,1.153-.143,1.757-.22s1.506-.186,2.006-.247,1.389-.17,1.976-.247c1.313-.17,35.467-4.434,41.337-5.163,2.663-.327,4.44-.547,4.639-.577.226-.033.722-.093,1.1-.138,1.558-.192,3.541-.439,4.173-.522.213-.031,2.115-.268,4.423-.549,3.335-.411,4.549-.562,4.861-.61.015-.12.041-.316.068-.535.05-.348.22-1.676.385-2.961s.374-2.9.467-3.6c.08-.606.143-1.08.156-1.294-.071.025-.164.053-.25.077l-.489.146c-.579.173-1.126.336-1.24.374a1.354,1.354,0,0,1-.292.062c-.2,0-.212,0-1.293-4.5-.116-.488-.328-1.364-.526-2.184l-.188-.776c-.438-1.813-.438-1.86-.438-1.885,0-.115,0-.215,1.479-.621.257-.069.759-.214,2.468-.73.261-.078.549-.161.639-.183.169-.046.8-.232,1.283-.382l.078-.023c.158-.045.158-.045.274-.959l.038-.3c.034-.248.079-.6.125-.952s.09-.692.128-.972c.051-.415.163-1.29.279-2.2l.133-1.04c.154-1.209.341-2.654.417-3.21.059-.457.088-.768.1-.915-.166-.019-.541-.049-1.093-.077-.648-.033-1.813-.1-2.582-.143l-2.445-.137c-.572-.033-1.461-.083-1.977-.11-.841-.051-2.451-.139-3.831-.214l-1.113-.061c-.572-.033-1.461-.083-1.977-.11s-1.385-.077-1.935-.11-1.444-.077-1.978-.109c-.307-.016-.88-.048-1.521-.084l-1.461-.081c-1.1-.061-2.2-.121-2.446-.137-.151-.01-.558-.034-1.048-.062l-.928-.053c-2.22-.113-8.108-.443-9.887-.544-1.889-.11-3.087-.176-4.943-.274-.712-.037-1.763-.1-2.537-.142l-.4-.023c-1.851-.11-3.048-.176-4.943-.275-.722-.037-1.782-.1-2.569-.141l-1.317-.075c-.589-.034-1.185-.068-1.551-.086l-1.9-.11c-.483-.027-1.186-.066-1.564-.082s-1.056-.055-1.513-.083-1.288-.082-1.866-.11-1.479-.083-2.006-.11-1.654-.093-2.5-.137c-.818-.043-1.915-.1-2.392-.137l-.157-.009c-.526-.031-1.494-.088-2.285-.128-7.338-.383-7.4-.425-7.466-.469a6.594,6.594,0,0,1-.992-1.421c0-.046.019-.152.2-.152.028,0,.064,0,.1,0,.076.01.538.038,1.246.077l3.349.181c.639.035,1.307.071,1.705.094.577.033,1.466.082,1.977.109l.832.047c.516.029,1.126.064,1.639.091.847.044,1.946.1,2.447.137l1.976.11,2.005.11c.649.041,1.767.1,3.224.181l1.72.094c.94.05,1.415.078,3.688.208l.68.039,3.955.22c3.751.2,9.184.506,10.877.6,2.01.115,4.136.23,5.96.329.846.044,1.946.1,2.446.137,1.061.064,3.412.2,4.969.274l.278.015c.629.035,1.547.085,2.195.123,1.516.088,3.757.214,5.411.3.467.022,1.268.068,1.963.108l.582.033c1.905.109,4.08.233,5.886.325.847.044,1.946.1,2.447.137s1.575.093,2.387.137c4.6.251,4.614.262,4.674.321.089.089.089.089-.585,5.305-.531,4.1-.737,5.712-.78,6.167l.036-.011c.116-.036.361-.113.589-.18.539-.159,4.285-1.269,4.7-1.39l.119-.035a1.36,1.36,0,0,1,.355-.08c.246,0,.294.2.375.542l.033.138c.385,1.571,1.044,4.274,1.418,5.84.094.407.292,1.208.434,1.784.26,1.071.257,1.178-.7,1.468-.27.081-.886.264-1.627.482l-6.482,1.913c-.628.188-.628.188-.652.341s-.149,1.076-.263,1.973c-.121.95-.286,2.214-.362,2.8-.04.3-.108.83-.184,1.425l-.222,1.723a9.443,9.443,0,0,1-.331,2.186c-.065.066-.065.066-6,.8-1.184.143-6.882.855-14.1,1.755l-7.684.959c-10.6,1.328-19.108,2.39-19.366,2.417l-.418.052c-.32.039-.74.091-1.117.141-.5.06-1.232.152-1.765.219l-.268.033c-.528.061-1.131.138-1.345.165-.615.082-1.2.154-2.2.275-.318.041-.669.084-.94.117l-.377.047c-.178.028-.709.093-1.271.16l-.7.084c-.6.072-1.328.161-1.8.223-2.4.306-20.958,2.614-21.13,2.626l-.061,0m.016-1.3c0,.087-.007.248,0,.511.006.234.011.416.023.5h.006c.259-.024,18.809-2.33,21.113-2.625.467-.061,1.2-.15,1.8-.223l.7-.084c.535-.065,1.088-.131,1.265-.159l.383-.048c.271-.033.621-.076.94-.117,1-.121,1.582-.192,2.2-.275.215-.027.82-.1,1.349-.165l.267-.033c.534-.067,1.267-.159,1.764-.219.376-.049.8-.1,1.118-.14l.42-.052c.256-.027,8.941-1.111,19.364-2.417l7.684-.959c7.215-.9,12.913-1.612,14.1-1.756,4.189-.522,5.509-.687,5.812-.739.038-.23.139-.955.271-2l.223-1.723c.077-.6.144-1.121.184-1.425.077-.587.242-1.85.362-2.8s.237-1.844.265-1.987c.051-.325.127-.347.852-.565l6.483-1.913c.74-.219,1.355-.4,1.625-.482.36-.109.577-.175.625-.279a1.957,1.957,0,0,0-.124-.847c-.143-.577-.341-1.38-.434-1.787-.373-1.564-1.032-4.267-1.417-5.837l-.034-.14a1.39,1.39,0,0,0-.1-.327,2.213,2.213,0,0,0-.272.073l-.121.036c-.412.121-4.158,1.23-4.7,1.39-.226.067-.47.143-.585.179l-.04.013c-.078.024-.258.059-.33-.014s-.081-.08.745-6.464c.391-3.024.6-4.632.627-5.042-.519-.046-2.745-.17-4.448-.263-.813-.044-1.891-.1-2.391-.137s-1.6-.093-2.443-.137c-1.806-.092-3.982-.217-5.887-.326l-.582-.033c-.694-.04-1.494-.086-1.961-.108-1.655-.088-3.9-.214-5.413-.3-.648-.038-1.565-.088-2.193-.122l-.278-.015c-1.557-.079-3.909-.21-4.972-.275-.5-.033-1.6-.093-2.444-.137-1.824-.1-3.95-.214-5.961-.329-1.692-.1-7.125-.4-10.876-.6l-3.955-.22-.68-.039c-2.271-.13-2.747-.157-3.687-.208l-1.72-.094c-1.458-.079-2.577-.14-3.225-.181l-2-.11-1.977-.11c-.5-.033-1.6-.093-2.444-.137-.514-.027-1.125-.061-1.641-.091l-.831-.047-1.978-.11c-.4-.023-1.065-.059-1.7-.094l-3.349-.181c-.422-.023-.924-.051-1.15-.068a11.16,11.16,0,0,0,.752,1.026c.447.073,5.614.343,7.334.433.791.04,1.761.1,2.288.128l.158.009c.477.034,1.572.095,2.389.137.847.044,1.974.1,2.5.137s1.433.077,2,.11,1.418.077,1.87.11,1.128.066,1.506.082,1.084.055,1.568.082l1.9.11c.366.018.963.053,1.553.087l1.316.075c.787.045,1.846.1,2.568.141,1.9.1,3.094.165,4.945.275l.4.023c.773.044,1.824.1,2.536.142,1.857.1,3.055.165,4.945.275,1.778.1,7.666.431,9.886.544l.929.054c.492.028.9.051,1.052.062.242.017,1.339.077,2.443.137l1.461.081c.641.036,1.212.068,1.521.083.534.033,1.423.082,1.977.11s1.423.083,1.934.11,1.407.077,1.978.11l1.113.061c1.381.075,2.991.163,3.832.214.516.027,1.406.077,1.977.11l2.445.137c.768.044,1.932.11,2.58.143,1.221.062,1.272.1,1.307.13.067.065.1.1-.04,1.185-.077.556-.264,2-.417,3.208l-.133,1.04c-.116.909-.228,1.784-.279,2.2-.038.28-.083.631-.127.972-.047.358-.092.705-.126.953l-.038.3c-.131,1.039-.139,1.1-.479,1.2l-.071.021c-.488.151-1.122.339-1.3.386-.09.023-.373.1-.629.18-1.713.516-2.217.663-2.476.732a9.192,9.192,0,0,0-1.255.4c.038.169.162.7.418,1.759l.188.776c.2.821.41,1.7.526,2.185.544,2.266.947,3.927,1.083,4.272.036-.008.083-.02.139-.037.113-.038.662-.2,1.243-.375l.492-.147c.143-.04.287-.087.333-.105a.25.25,0,0,1,.1-.024h.065l.065.058c.09.1.078.21-.106,1.6-.093.7-.3,2.312-.467,3.6s-.335,2.615-.385,2.963-.082.635-.082.635c0,.12,0,.12-1,.248-.708.09-1.951.244-4.091.507-2.306.282-4.205.518-4.419.549-.634.083-2.618.33-4.178.522-.379.044-.871.1-1.1.137-.2.03-1.94.246-4.646.577-5.87.729-40.023,4.993-41.335,5.163-.588.077-1.479.187-1.979.248s-1.4.17-2,.247-1.4.176-1.758.22l-.111.013c-.363.045-.879.107-1.206.151-.365.044-1.155.143-1.759.22s-1.495.181-1.978.242l-3.351.418c-1.416.172-2.962.364-3.52.439-.31.041-.765.1-.982.125m80.191-20.981c-.228,0-.777-.061-.923-.241-.065-.08-.1-.19-.141-1.937a11.012,11.012,0,0,0-.258-2.781.328.328,0,0,1-.035-.291c.083-.185.344-.267,1.341-.509a10.087,10.087,0,0,1,2.321-.389h0c.368,0,.408.068.436.113a.134.134,0,0,1,.026.107,2.225,2.225,0,0,1,.442-.187,3.412,3.412,0,0,1,.842-.094c.444,0,.533.07.567.1a2.962,2.962,0,0,1,.308.808,9.171,9.171,0,0,0,.557,1.606l.025-.08c.036-.142.155-.552.269-.928a15.564,15.564,0,0,0,.521-2.112c0-.379.376-.475.729-.536l.033,0c.021,0,.069,0,.5.057a2.18,2.18,0,0,1,.605.148c.154.123.14.214-.021,1.327-.044.318-.1,1.066-.119,1.633A7.163,7.163,0,0,0,233,38.954c.114.639.1.677.012.722a1.585,1.585,0,0,1-.317.1l-.106.029a2.012,2.012,0,0,1-.464.057.791.791,0,0,1-.544-.156,3.641,3.641,0,0,1-.33-1.432l0-.019c-.039.224-.078.487-.109.759-.037.336-.066.405-.347.518a3.023,3.023,0,0,1-.719.131c-.129.009-.222.016-.293.016a.486.486,0,0,1-.448-.25,9.487,9.487,0,0,1-.644-1.148c-.1-.192-.176-.355-.24-.478-.011.281-.012.807.005,1.389.034,1.255.008,1.417-.065,1.506a.491.491,0,0,1-.369.131.9.9,0,0,1-.407-.095c-.182-.087-.23-.206-.267-.439a10.016,10.016,0,0,1,.027-1.868c.033-.407.06-1.149.06-1.653a6.587,6.587,0,0,1,.026-.872,4.181,4.181,0,0,1-1.149.474c-.509.176-.527.195-.632.665a7.8,7.8,0,0,0-.091,1.443c.108-.01.283-.036.506-.081a3.546,3.546,0,0,1,.671-.091.43.43,0,0,1,.338.111.232.232,0,0,1,.045.2c-.036.19-.234.3-1.057.564a5.076,5.076,0,0,0-.505.193,11.488,11.488,0,0,0,.132,1.444.437.437,0,0,1-.021.4.819.819,0,0,1-.632.314,1.422,1.422,0,0,1-.151.007m-.692-.415a1.8,1.8,0,0,0,.692.129,1.165,1.165,0,0,0,.118-.005.587.587,0,0,0,.42-.176.153.153,0,0,0,0-.146,7.842,7.842,0,0,1-.127-1.684c.031-.065.057-.117.675-.327a5.637,5.637,0,0,0,.819-.313,3.013,3.013,0,0,0-.667.083,4.247,4.247,0,0,1-.631.092.218.218,0,0,1-.125-.031c-.216-.133-.013-1.68.005-1.764.127-.569.219-.667.818-.874a4.166,4.166,0,0,0,1.068-.43h-.063a9.853,9.853,0,0,0-2.258.38,5.389,5.389,0,0,0-1.144.346.442.442,0,0,1,.022.041,9.157,9.157,0,0,1,.292,2.91c.013.52.041,1.584.086,1.77m4.747-5.507a3.182,3.182,0,0,0-.762.082,1.8,1.8,0,0,0-.4.171c-.087.061-.088.062-.088.905,0,.511-.027,1.262-.061,1.676a9.936,9.936,0,0,0-.028,1.8c.029.185.049.194.112.225a.618.618,0,0,0,.279.064.291.291,0,0,0,.151-.029c.031-.1.007-.981,0-1.314a14.891,14.891,0,0,1,.014-1.639c.02-.128.044-.277.192-.277s.161.049.57.871a9.375,9.375,0,0,0,.609,1.094c.119.145.119.145.227.145.066,0,.153-.007.273-.015a2.789,2.789,0,0,0,.634-.111c.143-.057.143-.057.168-.284.186-1.621.354-1.621.444-1.621.137,0,.165,0,.236.89a3.423,3.423,0,0,0,.252,1.258.589.589,0,0,0,.337.067,1.707,1.707,0,0,0,.394-.048l.1-.027.166-.045c-.011-.094-.034-.254-.069-.45a7.375,7.375,0,0,1-.063-1.672c.022-.585.077-1.331.122-1.663A6.742,6.742,0,0,0,232.9,34.6c-.029,0-.207-.047-.46-.08-.376-.049-.452-.054-.467-.055-.476.089-.476.188-.476.254a15.246,15.246,0,0,1-.533,2.194c-.111.367-.231.781-.268.923a1.819,1.819,0,0,1-.134.352l-.043.057-.089.007c-.342,0-.783-1.623-.868-1.948a4.133,4.133,0,0,0-.217-.657,1.479,1.479,0,0,0-.381-.033" transform="translate(-103.146 -11.989)" fill="#0067b1"/>
        <path id="Path_711" data-name="Path 711" d="M288.926,47.1a12.189,12.189,0,0,0-3.175,2.01c-.242.225-.577.527-.741.665a22.085,22.085,0,0,0-5.636,7c-.225.478-.225.478-.258.055a6.746,6.746,0,0,0-1.593-3.933,11.054,11.054,0,0,0-2.011-.994,6.088,6.088,0,0,0-2.312-.385,4.289,4.289,0,0,0-1.538.181,10.375,10.375,0,0,0-3.3,1.368,3.374,3.374,0,0,1-.45.384,9.79,9.79,0,0,0-1.341,1.1,6.216,6.216,0,0,0-1.093,1.527c-.115.209-.28.5-.368.654a6.3,6.3,0,0,0-.862,3.3,1.881,1.881,0,0,0,.121.862,5.665,5.665,0,0,0,.687,1.11c.055.06.2.236.318.384a8.443,8.443,0,0,0,1.543,1.467,1.55,1.55,0,0,0,.742.181,6.25,6.25,0,0,1,.813.121,5.522,5.522,0,0,0,2.582-.368c.374-.121.692-.22.7-.22.027,0-1.576,3.224-1.812,3.653a21.9,21.9,0,0,1-1.423,2.186,5.078,5.078,0,0,0-.719,1.049.986.986,0,0,0,.829,1.313A2.926,2.926,0,0,0,270,71.394a16.79,16.79,0,0,0,1.824-1.329c.165-.143.785-.747,1.373-1.357.95-.978,1.324-1.379,1.906-2.055.214-.247.823-1.055,1.038-1.373.3-.445.6-.9.819-1.236.236-.362,1.06-1.961,1.192-2.307.083-.22.083-.22.121.11a7.076,7.076,0,0,0,1.214,3.345,8.855,8.855,0,0,0,1.769,1.11,7.257,7.257,0,0,0,2.928.7,7.734,7.734,0,0,0,2.406-.4,6.956,6.956,0,0,0,2.038-.813c.2-.137.61-.418.912-.615a6.218,6.218,0,0,0,2.28-2.313,6.817,6.817,0,0,1,.494-.741,5.828,5.828,0,0,0,1.011-3.263,1.559,1.559,0,0,0-.225-1.082,10.471,10.471,0,0,0-1.834-2.4,2.126,2.126,0,0,0-1.22-.56c-.236-.044-.571-.115-.753-.159a3.6,3.6,0,0,0-.725-.083,7.558,7.558,0,0,0-2,.357,2.659,2.659,0,0,1-.44.137c-.088,0,.121-.4.681-1.319.192-.318.549-.9.791-1.291a19.382,19.382,0,0,1,2.2-3.164c.715-.813.786-.934.786-1.313a.887.887,0,0,0-.577-.851,1.3,1.3,0,0,0-1.082-.027m-15.683,6.565a3.7,3.7,0,0,1,.648,1.225,13.53,13.53,0,0,1-.918,5.762.4.4,0,0,1-.341.209,1.667,1.667,0,0,0-.643.335c-.983.708-.846.643-1.087.522a4.342,4.342,0,0,1-1.33-1.186,7.241,7.241,0,0,1,.742-3.631c.231-.434.978-1.6,1.445-2.247.444-.621.994-1.126,1.23-1.126a.549.549,0,0,1,.253.137m2.664.077a1.41,1.41,0,0,1,.549.561c.1.148.1.148-.066.247-.22.126-.4.577-.517,1.285-.011.077-.028,0-.033-.17a6.092,6.092,0,0,0-.307-1.621c-.077-.2-.138-.374-.138-.384,0-.061.335-.006.511.082m-6.581,1.049a.153.153,0,0,1-.115.055c-.044,0-.066-.027-.05-.055a.139.139,0,0,1,.115-.055c.044,0,.066.022.049.055m17.507,2.23c.8.67,1.148,1.082,1.181,1.412a9,9,0,0,1-.736,2.84,12.908,12.908,0,0,1-2.895,3.565c-.22.11-.269.115-.4.049a2.752,2.752,0,0,1-.714-1.67,13.439,13.439,0,0,1,1.225-5.191c.176-.291.2-.314.45-.352a1.368,1.368,0,0,0,.648-.33,2.483,2.483,0,0,1,.907-.522.872.872,0,0,1,.335.2m-11-.005c0,.044-.022.082-.055.082s-.055-.038-.055-.082.027-.082.055-.082.055.039.055.082m14.228,1.862a7.093,7.093,0,0,1-.357,1.373c-.11.154-.11.055.027-.577.061-.286.127-.676.149-.873.033-.352.038-.352.1-.192a1.071,1.071,0,0,1,.077.27m-22.226-.066c-.017.159-.072.461-.11.665a4.567,4.567,0,0,0-.082.632c-.005.324-.093.154-.1-.187a6.836,6.836,0,0,1,.248-1.346c.066-.11.077-.039.044.236m13.705,5.153c.039.137.1.341.149.456.1.269.1.258-.1.258a1.189,1.189,0,0,1-.807-.588c-.165-.258-.165-.258-.011-.357a1.958,1.958,0,0,0,.549-1.164c.093-.473.093-.473.126.34a9.1,9.1,0,0,0,.1,1.055m6.433,0a.055.055,0,0,1-.055.055.059.059,0,0,1-.055-.055.055.055,0,0,1,.055-.055.052.052,0,0,1,.055.055" transform="translate(-188.717 -33.562)"/>
        <path id="Path_712" data-name="Path 712" d="M376.37,44.891a3.36,3.36,0,0,1-.908.031,2.308,2.308,0,0,0-1.039.154,63.182,63.182,0,0,1-8.8.974c-1.927.061-2.371.236-2.371.9a4.205,4.205,0,0,0,1.14,1.979c.514.574.514.574,1.039.523a2.84,2.84,0,0,0,.837-.226c.282-.143.343-.143.535,0,.272.185.726.205.857.021a1.416,1.416,0,0,0,.2-.431c.091-.277.141-.308.515-.318.605-.031.686-.082.767-.523a1.618,1.618,0,0,1,.151-.523,3.034,3.034,0,0,1,1.18-.277c.605-.082,1.342-.195,1.644-.246.747-.154,1.22-.143,1.22.021A45.576,45.576,0,0,1,371.1,52.53c-.454.954-.655,1.272-.817,1.3-.121.031-.706.072-1.312.1-1.16.062-1.7.226-1.886.564-.142.277.08.687.545,1.015a1.358,1.358,0,0,0,1.372.072c.495-.174.706-.195.706-.051a9.2,9.2,0,0,1-.545,1.1c-1.594,2.953-2.391,4.409-2.471,4.543-.061.082-.242.41-.4.728-.3.585-.3.585-.051.841a.771.771,0,0,0,1.039.215c.363-.246.424-.338,1.17-1.764.9-1.713,1.2-2.184,1.241-1.918a26.024,26.024,0,0,1-1.14,2.82,10.371,10.371,0,0,0-1.079,2.769,1.209,1.209,0,0,0,.5.3c.343.133.454.133.7.01a1.167,1.167,0,0,1,.474-.113,1.376,1.376,0,0,0,1.019-.512.64.64,0,0,0,0-.39c-.07-.236.666-2.01,2.472-5.957.726-1.61,1.352-2.994,1.382-3.1.051-.174.3-.246,1.392-.338.878-.082,1.231-.216,1.3-.492a.824.824,0,0,0-.414-.769,3.9,3.9,0,0,0-.867-.174c-.464-.041-.676-.113-.646-.185a58.435,58.435,0,0,1,2.946-6.173c.423-.821.464-.974.423-1.425a.941.941,0,0,0-.232-.646,2.6,2.6,0,0,0-1.553-.01m-6.184,13.433c-.03.082-.061.051-.061-.062s.021-.174.051-.133a.209.209,0,0,1,.01.195m-.272.492c-.161.318-.232.184-.081-.154.071-.154.141-.236.162-.174a.58.58,0,0,1-.081.328" transform="translate(-259.428 -31.984)"/>
        <path id="Path_713" data-name="Path 713" d="M369.233,82.646c-.033.055-.149.061-.539.022-.769-.071-.719-.121-.758.763a5.617,5.617,0,0,0,0,.8,2.381,2.381,0,0,0,1.016-.093,1.362,1.362,0,0,0,.049-.39,3.159,3.159,0,0,1,.05-.494c.022-.1.038.06.033.412-.005.577-.005.577.269.577s.275,0,.308-.357.033-.357.049-.071c.028.489.044.511.39.511.231,0,.269-.017.269-.1a.2.2,0,0,0-.06-.148,2.472,2.472,0,0,1,.077-1.165c.055-.159.06-.242.022-.269a3.233,3.233,0,0,0-.594-.049c-.4-.017-.549,0-.582.055" transform="translate(-262.762 -58.98)"/>
        <path id="Path_714" data-name="Path 714" d="M66.867,153.677a2.328,2.328,0,0,0,.055.39c.044.231.242,1.444.384,2.378.077.473.214,1.319.269,1.621.033.148.258,1.527.511,3.06.456,2.791.456,2.791.6,2.791.083,0,1.33-.148,2.775-.33s4.356-.538,6.471-.8,3.856-.489,3.867-.494a8.482,8.482,0,0,0-.264-1.132c-.049-.132-.049-.132-5.96.6-3.252.407-5.927.731-5.938.714s-.3-1.676-.632-3.7c-.6-3.664-.747-4.537-.8-4.818-.027-.132-.066-.148-.478-.231-.247-.049-.544-.109-.654-.137-.2-.044-.209-.039-.209.082" transform="translate(-47.755 -109.675)" fill="#2b5daa"/>
        <path id="Path_715" data-name="Path 715" d="M439.255,78.154c-.313.077-.412.159-.412.352a15.373,15.373,0,0,1-.527,2.153c-.11.362-.231.78-.269.928a2.055,2.055,0,0,1-.109.3c-.1.1-.484-.824-.747-1.835a2.953,2.953,0,0,0-.258-.73,2.731,2.731,0,0,0-1.28.022,1.894,1.894,0,0,0-.439.192c-.148.1-.148.1-.148,1.022,0,.511-.027,1.258-.06,1.664a10,10,0,0,0-.028,1.835c.033.209.066.275.192.335.2.1.511.1.6,0a5.043,5.043,0,0,0,.033-1.412,14.967,14.967,0,0,1,.011-1.609c.044-.275.044-.275.495.632a9.354,9.354,0,0,0,.626,1.121c.176.214.176.214.621.181a2.921,2.921,0,0,0,.675-.121c.22-.088.225-.1.259-.4a5.4,5.4,0,0,1,.3-1.494,4.78,4.78,0,0,1,.093.758,3.4,3.4,0,0,0,.291,1.346,1.116,1.116,0,0,0,.868.06c.2-.055.374-.1.384-.11a3.688,3.688,0,0,0-.077-.577,7.29,7.29,0,0,1-.06-1.643c.022-.588.077-1.329.121-1.648.149-1.022.16-1.126.077-1.192a4.657,4.657,0,0,0-1.033-.176c-.016.006-.1.022-.2.044" transform="translate(-310.627 -55.783)" fill="#fff"/>
        <path id="Path_716" data-name="Path 716" d="M424.547,82.41a15.926,15.926,0,0,0-1.582.329c-1.22.3-1.341.357-1.214.594a9.362,9.362,0,0,1,.275,2.845,9.842,9.842,0,0,0,.109,1.851,1.663,1.663,0,0,0,.945.181c.439-.055.643-.247.538-.516a8.907,8.907,0,0,1-.126-1.582,2.672,2.672,0,0,1,.588-.242c.725-.236.939-.34.961-.456.033-.165-.247-.181-.884-.049a2.512,2.512,0,0,1-.648.083,5.88,5.88,0,0,1,.066-1.615c.115-.516.17-.577.725-.769a3.452,3.452,0,0,0,1.148-.484c.083-.071.143-.154.121-.181a2.528,2.528,0,0,0-1.022.011" transform="translate(-301.176 -58.818)" fill="#fff"/>
        <path id="Path_717" data-name="Path 717" d="M193.65,32.02a32.875,32.875,0,0,0-4,3.779c-.33.362-.731.8-.884.961s-.445.489-.637.714-.467.538-.6.687c-.351.39-.538.615-1.346,1.593-.39.478-.813.983-.934,1.126s-.286.335-.374.439-.335.428-.566.714c-.609.764-.736.923-1.038,1.285-.154.187-.4.489-.544.676a1.722,1.722,0,0,1-.3.346c-.022,0-.077-.066-.121-.154s-.186-.335-.318-.56c-.384-.654-1.346-2.6-1.653-3.351a32.9,32.9,0,0,1-1.654-5c-.231-.961-.231-.961-.484-1.2a8.54,8.54,0,0,0-2.477-1.543,10.433,10.433,0,0,0-1.989-.45,20.137,20.137,0,0,0-3.148.055,14.759,14.759,0,0,0-1.95.33c0,.066.209,1.132.3,1.533a1.521,1.521,0,0,1,.06.434,2.376,2.376,0,0,1-.538-.215,14.07,14.07,0,0,0-4.109-1.362,5.7,5.7,0,0,0-4.461,1.115c-.264.214-.264.214-.264,2.153,0,2.022-.066,4.8-.164,6.619-.143,2.8-.176,3.368-.247,4.7-.044.785-.1,1.813-.137,2.28-.126,1.934-.384,6.345-.467,7.91-.165,3.236-.192,4.114-.226,7-.038,2.912-.038,2.912.2,3.148a4.347,4.347,0,0,0,2.417.978c.319.044,1.247.093,2.06.115,1.483.028,1.483.028,2.192-.654s.709-.681.621-1.527a49.6,49.6,0,0,1-.3-7.141,70.626,70.626,0,0,1,.78-10.108c.071-.533.236-1.582.527-3.351.077-.461.368-2.043.434-2.362.033-.137.115-.571.192-.961.247-1.319.714-3.472,1.192-5.466.115-.5.247-1.066.3-1.264.165-.7.192-.8.242-.714.022.044.22.665.439,1.373.418,1.357,1.072,3.164,1.456,4.038.038.088.2.461.346.824s.39.906.532,1.208.357.769.484,1.044c.313.681,2.378,4.779,2.834,5.625.209.379.544,1.022.747,1.428.324.637.363.753.3.846-.033.06-.648.89-1.357,1.846s-1.472,1.972-1.686,2.258-.406.544-.434.577-.313.44-.643.906-.681.956-.775,1.088c-.209.3-1.12,1.664-1.6,2.4-.34.532-1.016,1.654-1.56,2.61A24.57,24.57,0,0,0,166.3,67.89c.027.011.417.187.862.4.994.456,1.033.456,1.511-.1.175-.2.4-.45.494-.555.544-.571,2.6-3.208,4.537-5.823.439-.588.819-1.1.84-1.126s.171-.214.319-.412.3-.384.33-.417.153-.192.275-.352c.577-.752,1.549-1.944,1.977-2.417.154-.165.45-.5.659-.741.571-.654.517-.61.632-.489.055.055.637.906,1.285,1.89s1.319,1.978,1.472,2.214c2.763,4.114,4.944,6.042,7.4,6.554a6.7,6.7,0,0,0,2.088.027,3.491,3.491,0,0,0,1.1-.522c.335-.253.775-.708.747-.78-.017-.044-.291-.5-.615-1.022-.709-1.154-1.955-3.329-2.466-4.3-.2-.4-.39-.742-.412-.769-.055-.071-1.275-2.51-1.648-3.3l-.61-1.28c-.176-.374-.324-.692-.324-.7s-.456-1.028-.714-1.588c-.225-.478-.874-2.016-1.517-3.587a3.283,3.283,0,0,1-.187-.539.887.887,0,0,1,.181-.313c.1-.126.418-.538.7-.917,1.137-1.5,2.994-3.9,3.335-4.312.049-.06.241-.3.422-.522.582-.731,1.912-2.318,2.39-2.862.258-.286.56-.632.675-.769l.747-.819c.3-.319.648-.7.779-.851.4-.44,2.093-2.082,2.967-2.868.786-.708.8-.725.868-1.032a1.256,1.256,0,0,0,.049-.33c-.033-.033-1.428-.532-1.856-.665a12.065,12.065,0,0,0-1.4-.3c0,.005-.252.192-.555.423" transform="translate(-113.096 -22.565)" fill="#2b5daa"/>
        <path id="Path_718" data-name="Path 718" d="M163.328,68.673c-.176,0-.384,0-.634-.008-.743-.02-1.722-.067-2.077-.117a4.448,4.448,0,0,1-2.5-1.018c-.279-.279-.279-.279-.24-3.251.034-2.925.061-3.777.226-7.009.083-1.573.343-6.01.467-7.912.033-.467.093-1.494.137-2.278l.039-.731c.05-.916.094-1.729.208-3.966.1-1.761.164-4.542.164-6.612,0-2.007,0-2.007.317-2.264a5.862,5.862,0,0,1,4.568-1.146,14.223,14.223,0,0,1,4.154,1.375c.129.061.236.108.316.141-.009-.056-.023-.124-.04-.2-.08-.342-.306-1.469-.306-1.564,0-.168,0-.168,2.072-.471a18.758,18.758,0,0,1,2.077-.095c.483,0,.876.014,1.107.039a10.624,10.624,0,0,1,2.022.458,8.734,8.734,0,0,1,2.526,1.574c.284.265.293.3.524,1.268a32.765,32.765,0,0,0,1.647,4.978c.3.739,1.254,2.67,1.644,3.333.133.228.277.482.322.565l.006.011c.046-.053.107-.129.176-.221.152-.191.394-.494.548-.682.3-.36.427-.519,1.025-1.269.192-.237.384-.482.5-.629l.134-.166c.092-.11.222-.265.323-.378.119-.141.541-.645.93-1.122.812-.983,1-1.205,1.351-1.6.1-.1.253-.284.406-.459l.2-.226c.2-.232.483-.555.642-.719s.552-.6.881-.958a33.084,33.084,0,0,1,4.018-3.8l.33-.25.169-.128v-.038l.152-.037a12.506,12.506,0,0,1,1.427.3c.128.039,1.831.616,1.916.7.047.047.077.075-.01.462-.076.353-.123.4-.912,1.107-.85.764-2.563,2.42-2.956,2.857-.132.148-.484.534-.781.853l-.747.818c-.111.133-.415.481-.675.768-.47.534-1.807,2.131-2.384,2.855-.182.226-.374.462-.424.523-.34.411-2.207,2.826-3.332,4.308-.381.505-.619.816-.707.922a1.05,1.05,0,0,0-.15.238c.007.01.07.208.177.468.675,1.649,1.3,3.121,1.514,3.581.547,1.186.683,1.51.717,1.605h0c0,.013.043.1.318.687l.609,1.279c.394.827,1.561,3.157,1.637,3.276.038.047.3.55.422.785.514.977,1.756,3.144,2.461,4.292.024.038.592.952.627,1.046.1.252-.785.938-.795.945a3.663,3.663,0,0,1-1.151.547,4.429,4.429,0,0,1-.9.073,7.031,7.031,0,0,1-1.251-.1c-2.521-.524-4.692-2.44-7.5-6.614-.1-.147-.382-.577-.74-1.114l-.732-1.1c-.659-1-1.186-1.766-1.265-1.864-.063.064-.175.191-.315.352l-.111.127c-.2.232-.5.573-.663.745-.413.456-1.37,1.626-1.968,2.406-.07.092-.142.183-.2.251-.037.047-.065.082-.076.1-.04.043-.176.212-.332.42s-.295.383-.322.417c-.012.015-.114.153-.268.359l-.569.762c-1.958,2.64-4,5.258-4.548,5.836-.067.071-.193.214-.322.36l-.168.191c-.238.277-.411.478-.7.478a2.779,2.779,0,0,1-.98-.344c-.457-.214-.831-.383-.857-.393l-.057-.023-.031-.067c-.119-.31,1.452-3.579,2.039-4.6.548-.963,1.225-2.086,1.564-2.615.492-.758,1.4-2.121,1.6-2.406l.14-.2c.156-.218.4-.56.635-.891.43-.609.626-.885.647-.913s.22-.284.431-.572l.792-1.06.9-1.2c.609-.822,1.3-1.753,1.347-1.831a3.052,3.052,0,0,0-.306-.71c-.214-.427-.547-1.066-.745-1.424-.462-.858-2.531-4.964-2.839-5.634l-.171-.368c-.108-.232-.227-.486-.313-.676-.137-.288-.367-.817-.535-1.212-.149-.363-.307-.735-.345-.823-.392-.889-1.048-2.707-1.462-4.053-.132-.427-.244-.782-.321-1.022-.027.11-.056.235-.084.354-.05.2-.182.764-.3,1.263-.46,1.918-.938,4.111-1.191,5.46l-.065.331c-.055.282-.105.537-.129.637-.062.3-.353,1.876-.432,2.352-.293,1.781-.455,2.813-.527,3.346a70.162,70.162,0,0,0-.779,10.09,49.454,49.454,0,0,0,.3,7.124c.092.89.074.936-.664,1.645a1.758,1.758,0,0,1-1.66.7m-.292-36.086a5.25,5.25,0,0,0-3.418,1.141c-.211.172-.211.172-.211,2.043,0,2.075-.069,4.862-.165,6.627-.114,2.237-.158,3.05-.208,3.966l-.039.731c-.044.787-.1,1.815-.138,2.282-.124,1.9-.384,6.336-.466,7.908-.165,3.227-.192,4.077-.226,7-.037,2.852-.034,2.855.156,3.045a4.234,4.234,0,0,0,2.335.937c.3.041,1.2.091,2.044.114.246,0,.453.008.627.008a1.5,1.5,0,0,0,1.461-.622c.658-.633.658-.633.578-1.409a49.706,49.706,0,0,1-.3-7.158,70.435,70.435,0,0,1,.781-10.125c.072-.536.234-1.571.528-3.355.074-.442.366-2.035.435-2.368.025-.1.073-.353.127-.63l.065-.33c.257-1.373.726-3.521,1.193-5.472.115-.5.248-1.066.3-1.265.184-.783.2-.847.354-.847A.171.171,0,0,1,169,34.9c.047.093.412,1.27.453,1.4.412,1.337,1.062,3.141,1.45,4.022.039.089.2.464.348.827.166.391.394.915.53,1.2.087.191.2.445.312.675l.172.37c.307.668,2.37,4.762,2.83,5.617.2.36.534,1,.749,1.432.326.64.406.815.294.988-.03.055-.438.607-1.362,1.853l-.9,1.2c-.368.494-.669.9-.791,1.059-.209.286-.408.546-.439.583s-.378.532-.635.9c-.234.332-.479.675-.635.893l-.139.2c-.2.282-1.1,1.64-1.595,2.4-.336.525-1.01,1.643-1.556,2.6a32.669,32.669,0,0,0-2,4.324c.153.069.457.208.78.359a2.815,2.815,0,0,0,.859.317c.143,0,.24-.1.482-.38l.169-.192c.131-.149.26-.295.33-.368.534-.561,2.607-3.221,4.527-5.81l.568-.762.276-.368c.028-.034.169-.213.315-.408.133-.178.3-.388.344-.433,0,0,.029-.039.069-.091s.123-.155.192-.246c.6-.786,1.567-1.965,1.985-2.426.155-.165.45-.5.657-.739l.111-.127c.366-.419.422-.484.541-.484a.227.227,0,0,1,.172.094l.02.022c.075.075.734,1.049,1.3,1.91l.732,1.1c.359.539.647.97.741,1.116,2.72,4.05,4.908,5.991,7.314,6.492a6.852,6.852,0,0,0,1.195.094,3.939,3.939,0,0,0,.829-.065,3.366,3.366,0,0,0,1.048-.5,3.986,3.986,0,0,0,.676-.656c-.068-.12-.278-.47-.58-.956-.708-1.153-1.955-3.328-2.472-4.31-.2-.393-.374-.713-.4-.752-.073-.095-1.369-2.7-1.661-3.318l-.61-1.28c-.243-.515-.311-.662-.33-.72h0c-.026-.07-.45-1.01-.708-1.572-.218-.463-.843-1.94-1.519-3.593a3.351,3.351,0,0,1-.2-.593.919.919,0,0,1,.212-.4c.087-.1.329-.42.7-.915,1.126-1.485,3-3.905,3.339-4.317.049-.059.241-.3.422-.52.59-.741,1.91-2.316,2.393-2.867.258-.286.559-.63.673-.767l.751-.823c.3-.319.647-.7.778-.85.407-.452,2.1-2.093,2.978-2.879.767-.692.767-.692.824-.956.02-.091.033-.161.041-.209-.3-.121-1.379-.5-1.75-.619-.289-.087-1.106-.26-1.308-.287-.041.033-.1.078-.185.141l-.329.249a32.818,32.818,0,0,0-3.981,3.763c-.329.362-.731.8-.885.962s-.436.479-.633.709l-.2.227c-.155.178-.315.361-.41.464-.349.388-.533.608-1.341,1.587-.39.478-.813.984-.935,1.127-.1.115-.229.267-.32.376l-.128.159c-.115.147-.309.394-.489.617-.611.766-.739.926-1.039,1.287-.153.186-.394.487-.542.673-.3.4-.359.4-.414.4-.033,0-.132,0-.249-.233-.042-.078-.183-.329-.314-.552-.394-.67-1.357-2.622-1.662-3.369a33.069,33.069,0,0,1-1.66-5.019c-.221-.92-.221-.92-.442-1.127a8.4,8.4,0,0,0-2.429-1.514,10.3,10.3,0,0,0-1.956-.442c-.22-.024-.6-.038-1.074-.038a18.479,18.479,0,0,0-2.037.092c-.468.069-1.49.218-1.812.286.049.28.2,1.052.283,1.4.108.481.066.523.023.567l-.042.042-.067,0h0a1.826,1.826,0,0,1-.592-.23,13.928,13.928,0,0,0-4.065-1.35,7.9,7.9,0,0,0-.935-.057" transform="translate(-112.74 -22.208)" fill="#0067b1"/>
        <path id="Path_719" data-name="Path 719" d="M162.932,68.435c-.177,0-.386,0-.637-.009-.749-.02-1.736-.068-2.1-.118a4.6,4.6,0,0,1-2.589-1.063c-.326-.327-.326-.327-.286-3.366.034-2.928.061-3.78.226-7.015.083-1.573.343-6.012.467-7.915.033-.468.093-1.493.137-2.277l.039-.73c.05-.916.094-1.729.208-3.966.095-1.759.164-4.536.164-6.6,0-2.044,0-2.083.375-2.388a6.013,6.013,0,0,1,4.687-1.18,14.378,14.378,0,0,1,4.2,1.39l.028.013c-.085-.388-.286-1.379-.286-1.494,0-.305,0-.305,2.208-.628a19.374,19.374,0,0,1,2.1-.1c.488,0,.887.014,1.124.04a10.677,10.677,0,0,1,2.06.467,8.784,8.784,0,0,1,2.58,1.608c.318.3.332.356.57,1.346a32.67,32.67,0,0,0,1.639,4.955c.3.735,1.247,2.654,1.634,3.312.075.127.153.264.215.373l.024-.032c.156-.2.4-.5.554-.688.3-.36.427-.519,1.025-1.268.191-.236.383-.481.5-.627l.137-.17c.093-.111.224-.267.325-.381.116-.138.538-.641.926-1.117.815-.986,1-1.208,1.356-1.6.1-.1.252-.283.4-.457l.2-.226c.2-.232.486-.558.647-.725s.549-.593.878-.955a33.236,33.236,0,0,1,4.04-3.817l.329-.25.106-.08v-.077l.258-.077h.054a12.281,12.281,0,0,1,1.473.31,19,19,0,0,1,1.982.74c.126.124.108.274.032.61-.086.4-.152.462-.96,1.19-.847.762-2.553,2.411-2.944,2.845-.131.148-.485.534-.783.855l-.747.817c-.107.129-.413.479-.674.767-.467.532-1.8,2.125-2.377,2.847-.183.227-.376.464-.425.524-.339.41-2.2,2.823-3.328,4.3-.382.507-.621.819-.712.928a1.382,1.382,0,0,0-.1.142c.025.08.076.224.15.4.663,1.621,1.3,3.123,1.51,3.573.515,1.117.673,1.477.722,1.615h0c0,.011.041.1.313.676l.609,1.279c.384.808,1.535,3.106,1.628,3.261.049.059.389.721.428.8.512.974,1.752,3.135,2.455,4.281.18.289.6.974.641,1.072.131.342-.549.9-.847,1.128a3.771,3.771,0,0,1-1.21.575,4.562,4.562,0,0,1-.935.078,7.2,7.2,0,0,1-1.283-.1c-2.567-.533-4.767-2.469-7.6-6.681-.1-.149-.383-.578-.741-1.116l-.732-1.1c-.507-.77-.945-1.415-1.147-1.7l-.181.206-.111.127c-.2.232-.5.575-.666.749-.409.451-1.362,1.617-1.958,2.395-.07.092-.143.184-.2.253-.035.043-.061.076-.071.091l-.033.038c-.021.023-.146.179-.3.385s-.3.388-.326.422l-.263.352-.569.763c-1.961,2.644-4.008,5.269-4.561,5.85-.066.07-.191.211-.318.356l-.169.192c-.254.3-.457.531-.816.531a2.788,2.788,0,0,1-1.046-.358c-.433-.2-.811-.374-.852-.391l-.118-.05-.056-.13a.287.287,0,0,1-.01-.12,5.268,5.268,0,0,1-.546.575,1.908,1.908,0,0,1-1.77.746m-.292-36.086a5.1,5.1,0,0,0-3.317,1.106c-.147.119-.153.124-.153,1.92,0,2.077-.069,4.868-.165,6.635-.114,2.237-.158,3.05-.208,3.966l-.039.73c-.044.787-.1,1.817-.138,2.285-.124,1.9-.384,6.333-.466,7.9-.164,3.224-.192,4.074-.225,6.991-.035,2.681-.031,2.791.109,2.931a4.083,4.083,0,0,0,2.245.892c.292.04,1.182.09,2.026.112.244,0,.449.009.623.009.751,0,.784-.033,1.351-.578.6-.579.6-.579.53-1.278a49.838,49.838,0,0,1-.3-7.176,70.551,70.551,0,0,1,.783-10.145c.072-.537.235-1.573.529-3.359.073-.443.367-2.041.436-2.374.025-.106.074-.354.127-.628l.065-.331c.258-1.374.727-3.525,1.195-5.478.115-.5.248-1.068.3-1.266.192-.819.226-.968.507-.968a.331.331,0,0,1,.286.171c.053.106.316.947.469,1.44.41,1.332,1.058,3.129,1.444,4,.039.089.2.466.349.831.164.388.392.909.526,1.194.087.193.206.446.313.676l.172.37c.306.667,2.366,4.755,2.826,5.608.2.36.536,1.006.751,1.437.329.646.452.888.286,1.145-.025.048-.258.364-1.368,1.861l-.893,1.2c-.37.5-.671.9-.794,1.063-.2.271-.407.545-.444.59s-.309.435-.627.886c-.235.332-.48.676-.637.894l-.139.194c-.2.28-1.1,1.636-1.591,2.39-.334.522-1.006,1.637-1.551,2.594a35.655,35.655,0,0,0-1.948,4.158c.168.076.4.185.655.3a3.118,3.118,0,0,0,.792.3c.066,0,.137-.063.362-.324l.171-.193c.133-.151.263-.3.333-.372.531-.557,2.6-3.211,4.514-5.8l.569-.763.279-.373c.029-.035.167-.211.312-.4,0,0,.242-.322.34-.43l.076-.1c.052-.066.122-.154.19-.244.6-.789,1.573-1.973,1.994-2.437.155-.166.448-.5.655-.736l.111-.127c.388-.446.469-.538.661-.538a.381.381,0,0,1,.29.148c.126.128,1.028,1.484,1.335,1.95l.731,1.1c.36.54.648.972.743,1.118,2.693,4.01,4.852,5.932,7.213,6.423a6.7,6.7,0,0,0,1.162.09,3.9,3.9,0,0,0,.791-.06,3.189,3.189,0,0,0,.991-.471,4.255,4.255,0,0,0,.58-.543c-.094-.157-.28-.465-.524-.857-.71-1.156-1.96-3.335-2.478-4.32-.206-.4-.368-.7-.394-.739-.086-.111-1.425-2.819-1.672-3.336l-.609-1.28c-.222-.472-.3-.647-.335-.733h0c-.031-.081-.43-.967-.7-1.562-.218-.464-.845-1.944-1.522-3.6a2.448,2.448,0,0,1-.209-.653c0-.051,0-.185.245-.5.063-.076.231-.29.7-.913,1.127-1.486,3-3.91,3.343-4.323.048-.058.239-.294.42-.518.591-.741,1.914-2.32,2.4-2.872.258-.286.557-.628.671-.764l.756-.828c.3-.319.646-.7.777-.848.41-.456,2.114-2.1,2.99-2.892.729-.657.729-.657.775-.871.006-.027.011-.052.016-.075-.39-.147-1.264-.459-1.617-.568-.254-.077-.954-.227-1.218-.272l-.133.1-.328.248a32.627,32.627,0,0,0-3.96,3.744c-.329.362-.731.8-.885.962s-.434.476-.628.7l-.2.228c-.156.179-.317.363-.413.468-.346.383-.529.6-1.335,1.58-.39.478-.814.986-.936,1.129-.1.116-.23.268-.32.375l-.124.154c-.116.148-.31.4-.491.619-.612.767-.74.927-1.041,1.289-.152.184-.392.485-.54.671-.324.437-.416.46-.538.46-.155,0-.282-.1-.391-.32-.039-.074-.18-.322-.309-.543-.4-.674-1.365-2.638-1.672-3.389a33.257,33.257,0,0,1-1.668-5.042c-.21-.873-.21-.873-.4-1.048a8.217,8.217,0,0,0-2.376-1.481,10.137,10.137,0,0,0-1.92-.434c-.213-.023-.589-.036-1.055-.036a18.55,18.55,0,0,0-2.015.091c-.371.054-1.233.18-1.65.255.063.335.186.948.254,1.239.109.486.091.6-.019.715l-.089.089-.133,0c-.056,0-.141,0-.66-.245a13.8,13.8,0,0,0-4.018-1.336,7.8,7.8,0,0,0-.915-.056m5.844,3.216c-.063.266-.16.681-.247,1.058-.459,1.916-.937,4.107-1.189,5.454l-.065.332c-.056.285-.106.543-.131.644-.06.292-.35,1.866-.43,2.341-.292,1.779-.455,2.81-.526,3.341a70.029,70.029,0,0,0-.777,10.071,49.362,49.362,0,0,0,.295,7.106c.02.193.035.351.039.485a40.923,40.923,0,0,1,1.855-3.9c.549-.965,1.228-2.091,1.567-2.622.457-.7,1.387-2.1,1.606-2.412l.141-.2c.155-.218.4-.56.634-.891.5-.711.63-.891.653-.92s.221-.285.427-.567l.8-1.065.893-1.2c.547-.737,1.161-1.565,1.31-1.777-.044-.129-.2-.439-.283-.6-.213-.427-.546-1.063-.742-1.42-.464-.86-2.536-4.973-2.844-5.644l-.171-.368c-.108-.232-.227-.487-.314-.677-.136-.288-.368-.819-.536-1.215-.149-.363-.307-.734-.345-.821-.393-.893-1.052-2.719-1.468-4.07l-.148-.475" transform="translate(-112.344 -21.81)" fill="#fff"/>
        <path id="Path_720" data-name="Path 720" d="M44.7,10.58a4.722,4.722,0,0,0-2.065.709,4.135,4.135,0,0,0-.318,1.159,112.384,112.384,0,0,1-4.389,14.887c-.242.681-.73,2.049-1.082,3.049s-.742,2.082-.863,2.417c-.527,1.45-1.368,3.911-2.071,6.1-.247.753-.467,1.4-.489,1.428a1.957,1.957,0,0,1-.231.214c-.1.088-.374.319-.6.522a2.543,2.543,0,0,1-.461.363,26.381,26.381,0,0,1-.961-2.774c-.17-.582-.687-2.554-.852-3.268-.253-1.115-.308-1.368-.478-2.225-.088-.467-.187-.978-.22-1.126-.346-1.725-.9-5.674-1.455-10.3-.505-4.224-.522-4.356-.61-4.461a5.348,5.348,0,0,0-1.362-.675,20.562,20.562,0,0,0-8-.841,8.129,8.129,0,0,0-2.994,1.055c-.923.549-.829.28-.868,2.516-.033,1.834-.06,2.395-.2,4.438-.055.841-.307,3.5-.363,3.818-.011.088-.071.583-.131,1.1-.187,1.621-.621,4.735-1.154,8.267-.06.406-.137.9-.165,1.1s-.1.692-.165,1.1c-.7,4.686-1.186,8.657-1.373,11.344a49.653,49.653,0,0,0-.165,6.289,9.731,9.731,0,0,0,1.741,1.373,5.882,5.882,0,0,0,.939.423,2.126,2.126,0,0,0,1,.11c.7-.038.824-.1.918-.45.439-1.637.659-4.13,1-11.371.11-2.367.324-5.619.467-7.163.164-1.741.434-4.021.577-4.839.027-.165.077-.478.115-.687.132-.829.45-2.373.632-3.092a13.287,13.287,0,0,1,.615-1.988.8.8,0,0,1,.137.286c.055.159.2.56.313.9.521,1.511,1.148,3.675,1.983,6.867,1.176,4.51,1.467,5.532,2.219,7.718a32.37,32.37,0,0,0,2.2,5.164c.093.164.236.412.313.549.126.231.159.253.511.346.527.132,2.17.462,2.988.593a15.394,15.394,0,0,0,3.214.109,7.57,7.57,0,0,0,2.153-.587c.506-.242.506-.242.538-.5s.319-1.835.527-2.955a71.968,71.968,0,0,1,3.1-11.893c.143-.379.3-.813.357-.962a6.075,6.075,0,0,1,.231-.577c.154-.346.137-.379.28.494.242,1.505.242,1.549.027,9.146a36.691,36.691,0,0,0,.967,11.1c.9,3.422,1.846,7.223,2.445,9.778.214.906.181.774.379,1.511.192.7.275.934.33.934a.885.885,0,0,0,.17-.291c.071-.154.22-.489.34-.741s.209-.467.209-.478a4.537,4.537,0,0,1,.593-1.054,1.128,1.128,0,0,1,1-.313,3.127,3.127,0,0,1,1.071.181,8.676,8.676,0,0,0,1.654.373,3.056,3.056,0,0,0-.033-.593,61.155,61.155,0,0,1-.258-6.5c-.027-3.834.027-5.867.258-9.531.22-3.433.533-6.933.934-10.465.319-2.785.818-6.592,1.208-9.174.088-.6.225-1.522.3-2.033.192-1.291.7-4.373.967-5.823.121-.665.242-1.335.269-1.483.115-.67.456-2.478.714-3.757.148-.763.275-1.428.275-1.478a2.572,2.572,0,0,0-.335-.549c-.181-.258-.346-.5-.362-.538-.027-.077-.247-.17-1.747-.747a22.637,22.637,0,0,0-4.285-1.417,7.991,7.991,0,0,0-2.087-.11" transform="translate(-7.547 -7.536)" fill="#2b5daa"/>
        <path id="Path_721" data-name="Path 721" d="M43.493,66.9c-.161,0-.218-.126-.468-1.039l-.047-.175c-.138-.514-.138-.514-.3-1.19l-.036-.15c-.591-2.525-1.551-6.362-2.444-9.775A37.011,37.011,0,0,1,39.23,43.43c.215-7.621.215-7.621-.025-9.12l-.021-.126c-.013-.081-.025-.156-.037-.224-.068.156-.14.34-.177.454l-.041.112c-.073.2-.2.545-.318.855a72.276,72.276,0,0,0-3.1,11.869c-.208,1.119-.489,2.691-.526,2.95-.043.333-.108.364-.618.609a7.734,7.734,0,0,1-2.2.6,7.947,7.947,0,0,1-.944.044,16.354,16.354,0,0,1-2.311-.154c-.834-.134-2.475-.464-3-.6-.372-.1-.45-.138-.6-.416-.043-.077-.108-.191-.173-.3L25,49.739a32.616,32.616,0,0,1-2.214-5.189c-.745-2.164-1.036-3.175-2.222-7.728-.827-3.16-1.456-5.338-1.98-6.856-.069-.2-.147-.422-.211-.6l-.1-.275c-.117.347-.31.989-.485,1.675s-.494,2.231-.629,3.08c-.029.16-.064.375-.092.542l-.024.146c-.139.8-.408,3.051-.575,4.829-.147,1.582-.36,4.859-.467,7.157-.348,7.3-.566,9.746-1.01,11.4-.124.464-.372.519-1.048.556a2.245,2.245,0,0,1-1.05-.116,6.053,6.053,0,0,1-.969-.436,9.453,9.453,0,0,1-1.795-1.428,46.665,46.665,0,0,1,.147-6.368c.186-2.674.661-6.6,1.375-11.355l.077-.507c.037-.248.072-.472.088-.59s.048-.324.083-.56l.081-.54c.524-3.472.966-6.638,1.153-8.263.055-.477.111-.935.128-1.072l0-.035c.054-.31.307-2.975.361-3.8.146-2.093.171-2.631.2-4.431l.008-.542c.02-1.513.021-1.573.709-1.966.066-.038.139-.08.22-.128a8.314,8.314,0,0,1,3.05-1.074,14.378,14.378,0,0,1,1.766-.1,20.729,20.729,0,0,1,6.3.947,5.283,5.283,0,0,1,1.419.713c.121.143.121.143.647,4.54.569,4.74,1.112,8.586,1.454,10.289.034.153.135.677.22,1.128.17.859.228,1.123.477,2.22.164.712.683,2.691.849,3.26.281.94.716,2.209.879,2.608.073-.057.179-.145.311-.263.226-.2.5-.437.6-.525a2.069,2.069,0,0,0,.206-.187c.019-.043.191-.542.47-1.391.659-2.049,1.512-4.559,2.073-6.1.121-.335.51-1.422.862-2.416.245-.7.556-1.569.8-2.266l.279-.783a111.892,111.892,0,0,0,4.384-14.868c.214-1.032.291-1.17.362-1.236a4.766,4.766,0,0,1,2.146-.745,8.386,8.386,0,0,1,2.132.112,22.956,22.956,0,0,1,4.308,1.424c1.736.668,1.781.694,1.83.833.009.015.113.175.345.5a2.133,2.133,0,0,1,.361.631c0,.027,0,.079-.277,1.5-.253,1.252-.6,3.077-.713,3.754l-.27,1.485c-.257,1.416-.772,4.515-.966,5.818-.077.511-.214,1.428-.3,2.032-.385,2.549-.882,6.319-1.208,9.169-.4,3.531-.715,7.05-.934,10.458-.23,3.652-.285,5.7-.258,9.52a60.855,60.855,0,0,0,.257,6.491c.067.633.041.66-.007.709a.173.173,0,0,1-.131.047,10.664,10.664,0,0,1-1.667-.386,2.993,2.993,0,0,0-1.03-.174h-.087a.932.932,0,0,0-.817.278,5.124,5.124,0,0,0-.546.962,2.444,2.444,0,0,1-.221.524c-.08.167-.172.37-.245.532l-.1.208c-.167.374-.235.374-.3.374m-4.3-33.472c.16,0,.173.081.277.715l.021.126c.242,1.511.243,1.6.029,9.174a36.754,36.754,0,0,0,.962,11.056c.893,3.415,1.854,7.255,2.446,9.781l.035.15c.159.673.159.673.3,1.182l.047.174c.037.137.129.474.2.686l.03-.065.095-.208c.074-.164.167-.368.247-.537.107-.229.187-.419.2-.453a4.582,4.582,0,0,1,.638-1.126,1.2,1.2,0,0,1,1-.348h.09a3.267,3.267,0,0,1,1.112.187,13.167,13.167,0,0,0,1.472.36c0-.094-.016-.239-.036-.428a61.044,61.044,0,0,1-.259-6.518c-.028-3.83.028-5.881.258-9.541.219-3.412.533-6.936.935-10.472.326-2.854.823-6.628,1.209-9.179.088-.6.225-1.521.3-2.033.194-1.3.71-4.409.968-5.827l.269-1.483c.117-.677.462-2.506.715-3.76.21-1.077.259-1.363.27-1.436a3.771,3.771,0,0,0-.305-.478c-.215-.306-.34-.492-.373-.554a17.545,17.545,0,0,0-1.673-.682,22.44,22.44,0,0,0-4.263-1.411,8.323,8.323,0,0,0-1.5-.135,4.809,4.809,0,0,0-2.524.7,5.357,5.357,0,0,0-.276,1.083,112.158,112.158,0,0,1-4.395,14.906l-.278.783c-.248.7-.559,1.57-.8,2.265-.352.995-.742,2.083-.863,2.418-.56,1.54-1.411,4.045-2.069,6.093a11.291,11.291,0,0,1-.513,1.473,1.433,1.433,0,0,1-.251.234c-.1.087-.371.317-.6.519-.443.4-.514.4-.557.4-.059,0-.237,0-1.1-2.876-.168-.573-.689-2.562-.854-3.278-.249-1.1-.307-1.365-.479-2.229-.088-.466-.186-.975-.219-1.123C28.787,30,28.243,26.142,27.673,21.4A43.212,43.212,0,0,0,27.1,17.01a5.6,5.6,0,0,0-1.3-.633,20.43,20.43,0,0,0-6.2-.93,14.042,14.042,0,0,0-1.73.1,8.02,8.02,0,0,0-2.939,1.036c-.083.049-.157.092-.225.131-.547.313-.547.313-.566,1.722l-.008.543c-.032,1.807-.057,2.347-.2,4.446-.056.857-.308,3.508-.364,3.832-.019.157-.075.615-.13,1.091-.188,1.628-.63,4.8-1.154,8.272l-.081.541c-.036.234-.067.443-.083.556s-.051.344-.089.594l-.076.506c-.712,4.747-1.186,8.665-1.372,11.333a54.346,54.346,0,0,0-.178,6.22,10.446,10.446,0,0,0,1.683,1.309,5.678,5.678,0,0,0,.913.411,2.023,2.023,0,0,0,.947.1c.707-.039.722-.1.788-.345.438-1.632.653-4.07,1-11.341.107-2.3.321-5.584.468-7.17.168-1.784.439-4.051.578-4.851l.023-.144c.028-.169.063-.386.092-.544.127-.8.441-2.337.633-3.1.536-2.1.662-2.1.754-2.1s.155.053.272.38l.1.292c.064.182.143.405.212.605.526,1.525,1.157,3.71,1.986,6.877,1.184,4.543,1.474,5.552,2.216,7.708A32.286,32.286,0,0,0,25.253,49.6l.139.243c.066.114.131.229.175.308.106.194.106.194.423.278.518.129,2.145.457,2.975.591a16.012,16.012,0,0,0,2.265.15,7.66,7.66,0,0,0,.907-.041,7.426,7.426,0,0,0,2.11-.575c.436-.208.436-.208.458-.389.038-.264.32-1.841.528-2.963A72.6,72.6,0,0,1,38.344,35.28c.117-.31.244-.656.317-.853l.04-.107a6.143,6.143,0,0,1,.235-.588l.023-.052c.071-.161.113-.258.231-.258" transform="translate(-7.192 -7.183)" fill="#0067b1"/>
        <path id="Path_722" data-name="Path 722" d="M43.1,66.658c-.3,0-.378-.268-.621-1.156l-.047-.175c-.138-.516-.138-.516-.3-1.2l-.035-.15c-.591-2.524-1.55-6.359-2.443-9.771a37.143,37.143,0,0,1-.977-11.181c.2-7.194.214-7.584.013-8.861l-.006.017c-.073.2-.2.545-.318.855a72.151,72.151,0,0,0-3.089,11.842c-.208,1.118-.488,2.686-.525,2.943-.053.416-.178.477-.707.729a7.906,7.906,0,0,1-2.245.615,8.477,8.477,0,0,1-.963.045,16.5,16.5,0,0,1-2.337-.156c-.837-.135-2.485-.466-3.013-.6-.41-.109-.524-.167-.7-.494-.042-.075-.107-.189-.172-.3l-.138-.243a32.742,32.742,0,0,1-2.226-5.216c-.746-2.168-1.038-3.181-2.226-7.739-.825-3.156-1.453-5.331-1.976-6.844-.048-.139-.1-.289-.149-.429-.1.341-.226.773-.339,1.213-.169.673-.492,2.22-.626,3.065-.03.163-.065.377-.092.543l-.024.146c-.139.793-.406,3.044-.574,4.818-.146,1.58-.36,4.854-.466,7.149-.349,7.309-.567,9.767-1.015,11.435-.157.589-.536.638-1.193.674a2.4,2.4,0,0,1-1.106-.123,6.154,6.154,0,0,1-1-.45A9.365,9.365,0,0,1,9.6,56.174a45.884,45.884,0,0,1,.129-6.455c.186-2.678.662-6.609,1.376-11.368l.077-.507c.038-.247.071-.471.088-.588s.048-.325.084-.562l.081-.54c.524-3.47.965-6.634,1.152-8.258.055-.476.111-.932.128-1.072l0-.029c.056-.323.307-2.976.361-3.8.146-2.09.171-2.627.2-4.424l.008-.541c.02-1.506.022-1.663.789-2.1.065-.037.138-.079.218-.126a8.359,8.359,0,0,1,3.112-1.1,14.5,14.5,0,0,1,1.784-.1,20.915,20.915,0,0,1,6.352.956,5.471,5.471,0,0,1,1.481.755c.156.185.156.185.688,4.63.56,4.665,1.116,8.6,1.452,10.276.034.151.135.678.22,1.13.17.855.228,1.119.476,2.214.164.709.681,2.683.847,3.251.256.854.607,1.884.8,2.39.041-.035.087-.075.135-.119.228-.206.5-.44.607-.528.09-.076.142-.124.168-.149.051-.134.215-.613.459-1.357.659-2.051,1.513-4.562,2.074-6.106.121-.334.51-1.421.862-2.415.244-.695.555-1.567.8-2.264l.279-.785a111.73,111.73,0,0,0,4.378-14.846c.226-1.088.306-1.225.41-1.321a5,5,0,0,1,2.235-.786,8.56,8.56,0,0,1,2.182.114,23.071,23.071,0,0,1,4.333,1.431c1.708.657,1.837.707,1.914.9.029.047.134.2.334.49.39.538.39.663.39.723,0,.044,0,.094-.28,1.535-.253,1.252-.6,3.075-.713,3.751l-.27,1.486c-.257,1.415-.771,4.511-.965,5.813-.077.511-.214,1.428-.3,2.032-.385,2.547-.881,6.315-1.207,9.164-.4,3.529-.715,7.044-.933,10.45-.23,3.647-.285,5.691-.257,9.509a60.644,60.644,0,0,0,.256,6.475c.072.679.049.734-.053.836a.321.321,0,0,1-.244.095,10.366,10.366,0,0,1-1.715-.393,2.844,2.844,0,0,0-.984-.167h-.085a.779.779,0,0,0-.712.239,5.681,5.681,0,0,0-.494.871,3.1,3.1,0,0,1-.234.562c-.08.168-.171.369-.244.53l-.1.21c-.141.315-.244.466-.444.466m-4.3-33.79c.3,0,.33.214.434.848l.02.126c.245,1.526.246,1.612.031,9.2a36.6,36.6,0,0,0,.957,11.012c.894,3.416,1.854,7.257,2.446,9.785l.035.149c.158.67.158.67.294,1.178l.047.174c.028.1.054.2.078.279.064-.141.135-.3.2-.43.107-.23.183-.41.194-.439h0a4.429,4.429,0,0,1,.683-1.192,1.35,1.35,0,0,1,1.109-.387h.092a3.4,3.4,0,0,1,1.158.194c.386.122.92.252,1.252.319-.005-.063-.012-.135-.021-.218a61.329,61.329,0,0,1-.26-6.534c-.027-3.835.028-5.888.259-9.552.219-3.416.533-6.941.936-10.48.327-2.856.824-6.633,1.21-9.185.088-.6.225-1.521.3-2.033.195-1.306.711-4.413.968-5.832l.269-1.484c.117-.677.462-2.508.715-3.762.179-.92.24-1.256.26-1.379a4.421,4.421,0,0,0-.269-.412c-.229-.326-.322-.466-.362-.534-.149-.083-.743-.313-1.611-.647a22.331,22.331,0,0,0-4.239-1.4,8.132,8.132,0,0,0-1.469-.131,4.446,4.446,0,0,0-.519.026,4.781,4.781,0,0,0-1.873.61,6.971,6.971,0,0,0-.252,1.02,112.293,112.293,0,0,1-4.4,14.927l-.28.785c-.248.7-.558,1.568-.8,2.262-.352,1-.742,2.084-.863,2.419-.559,1.539-1.409,4.042-2.067,6.087a8.457,8.457,0,0,1-.54,1.524,1.454,1.454,0,0,1-.272.257c-.1.087-.369.314-.591.515-.489.44-.57.44-.663.44-.207,0-.356,0-1.251-2.989-.172-.59-.687-2.553-.857-3.287-.25-1.1-.308-1.368-.48-2.234-.088-.466-.186-.972-.218-1.119-.345-1.72-.891-5.579-1.461-10.329-.371-3.1-.492-4.116-.549-4.306a6.234,6.234,0,0,0-1.226-.582,20.259,20.259,0,0,0-6.147-.92,13.947,13.947,0,0,0-1.711.1,7.85,7.85,0,0,0-2.877,1.014c-.084.05-.159.093-.228.132-.468.268-.468.268-.486,1.587l-.008.543c-.032,1.811-.057,2.352-.2,4.454-.056.859-.31,3.521-.366,3.848V26.9c-.017.139-.073.594-.128,1.068-.188,1.63-.631,4.8-1.155,8.278l-.081.541c-.035.234-.067.442-.083.555s-.051.345-.089.6l-.076.505c-.711,4.743-1.185,8.657-1.371,11.32a60.274,60.274,0,0,0-.189,6.14,11.148,11.148,0,0,0,1.614,1.24,5.573,5.573,0,0,0,.883.4,1.644,1.644,0,0,0,.576.107c.086,0,.186,0,.312-.012.591-.032.6-.051.643-.227.43-1.6.653-4.137,1-11.308.107-2.3.321-5.588.468-7.177.169-1.788.44-4.06.58-4.863l.023-.142c.027-.169.063-.388.093-.548.127-.8.442-2.343.636-3.112.567-2.217.681-2.217.908-2.217.248,0,.336.247.421.486l.1.293c.064.182.143.405.212.606.528,1.528,1.16,3.717,1.989,6.888,1.183,4.538,1.473,5.545,2.213,7.7A32.148,32.148,0,0,0,25,49.121l.139.243.176.31c.074.136.074.136.325.2.513.128,2.133.454,2.959.587a15.835,15.835,0,0,0,2.24.148,7.593,7.593,0,0,0,.887-.04,7.272,7.272,0,0,0,2.061-.561,3.867,3.867,0,0,0,.359-.183c0-.023.007-.05.011-.083.039-.274.316-1.826.53-2.972A72.717,72.717,0,0,1,37.8,34.828c.116-.308.243-.654.316-.851l.04-.108a6.391,6.391,0,0,1,.24-.6l.022-.049c.073-.165.155-.353.376-.353" transform="translate(-6.797 -6.787)" fill="#fff"/>
      </g>
    </g>
  </g>
</svg>
