<svg xmlns="http://www.w3.org/2000/svg" xmlns:xlink="http://www.w3.org/1999/xlink" width="169" height="80" viewBox="0 0 169 80">
  <defs>
    <clipPath id="clip-path">
      <rect id="Rectangle_180" data-name="Rectangle 180" width="142.364" height="59.056" fill="none"/>
    </clipPath>
    <clipPath id="clip-radio1-dark">
      <rect width="169" height="80"/>
    </clipPath>
  </defs>
  <g id="radio1-dark" clip-path="url(#clip-radio1-dark)">
    <g id="Group_377" data-name="Group 377" transform="translate(13.5 10.5)">
      <g id="Group_378" data-name="Group 378" clip-path="url(#clip-path)">
        <path id="Path_687" data-name="Path 687" d="M140.05,9H15.011A5.928,5.928,0,0,0,9,14.869v34.34a5.928,5.928,0,0,0,6.011,5.869H29.7v5a2.486,2.486,0,0,0,2.314,2.674h92.276a2.486,2.486,0,0,0,2.313-2.674v-5h13.45a5.928,5.928,0,0,0,6.01-5.869V14.869A5.928,5.928,0,0,0,140.05,9" transform="translate(-6.348 -6.348)" fill="#ffcd00"/>
        <path id="Path_688" data-name="Path 688" d="M117.938,59.056H25.663A5.1,5.1,0,0,1,20.7,53.73V51.382H8.663A8.6,8.6,0,0,1,0,42.861V8.521A8.6,8.6,0,0,1,8.663,0H133.7a8.6,8.6,0,0,1,8.662,8.521v34.34a8.6,8.6,0,0,1-8.662,8.521H122.9V53.73a5.1,5.1,0,0,1-4.965,5.326M26,53.753h91.6c0-.007,0-.015,0-.022V46.078h16.1a3.294,3.294,0,0,0,3.358-3.217V8.521A3.294,3.294,0,0,0,133.7,5.3H8.663A3.294,3.294,0,0,0,5.3,8.521v34.34a3.294,3.294,0,0,0,3.359,3.217H26V53.73c0,.008,0,.015,0,.022" fill="#fff"/>
        <path id="Path_689" data-name="Path 689" d="M15.011,9H140.05a5.928,5.928,0,0,1,6.01,5.869v34.34a5.928,5.928,0,0,1-6.01,5.869H15.011A5.928,5.928,0,0,1,9,49.209V14.869A5.928,5.928,0,0,1,15.011,9" transform="translate(-6.348 -6.348)" fill="#283c84" fill-rule="evenodd"/>
        <path id="Path_690" data-name="Path 690" d="M24.339,19.982H147.008a3.7,3.7,0,0,1,3.8,3.6V55.992a3.7,3.7,0,0,1-3.8,3.6H24.339a3.7,3.7,0,0,1-3.8-3.6V23.581a3.7,3.7,0,0,1,3.8-3.6" transform="translate(-14.486 -14.094)" fill="#283c84" fill-rule="evenodd"/>
        <path id="Path_691" data-name="Path 691" d="M144.418,58.083H21.748A4.791,4.791,0,0,1,16.865,53.4V20.99a4.791,4.791,0,0,1,4.883-4.681H144.418A4.791,4.791,0,0,1,149.3,20.99V53.4a4.791,4.791,0,0,1-4.884,4.681M21.748,18.474a2.627,2.627,0,0,0-2.719,2.516V53.4a2.627,2.627,0,0,0,2.719,2.517H144.418a2.627,2.627,0,0,0,2.719-2.517V20.99a2.627,2.627,0,0,0-2.719-2.516Z" transform="translate(-11.896 -11.503)" fill="#f8c923"/>
        <path id="Path_692" data-name="Path 692" d="M83.7,150.723h92.276a1.626,1.626,0,0,1,1.418,1.779v7.54a1.626,1.626,0,0,1-1.418,1.779H83.7a1.626,1.626,0,0,1-1.419-1.779V152.5a1.626,1.626,0,0,1,1.419-1.779" transform="translate(-58.035 -106.312)" fill="#f8c923" fill-rule="evenodd"/>
        <path id="Path_693" data-name="Path 693" d="M173.831,160.574H81.555a2.487,2.487,0,0,1-2.314-2.674v-7.54a2.487,2.487,0,0,1,2.314-2.674h92.276a2.486,2.486,0,0,1,2.313,2.674v7.54a2.486,2.486,0,0,1-2.313,2.674m-92.276-11.1c-.247,0-.524.378-.524.884v7.54c0,.506.277.885.524.885h92.276c.247,0,.524-.378.524-.885v-7.54c0-.506-.277-.884-.524-.884Z" transform="translate(-55.892 -104.17)" fill="#283c84"/>
        <path id="Path_694" data-name="Path 694" d="M305.623,158.229c-.2.017-.365.059-.365.11s-.068.077-.152.077c-.187,0-.611.186-.611.271,0,.042-.051.067-.1.067a1.445,1.445,0,0,0-.662.585.784.784,0,0,1-.212.331.783.783,0,0,0-.212.331c0,.06-.034.11-.085.11s-.085.17-.085.374-.043.39-.094.407a5.22,5.22,0,0,0,.187,2.561.418.418,0,0,1,.076.237c0,.085.043.153.085.153s.085.051.085.119a2.209,2.209,0,0,0,.492.619,2.852,2.852,0,0,0,2.612.9,3.1,3.1,0,0,0,.8-.093.52.52,0,0,1,.288-.085.686.686,0,0,0,.365-.153.406.406,0,0,1,.187-.118,3.738,3.738,0,0,0,1.1-1.23c.11-.238.246-.5.288-.594a5.94,5.94,0,0,0,.127-1.2,3,3,0,0,0-.186-1.619,3.305,3.305,0,0,0-.39-.772.622.622,0,0,1-.17-.263c0-.068-.212-.263-.678-.628a4.28,4.28,0,0,0-2.689-.5m1.162,1.458c0,.043.077.085.17.085s.17.034.17.085.051.085.119.085c.2,0,.6.56.763,1.06a2.707,2.707,0,0,1,.094,1.119,1.8,1.8,0,0,1-.127.687.163.163,0,0,0-.085.161,1.371,1.371,0,0,1-.229.457,1.61,1.61,0,0,1-2.815-.449c-.059-.2-.136-.441-.17-.534a2.666,2.666,0,0,1-.025-1.213,3.464,3.464,0,0,0,.136-.449,1.386,1.386,0,0,1,.263-.467.962.962,0,0,0,.212-.314c0-.034.059-.059.127-.059s.127-.034.127-.068c0-.093.56-.246.958-.263.17,0,.314.025.314.076" transform="translate(-213.683 -111.592)" fill="#283c84"/>
        <path id="Path_695" data-name="Path 695" d="M197.57,158.479c-.347.2-.441.314-.67.882-.127.314-.263.636-.306.712a.776.776,0,0,0-.076.28.777.777,0,0,1-.077.28,4.977,4.977,0,0,0-.22.525,4.937,4.937,0,0,1-.22.526.951.951,0,0,0-.076.356c0,.111-.034.22-.076.238s-.093.118-.11.237a.66.66,0,0,1-.127.322.518.518,0,0,0-.11.314c0,.11-.034.228-.085.254a.357.357,0,0,0-.085.254.338.338,0,0,1-.076.246,1.3,1.3,0,0,0-.2.458c-.237.712-.034,1.162.56,1.264.263.042.339.008.551-.2a2.059,2.059,0,0,0,.407-.729l.153-.484.466-.009c.263,0,.8-.017,1.2-.034.822-.025,1.06.1,1.153.611.025.153.085.28.127.28s.076.051.076.119c0,.2.348.39.679.39a.964.964,0,0,0,.492-.136c.28-.2.254-.823-.068-1.6-.034-.093-.11-.3-.17-.466s-.153-.415-.212-.551-.153-.39-.212-.551a1.756,1.756,0,0,0-.187-.382.515.515,0,0,1-.068-.263c0-.11-.034-.22-.085-.246a.3.3,0,0,1-.085-.22,2,2,0,0,0-.153-.526,6.8,6.8,0,0,1-.416-1.145c-.025-.1-.076-.187-.118-.187s-.077-.068-.077-.153c0-.17-.3-.517-.568-.678a1.133,1.133,0,0,0-.925.017m.925,3.146a4.916,4.916,0,0,1,.28,1.051,3.822,3.822,0,0,1-1.349.034c-.127-.034-.153-.093-.1-.331a1.852,1.852,0,0,1,.212-.568,2.388,2.388,0,0,0,.221-.611c.059-.365.169-.552.322-.552a3.473,3.473,0,0,1,.416.976" transform="translate(-137.51 -111.706)" fill="#283c84"/>
        <path id="Path_696" data-name="Path 696" d="M236.484,158.82c-.534.144-.534.136-.534,3.384,0,3.851-.11,3.63,1.807,3.639a3.9,3.9,0,0,0,2.518-.492,3.1,3.1,0,0,0,1.188-1.255,3.376,3.376,0,0,0,.365-1.951,2.721,2.721,0,0,0-.288-1.526c-.263-.568-1.035-1.433-1.2-1.34a.04.04,0,0,1-.068-.034,1.249,1.249,0,0,0-.509-.271,4.508,4.508,0,0,0-1.756-.212,10.149,10.149,0,0,0-1.527.059m2.629,1.544c.721.263,1.018.788,1.026,1.832s-.229,1.586-.814,1.908a1.67,1.67,0,0,1-1.069.229,4.164,4.164,0,0,1-.678-.051c-.034-.034-.034-.814-.017-3.469v-.568h.619a4.156,4.156,0,0,1,.933.119" transform="translate(-166.426 -111.98)" fill="#283c84"/>
        <path id="Path_697" data-name="Path 697" d="M277.087,158.863l-.263.246v3.045c0,3.019,0,3.036.2,3.273a.6.6,0,0,0,.577.255c.424.017.568-.076.738-.5a46.655,46.655,0,0,0-.059-6.157.707.707,0,0,0-1.187-.161" transform="translate(-195.257 -111.879)" fill="#283c84"/>
        <path id="Path_698" data-name="Path 698" d="M159.174,159.11a.722.722,0,0,0-.7.636c-.009.093-.009,1.492-.009,3.121l.017,2.942.28.17a.792.792,0,0,0,.857.068c.28-.119.39-.509.39-1.366a3.159,3.159,0,0,1,.085-.831c.085-.161.339-.229.339-.093a.582.582,0,0,0,.153.238c.136.152,1.187,1.441,1.459,1.8a.837.837,0,0,0,1.2.161.683.683,0,0,0,.212-.882,7.2,7.2,0,0,0-1.17-1.348,1.715,1.715,0,0,1-.331-.415c0-.1.28-.288.45-.3.076,0,.144-.034.144-.068s.093-.127.212-.187.212-.161.212-.229.034-.11.067-.11c.178,0,.356-.628.356-1.255a1.711,1.711,0,0,0-.255-1.1c-.144-.238-.313-.441-.381-.441s-.127-.042-.127-.085-.06-.085-.128-.085-.127-.034-.127-.077c0-.178-.568-.28-1.671-.3-.645-.008-1.34.009-1.544.034m2.349,1.569a.921.921,0,0,1,.348.407c.076.2.051.3-.127.568a1.07,1.07,0,0,1-.39.382,4.007,4.007,0,0,1-1.23.008,2.074,2.074,0,0,1-.111-1.026c.042-.39.06-.424.3-.466a1.907,1.907,0,0,1,1.213.127" transform="translate(-111.776 -112.202)" fill="#283c84"/>
        <path id="Path_699" data-name="Path 699" d="M385.161,46.87a3.5,3.5,0,0,1-.6.059,5.361,5.361,0,0,0-.88.127,2.609,2.609,0,0,1-.525.085c-.136,0-.237.034-.237.085s-.127.085-.288.085-.3.025-.322.059a3.788,3.788,0,0,1-.762.44,5.562,5.562,0,0,0-1.617,1.109,6.213,6.213,0,0,0-1.27,1.4,3.613,3.613,0,0,1-.415.559.449.449,0,0,0-.152.212,2.477,2.477,0,0,1-.212.491,2.053,2.053,0,0,0-.212.542.853.853,0,0,1-.152.339,11.6,11.6,0,0,0-.711,2.048,6.394,6.394,0,0,0-.2.889c-.034.228-.076.457-.085.508a24.542,24.542,0,0,0-.093,4.191,15.389,15.389,0,0,0,.44,2.328c.127.465.246.931.263,1.041a.477.477,0,0,0,.118.237.335.335,0,0,1,.077.245.355.355,0,0,0,.085.254.269.269,0,0,1,.085.22c0,.085.025.161.068.161a1.859,1.859,0,0,1,.313.551,1.777,1.777,0,0,0,.322.55c.034,0,.059.042.059.093a8.717,8.717,0,0,0,1.964,2.328,6.376,6.376,0,0,0,1.337.88.08.08,0,0,1,.085.085c0,.042.076.085.161.085a.268.268,0,0,1,.22.085.3.3,0,0,0,.22.085c.085,0,.161.034.161.077s.1.093.237.118.457.1.737.169a10.764,10.764,0,0,0,3.343.2c0-.034.17-.059.381-.059s.381-.043.381-.085.17-.085.373-.085a.675.675,0,0,0,.406-.085c.017-.051.144-.11.279-.136s.271-.076.28-.127a.149.149,0,0,1,.135-.077,3.982,3.982,0,0,0,1.152-.635.354.354,0,0,1,.211-.127.52.52,0,0,0,.255-.169.486.486,0,0,1,.254-.169,2.51,2.51,0,0,0,.584-.44,4.922,4.922,0,0,0,1.025-1.236,2.662,2.662,0,0,1,.28-.33.681.681,0,0,0,.186-.322c0-.067.025-.126.068-.126a2.083,2.083,0,0,0,.313-.55,2.362,2.362,0,0,1,.3-.551,1,1,0,0,0,.169-.431,1.74,1.74,0,0,1,.187-.466.356.356,0,0,0,.068-.237.491.491,0,0,1,.076-.271,4.436,4.436,0,0,0,.322-1.219.673.673,0,0,1,.118-.339,2.807,2.807,0,0,0,.11-.762,3.3,3.3,0,0,1,.169-1.117,20.256,20.256,0,0,0-.2-3.835,2.927,2.927,0,0,1-.118-.635c-.085-.889-.152-1.27-.229-1.27-.042,0-.076-.11-.076-.246a.494.494,0,0,0-.068-.3,1.752,1.752,0,0,1-.187-.466c-.059-.237-.144-.432-.186-.432s-.068-.06-.068-.127a1.99,1.99,0,0,0-.356-.787.145.145,0,0,1-.067-.136.652.652,0,0,0-.212-.3c-.119-.11-.195-.22-.169-.237a1.5,1.5,0,0,0-.39-.694,1.645,1.645,0,0,1-.322-.423,1.551,1.551,0,0,0-.474-.525c-.118-.051-.212-.127-.212-.161a1.782,1.782,0,0,0-.567-.584.778.778,0,0,1-.28-.195,4.565,4.565,0,0,0-1.431-.787c-.042.025-.212-.051-.389-.161a1,1,0,0,0-.407-.195.631.631,0,0,1-.27-.068,8.035,8.035,0,0,0-2.185-.3,5.052,5.052,0,0,0-.778,0m1.693,5.046A4.745,4.745,0,0,1,389.1,54.8a9.963,9.963,0,0,1,.39,1.693,26.794,26.794,0,0,1,.009,3.683,4.448,4.448,0,0,1-.212.974.831.831,0,0,0-.085.3,5.125,5.125,0,0,1-.347,1.075c-.042.085-.161.338-.271.567a3.967,3.967,0,0,1-1.007,1.236.789.789,0,0,0-.288.212.69.69,0,0,1-.347.212c-.067,0-.127.034-.127.076a3.427,3.427,0,0,1-1.761.195c-.127-.042-.39-.127-.584-.186s-.364-.144-.364-.187-.059-.068-.135-.068a.406.406,0,0,1-.237-.11c-.059-.051-.228-.2-.372-.33a2.174,2.174,0,0,1-.406-.5,2.1,2.1,0,0,0-.3-.449.967.967,0,0,1-.212-.415c-.025-.127-.076-.228-.118-.228s-.076-.136-.076-.3-.034-.3-.077-.3-.093-.085-.118-.187c-.11-.508-.33-1.566-.364-1.718a15.149,15.149,0,0,1-.051-2.9c.051-.271.119-.686.135-.914a3.357,3.357,0,0,1,.313-1.312c.042,0,.077-.076.077-.169a.86.86,0,0,1,.076-.322c.043-.076.144-.288.212-.457a1.264,1.264,0,0,1,.22-.364.212.212,0,0,0,.085-.178c0-.135.068-.228.491-.669a1.262,1.262,0,0,0,.271-.39c0-.059.026-.076.06-.051s.1-.009.161-.093c.093-.144.5-.3,1.3-.508a3.092,3.092,0,0,1,1.82.186" transform="translate(-265.479 -33.051)" fill="#f8c923"/>
        <path id="Path_700" data-name="Path 700" d="M276.1,47.368a.844.844,0,0,0-.373.11.846.846,0,0,1-.406.076c-.178,0-.322.034-.322.085s-.093.085-.212.085a6.549,6.549,0,0,0-1.777.88.449.449,0,0,1-.212.136,5.209,5.209,0,0,0-1.1,1.1,1.045,1.045,0,0,1-.3.347.921.921,0,0,0-.3.381c0,.068-.034.118-.085.118s-.084.076-.084.161-.034.178-.077.195a3.96,3.96,0,0,0-.516,1.109.358.358,0,0,1-.068.187,6.576,6.576,0,0,0-.313,1.609,2.608,2.608,0,0,0,1.608,2.717c.4.136,1.312.153,1.312.026,0-.059.025-.085.05-.051.187.186,1.3-.711,1.3-1.05a.254.254,0,0,1,.085-.2,1.581,1.581,0,0,0,.22-.508,1.383,1.383,0,0,1,.2-.466c.026,0,.059-.1.068-.237s.06-.246.1-.254.085-.118.085-.228a.456.456,0,0,1,.127-.3.37.37,0,0,0,.127-.229c0-.152.55-.7.855-.863a1.267,1.267,0,0,1,.449-.118c.118-.009.22-.042.22-.068a2.859,2.859,0,0,1,.973.042,1.526,1.526,0,0,1,.965.61,2.634,2.634,0,0,1,.33,1.558c-.042.161-.092.389-.11.508a3.32,3.32,0,0,1-.33.847,12.127,12.127,0,0,1-.949,1.566c-.33.508-.905,1.3-1.27,1.736s-.694.838-.728.889-.169.2-.3.347-.313.364-.4.466c-.533.643-2.243,2.489-2.777,3a22.534,22.534,0,0,0-1.913,2.2c-.051.077-.136.246-.449.914a2.663,2.663,0,0,0,.085,1.786,1.753,1.753,0,0,0,1.194.982c.1,0,.16.034.135.077-.11.178.8.211,5.96.2,6.07,0,6.324-.017,6.663-.314.051-.051.212-.186.356-.3a2.008,2.008,0,0,0,.635-1.11,2.4,2.4,0,0,0-.669-2.412c-.576-.559-.9-.6-4-.575-2.235.017-2.65.008-2.65-.093a.523.523,0,0,1,.211-.288.728.728,0,0,0,.212-.22.625.625,0,0,1,.153-.212c.076-.093.339-.381.568-.644s.508-.558.618-.677a1.233,1.233,0,0,0,.186-.237c0-.017.271-.313.593-.643a6.54,6.54,0,0,0,.593-.652,1.685,1.685,0,0,1,.279-.322,3.063,3.063,0,0,0,.652-.8c0-.042.06-.093.128-.127a.2.2,0,0,0,.126-.178c0-.067.043-.127.085-.127a.085.085,0,0,0,.085-.085.676.676,0,0,1,.194-.3,2.257,2.257,0,0,0,.474-.661c.067-.127.152-.228.195-.228s.068-.042.068-.093a1.078,1.078,0,0,1,.212-.364,1,1,0,0,0,.211-.415c0-.085.042-.144.085-.144s.084-.076.084-.161a.46.46,0,0,1,.11-.279.6.6,0,0,0,.127-.279c.017-.093.067-.187.11-.195s.076-.144.076-.279.042-.246.084-.246.085-.085.085-.194a3.114,3.114,0,0,1,.127-.61,8.606,8.606,0,0,0,.051-2.751,2.153,2.153,0,0,1-.093-.525c0-.136-.034-.237-.076-.237s-.093-.119-.127-.271a5.088,5.088,0,0,0-.737-1.507,2.108,2.108,0,0,0-.889-.864c-.11-.051-.2-.144-.2-.212s-.025-.11-.06-.11a1.7,1.7,0,0,1-.389-.288,5.7,5.7,0,0,0-2.328-1.1,1.778,1.778,0,0,1-.576-.11,13.716,13.716,0,0,0-2.743-.042" transform="translate(-190.238 -33.379)" fill="#f8c923"/>
        <path id="Path_701" data-name="Path 701" d="M56.493,48.093c-.533.22-.736.381-.736.584,0,.085-.051.11-.127.085s-.127,0-.127.085-.034.135-.085.135-.186.161-.313.356a2.8,2.8,0,0,1-.288.406,8.626,8.626,0,0,0-.669,1.482c0,.068-.034.127-.085.127s-.085.068-.085.144a3.43,3.43,0,0,1-.33.957.287.287,0,0,0-.068.169c-.008.068-.118.39-.237.72-.212.542-.626,1.659-.9,2.413-.06.161-.169.449-.246.635s-.22.559-.3.821-.178.491-.22.491-.068.11-.068.237a.564.564,0,0,1-.076.313.691.691,0,0,0-.127.3,3.091,3.091,0,0,1-.178.55,12.883,12.883,0,0,0-.6,1.651.689.689,0,0,1-.127.3.442.442,0,0,0-.076.263c0,.1-.025.2-.059.22a1.728,1.728,0,0,0-.254.55c-.11.3-.279.771-.381,1.058a4.606,4.606,0,0,1-.237.575.442.442,0,0,0-.068.212.64.64,0,0,1-.1.254,3.75,3.75,0,0,0-.212.592,4.18,4.18,0,0,1-.212.593,3.272,3.272,0,0,0-.2.568,2,2,0,0,1-.228.542.5.5,0,0,0-.076.321.63.63,0,0,1-.1.372,5.116,5.116,0,0,0,.034,2.261c.178.33.449.635.55.635a.781.781,0,0,1,.3.187c.212.2.288.22,1.126.3.533.042,1.4-.11,1.4-.254,0-.051.025-.06.059-.026.068.068.7-.542.7-.677a.145.145,0,0,1,.068-.136,2.9,2.9,0,0,0,.525-1.1.624.624,0,0,1,.068-.288,2.6,2.6,0,0,0,.229-.584,3.822,3.822,0,0,1,.229-.584.638.638,0,0,0,.067-.3c0-.474-.169-.449,4.233-.466,4.013-.009,4.089-.009,4.148.161a2.98,2.98,0,0,1,.288,1.067c-.026.042-.009.076.034.076a1.446,1.446,0,0,1,.22.525c.339,1.177,1.041,2.269,1.448,2.269.068,0,.127.034.127.085s.11.085.245.085a.439.439,0,0,1,.313.093c.034.067.254.085.618.059a3.231,3.231,0,0,0,1.405-.423,2.655,2.655,0,0,0,.8-1.219,4.287,4.287,0,0,0-.161-1.982,2.5,2.5,0,0,1-.178-.694c0-.135-.034-.237-.068-.237s-.076-.1-.085-.22a.829.829,0,0,0-.085-.322,1.9,1.9,0,0,1-.186-.474,2.125,2.125,0,0,0-.169-.424,3.118,3.118,0,0,1-.2-.55,3.482,3.482,0,0,0-.22-.592,3.165,3.165,0,0,1-.178-.483.843.843,0,0,0-.178-.406c-.034,0-.068-.11-.068-.237a.594.594,0,0,0-.059-.3,3.52,3.52,0,0,1-.313-.8.457.457,0,0,0-.119-.2.4.4,0,0,1-.1-.254,1.367,1.367,0,0,0-.093-.381c-.051-.127-.127-.313-.169-.406s-.11-.322-.169-.508a2.306,2.306,0,0,0-.178-.423.479.479,0,0,1-.068-.254.64.64,0,0,0-.127-.33c-.068-.085-.1-.195-.076-.229s.009-.076-.042-.076-.152-.22-.229-.491a2.692,2.692,0,0,0-.212-.567.439.439,0,0,1-.076-.263c0-.11-.034-.22-.085-.245a.366.366,0,0,1-.085-.263c0-.11-.034-.2-.068-.2a1.462,1.462,0,0,1-.229-.55,1.571,1.571,0,0,0-.237-.55c-.042,0-.051-.034-.026-.068s-.017-.178-.085-.3a1.348,1.348,0,0,1-.118-.4.243.243,0,0,0-.085-.2.365.365,0,0,1-.085-.262c0-.11-.025-.2-.068-.2a1.8,1.8,0,0,1-.271-.8.374.374,0,0,0-.127-.22c-.068-.059-.11-.136-.085-.169s-.008-.118-.067-.186a.83.83,0,0,1-.169-.322c-.025-.118-.068-.3-.093-.423s-.085-.22-.136-.237-.085-.118-.085-.229-.034-.229-.085-.254a.365.365,0,0,1-.085-.262c0-.11-.034-.2-.085-.2s-.085-.051-.085-.118a.481.481,0,0,0-.195-.279,1.776,1.776,0,0,1-.339-.449c-.187-.381-.347-.593-.466-.593-.051,0-.169-.1-.271-.229a.659.659,0,0,0-.33-.237.949.949,0,0,1-.39-.161c-.313-.2-.474-.237-1.4-.271a2.378,2.378,0,0,0-1.3.178m1.583,5.477c.017.059.085.279.144.491s.119.4.127.423a.561.561,0,0,0,.059.169c.169.457.652,2.066.652,2.2,0,.093.042.169.085.169s.085.093.085.212a1.463,1.463,0,0,0,.093.441,15.483,15.483,0,0,1,.584,1.761c.2.652.381,1.3.406,1.439a.871.871,0,0,0,.127.364c.042.059.059.127.034.152s-1.168.051-2.548.068c-2.878.025-2.785.051-2.472-.66a3.6,3.6,0,0,0,.195-.474,7.016,7.016,0,0,1,.279-.974,10.167,10.167,0,0,0,.508-1.642.273.273,0,0,1,.076-.212,1.565,1.565,0,0,0,.212-.491c.076-.245.169-.525.212-.618.093-.237.4-1.117.711-2.091.254-.779.364-.965.432-.728" transform="translate(-33.983 -33.791)" fill="#f8c923"/>
        <path id="Path_702" data-name="Path 702" d="M330.669,48.611c-.017.025-.779.034-1.685.025a13,13,0,0,0-1.862.068c-.11.042-.228.042-.254.009-.06-.11-.974.127-.974.245,0,.042-.068.093-.153.118a1.622,1.622,0,0,0-.609,1c0,.127-.034.237-.076.237s-.093.254-.111.567c-.033.576-.178,1.769-.33,2.819-.042.3-.093.737-.111.974a7.911,7.911,0,0,1-.118.8,26.109,26.109,0,0,0-.3,3.1,2.17,2.17,0,0,0,.271,1.49.339.339,0,0,1,.1.186c0,.11.542.474.7.474a.343.343,0,0,1,.2.093,3.54,3.54,0,0,0,1.888-.186c0-.042.076-.076.169-.076s.169-.026.169-.068a4.078,4.078,0,0,1,1.185-.559c.119-.025.347-.076.516-.118a2.51,2.51,0,0,1,1.871.381,2.657,2.657,0,0,1,1.008,1.422c.263.677.051,3.175-.28,3.175-.034,0-.068.059-.068.127,0,.186-.753.915-1.168,1.126a3.653,3.653,0,0,1-2.116.187,8.736,8.736,0,0,1-1.964-.923,1.478,1.478,0,0,0-.246-.161c-.11-.068-.322-.187-.474-.271a2.015,2.015,0,0,0-.558-.2c-.161-.025-.407-.076-.559-.1-.3-.06-1.126.11-1.126.228,0,.042-.051.076-.1.076a.685.685,0,0,0-.492.5c0,.1-.05.178-.126.178-.432,0-.636,1.718-.3,2.5a5.069,5.069,0,0,0,1.591,1.659c.144.059.271.144.271.178s.051.068.119.068a.377.377,0,0,1,.22.127c.05.068.126.118.152.11a1.06,1.06,0,0,1,.356.118,2.47,2.47,0,0,0,.339.127,1.768,1.768,0,0,1,.313.136,1.135,1.135,0,0,0,.449.144c.092,0,.169.033.169.085s.169.085.372.085.39.034.406.076a.962.962,0,0,0,.449.136,17.386,17.386,0,0,0,3.023.025,1.758,1.758,0,0,1,.491-.093c.186-.009.338-.043.338-.077a1.121,1.121,0,0,1,.424-.11c.237-.034.423-.093.423-.135s.077-.077.169-.077.17-.042.17-.085.076-.085.161-.085a.3.3,0,0,0,.22-.085.267.267,0,0,1,.22-.085c.085,0,.161-.034.161-.085s.093-.1.211-.135.212-.085.212-.118.118-.11.254-.17.255-.135.255-.177a.078.078,0,0,1,.085-.076,2.488,2.488,0,0,0,.787-.787.209.209,0,0,1,.16-.144c.06,0,.2-.144.322-.3a4.508,4.508,0,0,1,.407-.5.766.766,0,0,0,.186-.288,3.9,3.9,0,0,1,.508-.94,3.151,3.151,0,0,0,.2-.55c.085-.279.212-.677.271-.881a10.761,10.761,0,0,0,.076-4.029c-.076-.279-.161-.635-.187-.787A.627.627,0,0,0,337.23,60a.274.274,0,0,1-.076-.212,6.917,6.917,0,0,0-.7-1.473,11.532,11.532,0,0,0-.956-1.092,3.05,3.05,0,0,0-1.321-.9c-.085,0-.153-.034-.153-.076a5.617,5.617,0,0,0-1.71-.533,6.412,6.412,0,0,0-2.075,0,2.08,2.08,0,0,1-.609.093c-.254.009-.5.025-.55.034s-.085-.195-.06-.618c.068-1.456.153-1.947.339-1.956.076,0,1.439-.008,3.022-.008a24.282,24.282,0,0,0,3.369-.11,1.358,1.358,0,0,1,.474-.068c0,.034.068-.034.161-.127s.178-.186.212-.186a1.2,1.2,0,0,0,.474-.508.091.091,0,0,1,.085-.085c.051,0,.085-.068.085-.161a.36.36,0,0,1,.118-.254c.212-.178.169-1.168-.076-1.82-.228-.618-.3-.7-.652-.889-.135-.068-.237-.152-.237-.195s-.093-.067-.2-.067-.22-.042-.237-.093c-.025-.076-.482-.1-1.253-.067-.068,0-1-.009-2.058-.026s-1.955-.009-1.972.009" transform="translate(-227.419 -34.275)" fill="#f8c923"/>
        <path id="Path_703" data-name="Path 703" d="M121.372,48.77a.969.969,0,0,0-.457.11.415.415,0,0,1-.237.076c-.085,0-.152.034-.152.085s-.059.085-.136.085a3.729,3.729,0,0,0-1.092,1.1,8.2,8.2,0,0,0-.491,1.482c-.059.4-.228,1.321-.321,1.735a7.642,7.642,0,0,0-.127.8,3.682,3.682,0,0,1-.118.669,1.938,1.938,0,0,0-.085.559.823.823,0,0,1-.059.373c-.059.059-.068.11-.152.728-.026.212-.085.55-.127.762s-.136.762-.212,1.228-.169,1.007-.22,1.2a3.53,3.53,0,0,0-.076.61,1.461,1.461,0,0,1-.076.449,10.974,10.974,0,0,0-.322,1.676,2.641,2.641,0,0,1-.085.508,1.955,1.955,0,0,0-.085.339c-.11.821-.3,1.955-.372,2.21a3.932,3.932,0,0,0-.076.77,1.262,1.262,0,0,1-.085.542,8.444,8.444,0,0,0-.195,2.227,2.4,2.4,0,0,0,1.591,1.921,2.8,2.8,0,0,0,2.379-.431.577.577,0,0,1,.229-.212c.161,0,.33-.3.77-1.3a2.1,2.1,0,0,0,.136-.694.875.875,0,0,1,.068-.415.809.809,0,0,0,.085-.415c.017-.2.06-.584.11-.829s.11-.694.135-.99a1.223,1.223,0,0,1,.11-.525,1.653,1.653,0,0,0,.11-.618c.034-.33.119-.957.195-1.372s.161-1.067.212-1.439a4.866,4.866,0,0,1,.135-.8,5.03,5.03,0,0,0,.119-.72,10.587,10.587,0,0,1,.33-1.99c.068-.11.076-.11.118,0,.017.067.118.355.212.643a3.073,3.073,0,0,1,.178.677.4.4,0,0,0,.076.245.605.605,0,0,1,.118.3,2.612,2.612,0,0,0,.118.423c.051.118.152.457.237.762s.178.626.212.72a10.485,10.485,0,0,1,.508,1.617.453.453,0,0,0,.076.254,2.1,2.1,0,0,1,.178.5c.059.228.194.686.3,1.016s.237.762.3.974a2.184,2.184,0,0,0,.186.466.473.473,0,0,1,.068.246,2.705,2.705,0,0,0,.161.635c.085.263.2.644.262.855a3.308,3.308,0,0,0,1.854,2.4c.694.2,2.379.06,2.379-.212,0-.034.059-.068.127-.068a1.244,1.244,0,0,0,.635-.575.126.126,0,0,1,.068-.118,3.362,3.362,0,0,0,.525-1.151c0-.1.042-.187.085-.187s.085-.085.085-.187a3.981,3.981,0,0,1,.322-1.084,2.028,2.028,0,0,0,.076-.338c.017-.119.068-.22.118-.237s.076-.118.076-.22a4.042,4.042,0,0,1,.2-.779c.11-.321.263-.812.339-1.092a4.285,4.285,0,0,1,.229-.652.956.956,0,0,0,.076-.356.365.365,0,0,1,.085-.262c.051-.026.085-.161.085-.288a.494.494,0,0,1,.11-.33.537.537,0,0,0,.127-.322.621.621,0,0,1,.1-.321.512.512,0,0,0,.085-.313.408.408,0,0,1,.076-.28.625.625,0,0,0,.118-.322,3.787,3.787,0,0,1,.22-.745,2.96,2.96,0,0,0,.178-.652.3.3,0,0,1,.076-.229.772.772,0,0,0,.136-.356,1.726,1.726,0,0,1,.127-.449,5.178,5.178,0,0,0,.178-.508l.11-.381.067.3c.034.161.076.457.11.669.068.567.508,3.4.762,4.91.068.4.144.931.161,1.185.051.491.118.965.347,2.329.076.466.161.956.186,1.1a3.163,3.163,0,0,0,1.406,2.328,2.938,2.938,0,0,1,.415.178,3.308,3.308,0,0,0,.889.067,1.708,1.708,0,0,0,1-.169c.144-.085.313-.187.381-.22a2.289,2.289,0,0,0,.889-1.261,2.241,2.241,0,0,0,.093-1.143,12.714,12.714,0,0,0-.245-2.159,5.573,5.573,0,0,1-.144-.8c-.042-.39-.1-.8-.127-.923-.1-.466-.3-1.677-.339-2.032a3.468,3.468,0,0,0-.119-.593,6.054,6.054,0,0,1-.237-1.228,1.362,1.362,0,0,0-.11-.423,2.021,2.021,0,0,1-.076-.593,1.675,1.675,0,0,0-.085-.55,1.124,1.124,0,0,1-.085-.432,2.1,2.1,0,0,0-.118-.753,3.255,3.255,0,0,1-.093-.508c-.026-.212-.085-.61-.136-.889s-.11-.677-.136-.889a2.486,2.486,0,0,0-.118-.55,2.49,2.49,0,0,1-.118-.55,20.5,20.5,0,0,0-.356-2.032c-.068-.347-.144-.753-.169-.889a3.751,3.751,0,0,0-.872-1.795,3.01,3.01,0,0,0-2.616-.948,2.432,2.432,0,0,0-1.312.228,3.013,3.013,0,0,0-1.261,1.236,2.072,2.072,0,0,1-.229.39.423.423,0,0,0-.076.152,3.3,3.3,0,0,1-.228.542,2.089,2.089,0,0,0-.212.593c0,.085-.034.152-.085.152s-.085.076-.085.169a.851.851,0,0,1-.076.322c-.042.076-.271.77-.517,1.541s-.491,1.566-.567,1.778-.178.542-.229.737a1.81,1.81,0,0,1-.161.415.59.59,0,0,0-.059.3c0,.127-.034.237-.085.237s-.085.051-.085.118c0,.11-.779,2.582-.931,2.972a4.093,4.093,0,0,0-.169.567c-.059.229-.135.406-.169.406s-.1-.161-.161-.364a4.726,4.726,0,0,0-.169-.483,3.173,3.173,0,0,1-.178-.576c-.068-.237-.144-.44-.186-.44s-.068-.118-.068-.263a1.038,1.038,0,0,0-.093-.423,1.452,1.452,0,0,1-.118-.314,5.628,5.628,0,0,0-.3-.88.854.854,0,0,1-.076-.313.266.266,0,0,0-.085-.22.45.45,0,0,1-.085-.3c0-.136-.034-.245-.085-.245s-.085-.118-.085-.254-.034-.254-.085-.254-.085-.11-.085-.245-.034-.279-.085-.3a.358.358,0,0,1-.085-.254,1.664,1.664,0,0,0-.161-.567,13.044,13.044,0,0,1-.575-1.7c-.025-.127-.076-.229-.119-.229s-.076-.11-.076-.245-.034-.279-.085-.3a.449.449,0,0,1-.085-.3c0-.136-.034-.246-.085-.246s-.085-.076-.085-.161a.516.516,0,0,0-.127-.3.412.412,0,0,1-.127-.212.715.715,0,0,0-.076-.245,4.4,4.4,0,0,1-.194-.423c-.06-.144-.136-.271-.169-.271s-.068-.051-.068-.11a2.519,2.519,0,0,0-1.025-.965c-.135-.025-.245-.067-.245-.1a4.556,4.556,0,0,0-2.2-.279" transform="translate(-81.819 -34.358)" fill="#f8c923"/>
        <path id="Path_704" data-name="Path 704" d="M235.609,49.125a2.389,2.389,0,0,0-1.253,2.921.755.755,0,0,1,.135.347c0,.186.567.771.931.957a1.355,1.355,0,0,0,.517.144c.135.009.245.034.245.068s.144.051.322.051.6.009.957.017l.635.017.009,1.668c0,.923.009,1.769.025,1.888s.017,2.667.009,5.672c-.009,5.359.025,6.654.169,6.807a.352.352,0,0,1,.076.194c0,.135.111.28.483.652a1.835,1.835,0,0,0,1.634.652c.949.025,1.414-.11,1.676-.458a.38.38,0,0,1,.2-.144.457.457,0,0,0,.33-.364.174.174,0,0,1,.076-.161c.05-.016.1-.135.127-.271a.574.574,0,0,1,.126-.3c.093-.06.136-6.536.085-13.765-.034-4.665-.042-5.1-.178-5.291a.743.743,0,0,1-.152-.347,1.575,1.575,0,0,0-.728-.754,1.216,1.216,0,0,1-.381-.161c-.254-.153-.458-.169-3.031-.169a12.651,12.651,0,0,0-3.039.127" transform="translate(-165.224 -34.561)" fill="#f8c923"/>
      </g>
    </g>
  </g>
</svg>
