<?xml version="1.0" encoding="UTF-8"?>
<svg width="2198px" height="351px" viewBox="0 0 2198 351" version="1.1" xmlns="http://www.w3.org/2000/svg" xmlns:xlink="http://www.w3.org/1999/xlink">
    <!-- Generator: Sketch 43.1 (39012) - http://www.bohemiancoding.com/sketch -->
    <title>gsj</title>
    <desc>Created with Sketch.</desc>
    <defs></defs>
    <g id="Page-1" stroke="none" stroke-width="1" fill="none" fill-rule="evenodd">
        <g id="2" transform="translate(-104.000000, -93.000000)" fill-rule="nonzero">
            <g id="gsj" transform="translate(104.000000, 94.000000)">
                <path d="M258.8,77.233 C256.02,77.233 253.767,74.981 253.767,72.2 C253.767,38.295 226.181,10.71 192.277,10.71 C158.371,10.71 130.785,38.295 130.785,72.2 C130.785,74.981 128.531,77.233 125.751,77.233 C122.972,77.233 120.719,74.981 120.719,72.2 C120.719,32.747 152.819,0.642 192.277,0.642 C231.732,0.642 263.833,32.746 263.833,72.2 C263.833,74.981 261.581,77.233 258.8,77.233 Z" id="Shape" stroke="#103239" stroke-width="2" fill="#10333A"></path>
                <path d="M0.931,140.17 C0.931,143.578 3.717,146.358 7.122,146.358 L376.977,146.358 C380.382,146.358 383.168,143.578 383.168,140.17 L383.168,97.688 C383.168,94.288 380.382,91.5 376.977,91.5 L7.122,91.5 C3.717,91.5 0.931,94.288 0.931,97.688 L0.931,140.17 L0.931,140.17 Z" id="Shape" fill="#FFFFFF"></path>
                <path d="M0.931,207.616 L0.931,207.616 L0.931,165.134 C0.931,161.731 3.717,158.943 7.122,158.943 L376.977,158.943 C380.382,158.943 383.168,161.731 383.168,165.134 L383.168,207.616 C383.168,211.021 380.382,213.806 376.977,213.806 L7.122,213.806 C3.717,213.806 0.931,211.021 0.931,207.616 Z M123.343,191.72 L123.343,181.036 C123.343,177.628 120.557,174.848 117.154,174.848 L68.734,174.848 C65.33,174.848 62.544,177.629 62.544,181.036 L62.544,191.72 C62.544,195.124 65.33,197.907 68.734,197.907 L117.154,197.907 C120.556,197.907 123.343,195.123 123.343,191.72 Z M222.676,191.72 L222.676,181.036 C222.676,177.628 219.89,174.848 216.488,174.848 L168.068,174.848 C164.662,174.848 161.878,177.629 161.878,181.036 L161.878,191.72 C161.878,195.124 164.662,197.907 168.068,197.907 L216.488,197.907 C219.889,197.907 222.676,195.123 222.676,191.72 Z M324.995,191.72 L324.995,181.036 C324.995,177.628 322.209,174.848 318.806,174.848 L270.383,174.848 C266.979,174.848 264.195,177.629 264.195,181.036 L264.195,191.72 C264.195,195.124 266.98,197.907 270.383,197.907 L318.806,197.907 C322.208,197.907 324.995,195.123 324.995,191.72 Z" id="Combined-Shape" fill="#FFFFFF"></path>
                <path d="M0.931,275.586 C0.931,278.993 3.719,281.776 7.123,281.776 L376.977,281.776 C380.382,281.776 383.168,278.993 383.168,275.586 L383.168,233.108 C383.168,229.705 380.382,226.917 376.977,226.917 L7.123,226.917 C3.719,226.917 0.931,229.705 0.931,233.108 L0.931,275.586 Z" id="Shape" fill="#FFFFFF"></path>
                <path d="M0.931,343.556 L0.931,301.074 C0.931,297.675 3.719,294.888 7.123,294.888 L376.977,294.888 C380.382,294.888 383.168,297.676 383.168,301.074 L383.168,343.556 C383.168,346.962 380.382,349.747 376.977,349.747 L7.123,349.747 C3.719,349.747 0.931,346.962 0.931,343.556 Z M217.453,322.734 C217.453,319.801 215.071,317.417 212.133,317.417 L169.926,317.417 C166.988,317.417 164.606,319.8 164.606,322.734 C164.606,325.672 166.988,328.047 169.926,328.047 L212.133,328.047 C215.071,328.047 217.453,325.672 217.453,322.734 Z" id="Combined-Shape" fill="#FFFFFF"></path>
                <g id="Group" transform="translate(495.000000, 74.000000)">
                    <path d="M72.661,199.141 C76.683,194.882 78.812,188.731 78.812,180.922 L78.812,170.276 C71.241,174.535 63.197,176.427 52.549,176.427 C37.643,176.427 25.576,171.222 16.822,162.704 C6.411,152.53 0.732,137.15 0.732,120.115 C0.732,104.972 5.701,89.594 15.638,78.947 C24.156,69.956 36.223,64.041 52.312,64.041 C64.142,64.041 73.132,68.773 79.048,72.795 L79.757,72.795 L79.757,69.719 C79.757,67.59 81.413,66.17 83.307,66.17 L106.494,66.17 C108.387,66.17 110.043,67.59 110.043,69.719 L110.043,176.9 C110.043,195.355 104.838,210.024 93.954,219.252 C84.254,227.297 71.004,230.846 54.441,230.846 C38.116,230.846 22.263,226.114 12.089,219.016 C10.433,217.596 9.723,215.94 10.433,214.284 L19.661,196.303 C20.607,194.647 22.737,193.7 25.102,195.357 C32.911,200.562 42.611,204.821 54.914,204.821 C62.724,204.819 68.639,202.927 72.661,199.141 Z M78.812,143.775 L78.812,99.058 C74.553,95.982 66.982,90.777 57.044,90.777 C49.473,90.777 43.795,93.379 40.009,97.638 C35.04,103.552 32.674,111.597 32.674,120.588 C32.674,130.525 35.04,138.569 39.773,143.775 C43.795,148.035 49.001,150.636 56.335,150.636 C65.562,150.637 72.897,147.798 78.812,143.775 Z" id="Shape" fill="#10333A"></path>
                    <path d="M150.031,96.691 C147.665,98.111 146.009,98.111 144.826,95.508 L137.965,80.602 C137.019,78.473 137.255,77.29 139.385,75.87 C150.269,69.009 166.358,64.04 183.393,64.04 C194.277,64.04 208.473,66.169 217.701,76.344 C223.616,82.969 227.165,91.486 227.165,105.209 L227.165,170.985 C227.165,172.878 225.509,174.534 223.616,174.534 L202.795,174.534 C200.665,174.534 199.009,172.878 199.009,170.985 L199.009,169.091 L198.063,169.091 C188.363,175.243 180.082,176.9 169.198,176.9 C159.497,176.9 150.507,173.824 144.118,168.146 C137.493,162.704 133.472,154.186 133.472,143.539 C133.472,129.58 141.752,121.299 153.11,116.094 C166.123,110.415 183.159,108.522 195.935,107.576 L195.935,105.209 C195.935,99.768 194.989,95.746 192.623,92.906 C190.02,89.594 185.052,88.174 179.609,88.174 C168.486,88.174 158.076,92.196 150.031,96.691 Z M195.933,149.218 L195.933,128.633 C181.737,129.107 163.282,130.999 163.282,142.593 C163.282,150.164 170.617,153.713 179.371,153.713 C184.812,153.713 190.49,152.53 195.933,149.218 Z" id="Shape" fill="#10333A"></path>
                    <path d="M277.56,121.299 L277.56,170.986 C277.56,172.879 275.904,174.535 274.011,174.535 L249.878,174.535 C247.748,174.535 246.328,172.879 246.328,170.986 L246.328,69.72 C246.328,67.591 247.748,66.171 249.878,66.171 L273.065,66.171 C274.958,66.171 276.614,67.591 276.614,69.72 L276.614,76.108 L277.324,76.108 C283.713,68.537 292.94,64.041 303.824,64.041 C313.761,64.041 323.225,66.88 330.323,73.032 C331.979,74.451 332.453,76.344 331.507,78 L322.752,96.691 C321.806,98.584 319.44,98.821 317.311,97.638 C311.396,94.089 305.717,91.486 298.146,91.486 C282.056,91.486 277.56,106.393 277.56,121.299 Z" id="Shape" fill="#10333A"></path>
                    <path d="M356.112,96.691 C353.746,98.111 352.09,98.111 350.907,95.508 L344.046,80.602 C343.1,78.473 343.336,77.29 345.466,75.87 C356.35,69.009 372.439,64.04 389.474,64.04 C400.358,64.04 414.554,66.169 423.782,76.344 C429.697,82.969 433.246,91.486 433.246,105.209 L433.246,170.985 C433.246,172.878 431.59,174.534 429.697,174.534 L408.876,174.534 C406.746,174.534 405.09,172.878 405.09,170.985 L405.09,169.091 L404.144,169.091 C394.444,175.243 386.163,176.9 375.279,176.9 C365.579,176.9 356.588,173.824 350.199,168.146 C343.574,162.704 339.553,154.186 339.553,143.539 C339.553,129.58 347.833,121.299 359.191,116.094 C372.204,110.415 389.24,108.522 402.016,107.576 L402.016,105.209 C402.016,99.768 401.07,95.746 398.704,92.906 C396.101,89.594 391.133,88.174 385.69,88.174 C374.567,88.174 364.157,92.196 356.112,96.691 Z M402.014,149.218 L402.014,128.633 C387.818,129.107 369.363,130.999 369.363,142.593 C369.363,150.164 376.698,153.713 385.452,153.713 C390.894,153.713 396.571,152.53 402.014,149.218 Z" id="Shape" fill="#10333A"></path>
                    <path d="M522.444,199.141 C526.466,194.882 528.595,188.731 528.595,180.922 L528.595,170.276 C521.024,174.535 512.98,176.427 502.332,176.427 C487.426,176.427 475.359,171.222 466.605,162.704 C456.194,152.53 450.515,137.15 450.515,120.115 C450.515,104.972 455.484,89.594 465.421,78.947 C473.939,69.956 486.006,64.041 502.095,64.041 C513.925,64.041 522.915,68.773 528.831,72.795 L529.54,72.795 L529.54,69.719 C529.54,67.59 531.196,66.17 533.09,66.17 L556.277,66.17 C558.17,66.17 559.826,67.59 559.826,69.719 L559.826,176.9 C559.826,195.355 554.621,210.024 543.737,219.252 C534.037,227.297 520.787,230.846 504.224,230.846 C487.899,230.846 472.046,226.114 461.872,219.016 C460.216,217.596 459.506,215.94 460.216,214.284 L469.444,196.303 C470.39,194.647 472.52,193.7 474.885,195.357 C482.694,200.562 492.394,204.821 504.697,204.821 C512.507,204.819 518.422,202.927 522.444,199.141 Z M528.596,143.775 L528.596,99.058 C524.337,95.982 516.766,90.777 506.828,90.777 C499.257,90.777 493.579,93.379 489.793,97.638 C484.824,103.552 482.458,111.597 482.458,120.588 C482.458,130.525 484.824,138.569 489.557,143.775 C493.579,148.035 498.785,150.636 506.119,150.636 C515.346,150.637 522.681,147.798 528.596,143.775 Z" id="Shape" fill="#10333A"></path>
                    <path d="M666.772,144.723 C669.376,143.303 671.268,143.776 672.214,145.668 L680.495,161.048 C681.205,162.704 680.495,164.597 678.839,165.779 C670.084,171.931 653.995,176.9 638.143,176.9 C619.925,176.9 605.255,171.221 595.081,161.047 C584.907,151.109 579.228,136.441 579.228,119.168 C579.228,102.843 585.38,89.12 595.081,79.182 C604.309,69.718 617.795,64.039 634.83,64.039 C654.469,64.039 668.191,71.374 676.709,82.967 C684.518,93.614 686.883,109.703 686.647,126.266 C686.647,128.395 685.227,129.815 683.098,129.815 L612.354,129.815 C613.537,135.966 615.666,140.461 619.452,144.248 C624.184,149.217 631.756,152.056 640.51,152.056 C650.921,152.057 658.965,149.218 666.772,144.723 Z M656.362,109.232 C656.126,103.552 654.469,99.058 651.157,95.035 C647.608,91.25 641.929,88.647 635.068,88.647 C627.969,88.647 621.582,91.013 618.033,95.035 C614.721,98.821 612.827,103.79 612.118,109.232 L656.362,109.232 Z" id="Shape" fill="#10333A"></path>
                    <path d="M755.026,144.012 C755.026,138.807 750.767,136.914 744.852,134.312 C737.99,131.237 729.709,128.633 722.138,124.848 C710.544,119.169 704.629,110.178 704.629,96.455 C704.629,76.58 720.008,64.04 747.927,64.04 C765.199,64.04 776.083,67.589 784.601,72.321 C786.967,73.504 786.967,75.397 786.021,77.053 L777.502,94.562 C776.556,96.455 775.137,96.691 773.243,95.746 C763.779,90.54 755.735,88.884 748.873,88.884 C742.485,88.884 737.753,91.014 737.753,96.455 C737.753,101.187 742.722,103.553 748.164,105.683 C755.735,108.759 762.597,110.889 770.168,114.674 C782.944,120.825 787.913,130.526 787.913,142.119 C787.913,161.994 770.641,176.9 743.195,176.9 C723.556,176.9 712.436,172.641 704.155,167.909 C702.026,166.726 701.552,165.07 702.499,163.414 L711.254,145.195 C712.2,143.302 713.857,142.83 715.749,143.775 C725.213,149.217 732.311,152.53 742.485,152.53 C750.294,152.53 755.026,149.691 755.026,144.012 Z" id="Shape" fill="#FFFFFF"></path>
                    <path d="M821.038,96.691 C818.672,98.111 817.016,98.111 815.833,95.508 L808.972,80.602 C808.026,78.473 808.262,77.29 810.392,75.87 C821.276,69.009 837.365,64.04 854.4,64.04 C865.284,64.04 879.48,66.169 888.708,76.344 C894.623,82.969 898.172,91.486 898.172,105.209 L898.172,170.985 C898.172,172.878 896.516,174.534 894.623,174.534 L873.802,174.534 C871.672,174.534 870.016,172.878 870.016,170.985 L870.016,169.091 L869.07,169.091 C859.37,175.243 851.089,176.9 840.205,176.9 C830.505,176.9 821.514,173.824 815.125,168.146 C808.5,162.704 804.479,154.186 804.479,143.539 C804.479,129.58 812.759,121.299 824.117,116.094 C837.13,110.415 854.166,108.522 866.942,107.576 L866.942,105.209 C866.942,99.768 865.996,95.746 863.63,92.906 C861.027,89.594 856.059,88.174 850.616,88.174 C839.493,88.174 829.083,92.196 821.038,96.691 Z M866.939,149.218 L866.939,128.633 C852.743,129.107 834.288,130.999 834.288,142.593 C834.288,150.164 841.623,153.713 850.377,153.713 C855.819,153.713 861.497,152.53 866.939,149.218 Z" id="Shape" fill="#FFFFFF"></path>
                    <path d="M925.616,13.408 L949.75,13.408 C951.643,13.408 953.299,15.064 953.299,16.957 L953.299,170.986 C953.299,172.879 951.643,174.535 949.75,174.535 L925.616,174.535 C923.487,174.535 922.067,172.879 922.067,170.986 L922.067,16.957 C922.067,15.064 923.487,13.408 925.616,13.408 Z" id="Shape" fill="#FFFFFF"></path>
                    <path d="M1060.242,144.723 C1062.846,143.303 1064.738,143.776 1065.684,145.668 L1073.965,161.048 C1074.675,162.704 1073.965,164.597 1072.309,165.779 C1063.554,171.931 1047.465,176.9 1031.613,176.9 C1013.395,176.9 998.725,171.221 988.551,161.047 C978.377,151.109 972.698,136.441 972.698,119.168 C972.698,102.843 978.85,89.12 988.551,79.182 C997.779,69.718 1011.265,64.039 1028.301,64.039 C1047.939,64.039 1061.661,71.374 1070.179,82.967 C1077.988,93.614 1080.353,109.703 1080.117,126.266 C1080.117,128.395 1078.697,129.815 1076.568,129.815 L1005.824,129.815 C1007.007,135.966 1009.136,140.461 1012.922,144.248 C1017.654,149.217 1025.226,152.056 1033.98,152.056 C1044.391,152.057 1052.435,149.218 1060.242,144.723 Z M1049.832,109.232 C1049.596,103.552 1047.939,99.058 1044.627,95.035 C1041.078,91.25 1035.399,88.647 1028.538,88.647 C1021.439,88.647 1015.052,91.013 1011.503,95.035 C1008.191,98.821 1006.297,103.79 1005.587,109.232 L1049.832,109.232 Z" id="Shape" fill="#FFFFFF"></path>
                    <path d="M1103.305,69.719 C1103.305,67.826 1104.961,66.17 1107.091,66.17 L1131.224,66.17 C1133.117,66.17 1134.773,67.826 1134.773,69.719 L1134.773,166.253 C1134.773,200.561 1125.309,220.672 1108.51,230.372 C1105.671,231.792 1104.488,232.028 1102.359,229.899 L1085.797,213.337 C1084.141,211.681 1084.851,210.025 1086.743,208.605 C1099.047,199.377 1103.305,191.334 1103.305,165.78 L1103.305,69.719 Z M1118.921,36.358 C1108.983,36.358 1100.939,28.313 1100.939,18.376 C1100.939,8.438 1108.984,0.394 1118.921,0.394 C1128.858,0.394 1136.902,8.438 1136.902,18.376 C1136.902,28.313 1128.857,36.358 1118.921,36.358 Z" id="Shape" fill="#10333A"></path>
                    <path d="M1163.399,69.719 C1163.399,67.59 1165.055,66.17 1166.948,66.17 L1191.082,66.17 C1192.975,66.17 1194.631,67.59 1194.631,69.719 L1194.631,125.794 C1194.631,131.945 1195.577,136.441 1197.707,140.463 C1200.782,146.379 1206.935,150.401 1216.872,150.401 C1226.809,150.401 1232.961,146.38 1236.273,140.463 C1238.402,136.442 1239.348,131.945 1239.348,125.794 L1239.348,69.719 C1239.348,67.59 1240.768,66.17 1242.898,66.17 L1267.031,66.17 C1268.924,66.17 1270.58,67.59 1270.58,69.719 L1270.58,127.924 C1270.58,141.883 1267.268,152.057 1261.116,159.865 C1251.888,171.459 1236.273,176.9 1216.872,176.9 C1197.707,176.9 1182.091,171.459 1172.863,159.865 C1166.712,152.056 1163.399,141.883 1163.399,127.924 L1163.399,69.719 L1163.399,69.719 Z" id="Shape" fill="#10333A"></path>
                    <path d="M1320.976,77.054 C1330.204,67.59 1341.797,64.041 1353.391,64.041 C1365.457,64.041 1376.814,67.117 1385.095,74.688 C1392.666,81.549 1397.635,92.67 1397.635,108.759 L1397.635,170.986 C1397.635,172.879 1396.216,174.535 1394.086,174.535 L1369.716,174.535 C1367.823,174.535 1366.167,172.879 1366.167,170.986 L1366.167,116.803 C1366.167,108.995 1365.221,101.188 1360.725,96.219 C1357.886,92.907 1353.154,90.778 1346.529,90.778 C1328.075,90.778 1321.213,108.049 1321.213,123.665 L1321.213,170.986 C1321.213,172.879 1319.557,174.535 1317.664,174.535 L1293.531,174.535 C1291.401,174.535 1289.981,172.879 1289.981,170.986 L1289.981,69.72 C1289.981,67.591 1291.401,66.171 1293.531,66.171 L1316.718,66.171 C1318.611,66.171 1320.267,67.591 1320.267,69.72 L1320.267,77.054 L1320.976,77.054 L1320.976,77.054 Z" id="Shape" fill="#10333A"></path>
                    <path d="M1459.86,131.473 L1448.03,142.593 L1448.03,170.986 C1448.03,172.879 1446.374,174.535 1444.481,174.535 L1420.348,174.535 C1418.218,174.535 1416.798,172.879 1416.798,170.986 L1416.798,16.957 C1416.798,15.064 1418.218,13.408 1420.348,13.408 L1444.481,13.408 C1446.374,13.408 1448.03,15.064 1448.03,16.957 L1448.03,108.759 L1486.36,69.246 C1488.726,66.643 1490.145,66.17 1493.221,66.17 L1521.614,66.17 C1525.636,66.17 1526.583,69.719 1523.98,72.085 L1481.627,111.361 L1525.398,168.855 C1527.292,171.459 1527.054,174.534 1522.795,174.534 L1494.876,174.534 C1491.8,174.534 1490.381,173.588 1488.725,170.985 L1459.86,131.473 Z" id="Shape" fill="#10333A"></path>
                    <path d="M1541.961,18.376 C1541.961,8.438 1549.77,0.394 1559.943,0.394 C1569.881,0.394 1577.688,8.438 1577.688,18.376 C1577.688,28.313 1569.88,36.358 1559.943,36.358 C1549.77,36.358 1541.961,28.313 1541.961,18.376 Z M1547.876,66.17 L1572.01,66.17 C1573.903,66.17 1575.559,67.59 1575.559,69.719 L1575.559,170.985 C1575.559,172.878 1573.903,174.534 1572.01,174.534 L1547.876,174.534 C1545.747,174.534 1544.327,172.878 1544.327,170.985 L1544.327,69.719 C1544.327,67.59 1545.747,66.17 1547.876,66.17 Z" id="Shape" fill="#10333A"></path>
                    <path d="M1682.502,144.723 C1685.106,143.303 1686.998,143.776 1687.944,145.668 L1696.225,161.048 C1696.935,162.704 1696.225,164.597 1694.569,165.779 C1685.814,171.931 1669.725,176.9 1653.873,176.9 C1635.655,176.9 1620.985,171.221 1610.811,161.047 C1600.637,151.109 1594.958,136.441 1594.958,119.168 C1594.958,102.843 1601.11,89.12 1610.811,79.182 C1620.039,69.718 1633.525,64.039 1650.561,64.039 C1670.199,64.039 1683.921,71.374 1692.439,82.967 C1700.248,93.614 1702.613,109.703 1702.377,126.266 C1702.377,128.395 1700.957,129.815 1698.828,129.815 L1628.084,129.815 C1629.267,135.966 1631.396,140.461 1635.182,144.248 C1639.914,149.217 1647.486,152.056 1656.24,152.056 C1666.65,152.057 1674.694,149.218 1682.502,144.723 Z M1672.092,109.232 C1671.856,103.552 1670.199,99.058 1666.887,95.035 C1663.338,91.25 1657.659,88.647 1650.798,88.647 C1643.699,88.647 1637.312,91.013 1633.763,95.035 C1630.451,98.821 1628.557,103.79 1627.847,109.232 L1672.092,109.232 Z" id="Shape" fill="#10333A"></path>
                </g>
            </g>
        </g>
    </g>
</svg>