<svg xmlns="http://www.w3.org/2000/svg" xmlns:xlink="http://www.w3.org/1999/xlink" width="169" height="80" viewBox="0 0 169 80">
  <defs>
    <clipPath id="clip-path">
      <rect id="Rectangle_182" data-name="Rectangle 182" width="66.85" height="62.863" fill="none"/>
    </clipPath>
    <clipPath id="clip-radio3-dark">
      <rect width="169" height="80"/>
    </clipPath>
  </defs>
  <g id="radio3-dark" clip-path="url(#clip-radio3-dark)">
    <g id="Group_384" data-name="Group 384" transform="translate(51.096 8.076)">
      <g id="Group_383" data-name="Group 383" clip-path="url(#clip-path)">
        <path id="Path_723" data-name="Path 723" d="M209.264,4.98V6.423c-.893,2.1-3.44,1.378-3.44-.819l1.444-2.552L204.871,0l-2.4,3.052L203.918,5.6c0,2.2-2.546,2.924-3.44.819V4.98l-4.357-2.209,3.06,8.72h11.38l3.061-8.72Zm-9.988,8.814h11.189V12.259H199.277Z" transform="translate(-171.475)" fill="#1a1818"/>
        <path id="Path_724" data-name="Path 724" d="M7.449,134.045l.017-3.735q-1.265.043-2.53.09-.023,8.332-.046,16.665,1.249-.3,2.5-.569.008-1.883.017-3.766,1.488-.259,2.982-.49-.014,2.29-.027,4.581a2.586,2.586,0,0,1-1.994,2.235q-2.245.538-4.472,1.168a1.439,1.439,0,0,1-1.961-1.388l0-19.315a2.048,2.048,0,0,1,2-2l4.535-.012a1.9,1.9,0,0,1,1.99,1.8q-.013,2.26-.027,4.521-1.5.1-2.993.215" transform="translate(-1.694 -111.483)" fill="#f05b15"/>
        <path id="Path_725" data-name="Path 725" d="M1.683,148.846A1.64,1.64,0,0,1,0,147.139l0-19.315a2.291,2.291,0,0,1,2.241-2.244l4.538-.012a2.307,2.307,0,0,1,1.652.669,1.939,1.939,0,0,1,.582,1.38l-.028,4.747-.226.015c-.993.067-2,.139-2.991.215l-.263.02.017-3.746-2.042.073L3.44,145.061c.667-.157,1.343-.31,2.017-.458l.017-3.775.2-.035c.989-.172,1.993-.337,2.986-.491l.282-.044-.029,4.866a2.83,2.83,0,0,1-2.18,2.472c-1.49.357-2.991.749-4.463,1.165a2.137,2.137,0,0,1-.588.085m.567-22.78a1.8,1.8,0,0,0-1.758,1.757l0,19.315a1.156,1.156,0,0,0,1.2,1.22,1.648,1.648,0,0,0,.454-.066c1.479-.418,2.987-.812,4.482-1.17a2.354,2.354,0,0,0,1.807-2l.025-4.3c-.83.13-1.667.268-2.493.411L5.942,145l-.191.041c-.835.181-1.676.372-2.5.569l-.3.071L3,128.469l.234-.009q1.265-.047,2.53-.09l.253-.009L6,132.087c.832-.063,1.673-.123,2.506-.18l.025-4.294a1.456,1.456,0,0,0-.44-1.034,1.823,1.823,0,0,0-1.306-.525l-4.534.012" transform="translate(0 -109.787)" fill="#fff"/>
        <path id="Path_726" data-name="Path 726" d="M75.96,129.16a1.968,1.968,0,0,1,2.012-1.8l4.535-.008a1.845,1.845,0,0,1,1.989,1.663l-.111,16.139a2.266,2.266,0,0,1-2.019,1.928q-2.273.348-4.534.788a1.515,1.515,0,0,1-1.981-1.357q.054-8.678.108-17.357m5.528.754q-1.267.028-2.534.061l-.1,15.1q1.265-.2,2.534-.384.053-7.386.105-14.773" transform="translate(-66.32 -111.351)" fill="#f05b15"/>
        <path id="Path_727" data-name="Path 727" d="M75.722,146.463a1.888,1.888,0,0,1-1.358-.527,1.536,1.536,0,0,1-.45-1.117l.108-17.357a2.219,2.219,0,0,1,2.252-2.039l4.538-.008a2.4,2.4,0,0,1,1.7.673,1.741,1.741,0,0,1,.529,1.236l-.111,16.139a2.507,2.507,0,0,1-2.225,2.167c-1.506.231-3.028.5-4.525.786a2.407,2.407,0,0,1-.463.046m5.091-20.56-4.535.008a1.722,1.722,0,0,0-1.769,1.554L74.4,144.822a1.059,1.059,0,0,0,.308.77,1.406,1.406,0,0,0,1.012.383,1.913,1.913,0,0,0,.37-.037c1.5-.292,3.032-.558,4.544-.79a2.04,2.04,0,0,0,1.812-1.689l.111-16.139a1.258,1.258,0,0,0-.388-.89,1.916,1.916,0,0,0-1.358-.529m-3.9,17.758.108-15.62.236-.006q1.267-.032,2.535-.061l.251-.006L79.931,143.2l-.208.029c-.842.119-1.693.248-2.529.383Zm.592-15.145-.1,14.573c.678-.108,1.364-.212,2.046-.31l.1-14.312-2.047.049" transform="translate(-64.626 -109.655)" fill="#fff"/>
        <path id="Path_728" data-name="Path 728" d="M157.54,127.26q-.047,8.254-.094,16.509,1.276-.107,2.553-.19.038-8.161.076-16.321l3,0q-.026,8.492-.053,16.984A2,2,0,0,1,161,145.917q-2.289.149-4.573.389a1.642,1.642,0,0,1-2-1.395l.117-17.648,3,0" transform="translate(-135.016 -111.264)" fill="#f05b15"/>
        <path id="Path_729" data-name="Path 729" d="M154.476,144.869a2.18,2.18,0,0,1-1.548-.593,1.467,1.467,0,0,1-.445-1.06l.118-17.89,3.489,0L156,141.81c.689-.057,1.381-.108,2.065-.153l.076-16.336,3.488,0-.054,17.229a2.235,2.235,0,0,1-2.253,1.919c-1.517.1-3.052.229-4.564.388a2.615,2.615,0,0,1-.279.015m-1.391-19.057-.115,17.406a.99.99,0,0,0,.3.714,1.773,1.773,0,0,0,1.43.437c1.518-.16,3.06-.291,4.583-.39.972-.064,1.8-.721,1.8-1.434l.052-16.74-2.515,0-.076,16.306-.227.015c-.842.054-1.7.118-2.548.189l-.266.022.094-16.53Z" transform="translate(-133.321 -109.57)" fill="#fff"/>
        <path id="Path_730" data-name="Path 730" d="M237.269,127.246q1.433,4.579,2.882,9.172-.007-4.586-.014-9.171h3q.03,9.277.059,18.554-1.785-.087-3.573-.118-1.523-4.978-3.029-9.91,0,4.949-.006,9.9-1.517.014-3.034.068.022-9.246.044-18.493h3.669" transform="translate(-204.206 -111.255)" fill="#f05b15"/>
        <path id="Path_731" data-name="Path 731" d="M241.743,144.362l-.256-.013c-1.18-.057-2.379-.1-3.565-.117l-.177,0-.576-1.883q-1.018-3.328-2.029-6.636l-.005,8.508-.241,0c-1,.009-2.023.032-3.028.067l-.253.009.045-18.988h4.09l.054.171q1.2,3.823,2.4,7.652l-.012-7.823h3.488Zm-3.636-.614c1.047.02,2.1.054,3.147.1L241.2,125.8h-2.515l.016,10.52-.518-1.645q-1.4-4.452-2.789-8.875h-3.246l-.043,18c.846-.028,1.7-.047,2.547-.057l.007-11.288.476,1.561q1.246,4.09,2.5,8.2Z" transform="translate(-202.507 -109.56)" fill="#fff"/>
        <path id="Path_732" data-name="Path 732" d="M315.145,129.669q-1.336-.014-2.671-.023,0-1.194-.008-2.388,4.169,0,8.337.008.008,1.241.017,2.482-1.335-.023-2.67-.042.049,8.28.1,16.561-1.511-.154-3.026-.267-.038-8.165-.077-16.33" transform="translate(-273.199 -111.266)" fill="#f05b15"/>
        <path id="Path_733" data-name="Path 733" d="M316.793,144.841l-.27-.027c-1-.1-2.019-.192-3.019-.267l-.224-.017-.077-16.315q-1.215-.012-2.431-.021l-.241,0-.01-2.873h.245q4.169,0,8.337.008h.242l.02,2.973-.249,0q-1.21-.021-2.421-.038Zm-3.029-.763c.842.065,1.693.14,2.538.224l-.1-16.539.248,0q1.211.017,2.421.038l-.013-1.991-7.851-.007.007,1.9q1.215.009,2.431.022l.24,0Z" transform="translate(-271.499 -109.571)" fill="#fff"/>
        <path id="Path_734" data-name="Path 734" d="M387.082,138.956q-1.267-.131-2.535-.246.03,4.195.06,8.389-1.5-.234-3.012-.428-.065-9.674-.13-19.348l6.169.01a1.916,1.916,0,0,1,2.013,1.777q.024,3.605.047,7.211a1.246,1.246,0,0,1-1.023,1.344,2.03,2.03,0,0,1,1.409,1.892l.055,8.542q-1.493-.308-2.993-.576-.03-4.283-.06-8.567m-2.554-2.788q1.085.077,2.169.162-.023-3.206-.045-6.412-1.084-.026-2.168-.049.022,3.149.045,6.3" transform="translate(-333.527 -111.323)" fill="#f05b15"/>
        <path id="Path_735" data-name="Path 735" d="M388.674,146.7l-.295-.061c-.988-.2-1.993-.4-2.987-.575l-.2-.036-.06-8.551c-.681-.07-1.368-.136-2.048-.2l.06,8.407-.283-.044c-1-.155-2.007-.3-3.005-.427l-.211-.027-.133-19.807h.246l6.169.01a2.158,2.158,0,0,1,2.256,2.019l.047,7.211a1.59,1.59,0,0,1-.647,1.363,2.31,2.31,0,0,1,1.034,1.873Zm-3-1.079c.834.151,1.674.312,2.505.481l-.053-8.241a1.791,1.791,0,0,0-1.234-1.66l-1.079-.314,1.113-.161a1,1,0,0,0,.814-1.1l-.047-7.211a1.672,1.672,0,0,0-1.766-1.535l-5.927-.01.127,18.89c.839.109,1.686.229,2.524.358l-.059-8.371.267.024c.842.076,1.7.159,2.539.246l.217.022Zm-.442-10.725-.265-.021c-.721-.057-1.449-.112-2.166-.162l-.225-.016-.048-6.775.251.005q1.084.023,2.169.049l.236.006Zm-2.172-.653c.557.04,1.121.082,1.681.126l-.042-5.91-1.681-.038Z" transform="translate(-331.821 -109.627)" fill="#fff"/>
        <path id="Path_736" data-name="Path 736" d="M452.012,141.894c-1.217-5.007-2.444-9.813-3.674-14.456l3.1.007q1.027,5.047,2.044,10.319.973-5.038,1.957-10.309l3.1.009c-1.2,5.2-2.38,10.166-3.552,14.935q.012,3.657.023,7.314-1.478-.394-2.964-.749-.018-3.535-.036-7.07" transform="translate(-391.997 -111.423)" fill="#f05b15"/>
        <path id="Path_737" data-name="Path 737" d="M453.051,148.332l-.307-.082c-.981-.262-1.976-.513-2.958-.747l-.186-.044-.037-7.233c-1.163-4.786-2.363-9.5-3.666-14.424l-.082-.307,3.617.008.04.195c.616,3.027,1.222,6.076,1.8,9.082.569-2.96,1.146-6,1.718-9.068l.037-.2,3.609.011-.068.3c-1.184,5.136-2.377,10.152-3.546,14.91Zm-2.966-1.258c.823.2,1.654.407,2.477.624l-.023-7.026.007-.029c1.149-4.672,2.32-9.594,3.483-14.634L453.437,126c-.64,3.427-1.286,6.828-1.92,10.111l-.24,1.24-.239-1.24c-.643-3.34-1.317-6.744-2-10.122l-2.585-.006c1.276,4.821,2.452,9.455,3.594,14.154l.007.028v.029Z" transform="translate(-389.792 -109.724)" fill="#fff"/>
        <path id="Path_738" data-name="Path 738" d="M107.66,330.593a1.879,1.879,0,0,1,.441.489,1.6,1.6,0,0,1,.221.9v1.828h-5.893V331.98a1.323,1.323,0,0,1,.252-.851,6.6,6.6,0,0,1,.473-.536.8.8,0,0,0,.2-.3l.079-.237V316.13q0-.315-.41-.315h-.8a1.665,1.665,0,0,1-.331-.031q-.284-.031-.741-.63a2.755,2.755,0,0,1-.457-1.7v-.63a4.876,4.876,0,0,0,1.827-.457,2.407,2.407,0,0,0,1.2-1.308,1.559,1.559,0,0,1,.473-.536,1.379,1.379,0,0,1,.914-.347h2.111v19.757a.6.6,0,0,0,.142.347,2.763,2.763,0,0,0,.237.284Z" transform="translate(-88.042 -271.196)" fill="#1a1818"/>
        <path id="Path_739" data-name="Path 739" d="M173.249,332.3a7.672,7.672,0,0,1-2.143-.283,4.528,4.528,0,0,1-1.686-.882,4.211,4.211,0,0,1-1.119-1.5,5,5,0,0,1-.41-2.1V312.926a5.005,5.005,0,0,1,.41-2.1,4.069,4.069,0,0,1,1.119-1.481,4.873,4.873,0,0,1,1.686-.882,7.284,7.284,0,0,1,2.143-.3,7.446,7.446,0,0,1,2.158.3,4.86,4.86,0,0,1,1.7.882,4.076,4.076,0,0,1,1.119,1.481,5.013,5.013,0,0,1,.41,2.1v14.621a5.012,5.012,0,0,1-.41,2.1,4.218,4.218,0,0,1-1.119,1.5,4.522,4.522,0,0,1-1.7.882,7.843,7.843,0,0,1-2.158.283m1.859-19a2.159,2.159,0,0,0-.488-1.654,2.021,2.021,0,0,0-1.371-.425,1.969,1.969,0,0,0-1.339.425,2.158,2.158,0,0,0-.488,1.654v13.864a2.215,2.215,0,0,0,.488,1.67,1.922,1.922,0,0,0,1.339.441,1.852,1.852,0,0,0,1.371-.489,2.452,2.452,0,0,0,.488-1.749Z" transform="translate(-146.794 -269.441)" fill="#1a1818"/>
        <path id="Path_740" data-name="Path 740" d="M274.482,310.174a.8.8,0,0,1,.536.189.708.708,0,0,1,.221.567v3.34a1.153,1.153,0,0,1-.079.441.849.849,0,0,1-.142.252,18.4,18.4,0,0,0-1.749,3.088,17.83,17.83,0,0,0-1.071,3.324,30.754,30.754,0,0,0-.583,3.86q-.189,2.08-.284,4.695a.561.561,0,0,0,.126.41,3.18,3.18,0,0,0,.284.252,1.639,1.639,0,0,1,.441.694,3.59,3.59,0,0,1,.221,1.355v1.166h-5.8V332.64a3.861,3.861,0,0,1,.174-1.134,2,2,0,0,1,.551-.914l.173-.173a.79.79,0,0,0,.142-.205c0-.168.005-.32.016-.457s.016-.278.016-.425l.031-.473q.189-2.363.394-4.459a32.9,32.9,0,0,1,.614-3.939A21.534,21.534,0,0,1,269.787,317a14.905,14.905,0,0,1,1.7-3.072q.094-.158-.016-.2a.483.483,0,0,0-.173-.047h-3.214a.8.8,0,0,0-.567.2.757.757,0,0,0-.221.583v1.323h-1.7a1.534,1.534,0,0,1-.867-.221,1.642,1.642,0,0,1-.5-.5,1.853,1.853,0,0,1-.236-.567,2.151,2.151,0,0,1-.063-.441v-2.678a1.174,1.174,0,0,1,.315-.914,1.539,1.539,0,0,1,1.04-.284h9.2Z" transform="translate(-230.759 -271.195)" fill="#1a1818"/>
        <path id="Path_741" data-name="Path 741" d="M371.152,372.591a.533.533,0,0,1,.358.126.473.473,0,0,1,.147.379v2.231a.767.767,0,0,1-.053.295.573.573,0,0,1-.095.169,12.3,12.3,0,0,0-1.168,2.063,11.922,11.922,0,0,0-.716,2.221,20.512,20.512,0,0,0-.389,2.579q-.127,1.389-.19,3.137a.376.376,0,0,0,.084.274,2.235,2.235,0,0,0,.19.168,1.1,1.1,0,0,1,.295.463,2.4,2.4,0,0,1,.147.905v.779h-3.873V387.6a2.576,2.576,0,0,1,.116-.758,1.335,1.335,0,0,1,.368-.611l.116-.116a.526.526,0,0,0,.095-.137c0-.112,0-.214.01-.305s.011-.186.011-.284l.021-.316q.126-1.578.263-2.979a22.019,22.019,0,0,1,.411-2.632,14.365,14.365,0,0,1,.716-2.316,9.948,9.948,0,0,1,1.137-2.052c.042-.07.039-.116-.011-.137a.322.322,0,0,0-.116-.031h-2.147a.533.533,0,0,0-.379.137.5.5,0,0,0-.147.389v.884h-1.137a1.025,1.025,0,0,1-.579-.147,1.1,1.1,0,0,1-.337-.337,1.237,1.237,0,0,1-.158-.379,1.444,1.444,0,0,1-.042-.295v-1.789a.784.784,0,0,1,.21-.61,1.025,1.025,0,0,1,.694-.19h6.147Z" transform="translate(-318.345 -325.769)" fill="#1a1818"/>
        <path id="Path_742" data-name="Path 742" d="M374.192,321.336h-.826v-.678h-.655V322h.842v.623h-.842v1.558h.249v.732h-1.3v-.732h.226v-3.521h-.234v-.732h2.54v1.41Z" transform="translate(-324.948 -279.722)" fill="#f05b15"/>
        <path id="Path_743" data-name="Path 743" d="M397.489,324.912H396.2v-.732h.226V322.6l-.717,2.314-.686-2.314v1.581h.218v.732h-1.27v-.732h.226v-3.521h-.234v-.732h1.465v.732H395.2l.53,1.924.53-1.924h-.25v-.732h1.48v.732h-.234v3.521h.234Z" transform="translate(-344.459 -279.722)" fill="#f05b15"/>
        <path id="Path_744" data-name="Path 744" d="M337.744,427.923l.72,1.457,1.609.234-1.164,1.134.274,1.6-1.439-.756-1.438.756.274-1.6-1.164-1.134,1.609-.234Z" transform="translate(-293.266 -374.147)" fill="#f05b15"/>
      </g>
    </g>
  </g>
</svg>
