<svg xmlns="http://www.w3.org/2000/svg" xmlns:xlink="http://www.w3.org/1999/xlink" width="169" height="80" viewBox="0 0 169 80">
  <defs>
    <clipPath id="clip-path">
      <rect id="Rectangle_183" data-name="Rectangle 183" width="67.959" height="63.906" fill="none"/>
    </clipPath>
    <clipPath id="clip-radio3-light">
      <rect width="169" height="80"/>
    </clipPath>
  </defs>
  <g id="radio3-light" clip-path="url(#clip-radio3-light)">
    <g id="Group_385" data-name="Group 385" transform="translate(51 8)">
      <g id="Group_386" data-name="Group 386" clip-path="url(#clip-path)">
        <path id="Path_745" data-name="Path 745" d="M209.482,5.063V6.53c-.908,2.14-3.5,1.4-3.5-.833L207.453,3.1,205.016,0,202.58,3.1,204.047,5.7c0,2.234-2.588,2.972-3.5.833V5.063l-4.429-2.246,3.111,8.865H210.8l3.111-8.865Zm-10.153,8.961H210.7V12.462H199.329Z" transform="translate(-171.066)" fill="#fff"/>
        <path id="Path_746" data-name="Path 746" d="M7.54,134.153l.017-3.8q-1.286.044-2.572.091-.023,8.471-.047,16.941,1.27-.3,2.545-.579.008-1.914.017-3.829,1.513-.263,3.031-.5-.014,2.328-.027,4.657a2.629,2.629,0,0,1-2.027,2.272q-2.282.547-4.546,1.187a1.463,1.463,0,0,1-1.993-1.411l0-19.636a2.082,2.082,0,0,1,2.034-2.034l4.61-.012a1.933,1.933,0,0,1,2.023,1.833q-.014,2.3-.027,4.6-1.522.1-3.042.218" transform="translate(-1.69 -111.217)" fill="#f05b15"/>
        <path id="Path_747" data-name="Path 747" d="M1.711,149.232A1.667,1.667,0,0,1,0,147.5l0-19.636a2.329,2.329,0,0,1,2.278-2.281l4.613-.012a2.345,2.345,0,0,1,1.68.68,1.971,1.971,0,0,1,.591,1.4l-.029,4.826-.229.015c-1.01.068-2.033.142-3.04.218l-.268.02.017-3.808-2.076.074L3.5,145.384c.678-.16,1.365-.316,2.05-.465l.017-3.838.2-.036c1.005-.175,2.026-.343,3.036-.5l.287-.044-.029,4.946a2.877,2.877,0,0,1-2.216,2.513c-1.515.363-3.041.762-4.537,1.185a2.173,2.173,0,0,1-.6.086m.576-23.158A1.835,1.835,0,0,0,.5,127.861L.5,147.5a1.175,1.175,0,0,0,1.216,1.241,1.676,1.676,0,0,0,.462-.068c1.5-.425,3.036-.825,4.556-1.19a2.393,2.393,0,0,0,1.837-2.033l.026-4.366c-.844.132-1.694.272-2.535.417l-.017,3.82-.194.042c-.849.184-1.7.379-2.54.578L3,146.011l.048-17.494.238-.009q1.286-.048,2.572-.091l.257-.009L6.1,132.195c.846-.064,1.7-.125,2.547-.183l.026-4.366a1.48,1.48,0,0,0-.448-1.051,1.854,1.854,0,0,0-1.328-.534l-4.609.012" transform="translate(0 -109.526)" fill="#fff"/>
        <path id="Path_748" data-name="Path 748" d="M75.962,129.19a2,2,0,0,1,2.045-1.826l4.61-.008a1.875,1.875,0,0,1,2.022,1.691l-.113,16.406a2.3,2.3,0,0,1-2.052,1.96q-2.31.354-4.609.8a1.54,1.54,0,0,1-2.014-1.379q.055-8.822.11-17.645m5.62.766q-1.289.029-2.576.062L78.9,145.364q1.286-.208,2.576-.391.053-7.509.107-15.018" transform="translate(-66.162 -111.085)" fill="#f05b15"/>
        <path id="Path_749" data-name="Path 749" d="M75.752,146.812a1.919,1.919,0,0,1-1.38-.535,1.562,1.562,0,0,1-.457-1.135l.11-17.645a2.256,2.256,0,0,1,2.29-2.072l4.613-.008a2.445,2.445,0,0,1,1.733.684,1.769,1.769,0,0,1,.538,1.257l-.113,16.406a2.549,2.549,0,0,1-2.261,2.2c-1.531.235-3.078.5-4.6.8a2.447,2.447,0,0,1-.471.047m5.175-20.9-4.61.008a1.751,1.751,0,0,0-1.8,1.58l-.11,17.645a1.076,1.076,0,0,0,.314.783,1.429,1.429,0,0,0,1.029.389,1.946,1.946,0,0,0,.376-.038c1.529-.3,3.083-.567,4.62-.8a2.074,2.074,0,0,0,1.842-1.717l.113-16.406a1.279,1.279,0,0,0-.394-.9,1.947,1.947,0,0,0-1.381-.538M76.96,143.964l.11-15.88.24-.006q1.288-.033,2.577-.062l.255-.006-.11,15.487-.211.03c-.856.121-1.721.252-2.571.39Zm.6-15.4-.1,14.815c.689-.11,1.387-.215,2.08-.315l.1-14.55-2.081.05" transform="translate(-64.472 -109.394)" fill="#fff"/>
        <path id="Path_750" data-name="Path 750" d="M157.592,127.26q-.048,8.391-.1,16.783,1.3-.109,2.6-.193l.077-16.592,3.051,0q-.027,8.633-.054,17.266a2.032,2.032,0,0,1-2.059,1.7q-2.327.151-4.649.4a1.67,1.67,0,0,1-2.036-1.418l.118-17.941,3.051,0" transform="translate(-134.694 -110.999)" fill="#f05b15"/>
        <path id="Path_751" data-name="Path 751" d="M154.509,145.194a2.216,2.216,0,0,1-1.574-.6,1.492,1.492,0,0,1-.452-1.078l.12-18.187,3.546,0-.1,16.761c.7-.057,1.4-.11,2.1-.156l.077-16.607,3.546,0-.055,17.515a2.272,2.272,0,0,1-2.29,1.951c-1.542.1-3.1.233-4.639.395a2.666,2.666,0,0,1-.283.015m-1.414-19.373-.117,17.7a1.006,1.006,0,0,0,.308.726,1.8,1.8,0,0,0,1.453.444c1.543-.163,3.111-.3,4.659-.4.988-.065,1.826-.733,1.828-1.458l.053-17.018-2.556,0-.077,16.577-.231.015c-.856.055-1.727.12-2.59.193l-.27.023.1-16.8Z" transform="translate(-133.003 -109.308)" fill="#fff"/>
        <path id="Path_752" data-name="Path 752" d="M237.33,127.246q1.457,4.655,2.93,9.324-.007-4.662-.014-9.323H243.3q.03,9.431.06,18.862-1.815-.088-3.632-.12-1.548-5.061-3.079-10.074,0,5.031-.006,10.062-1.543.014-3.085.069.022-9.4.045-18.8h3.729" transform="translate(-203.719 -110.99)" fill="#f05b15"/>
        <path id="Path_753" data-name="Path 753" d="M241.911,144.678l-.26-.013c-1.2-.058-2.418-.1-3.624-.119l-.18,0-.586-1.914q-1.035-3.383-2.062-6.746l-.005,8.649-.245,0c-1.021.009-2.057.032-3.078.069l-.257.009.046-19.3h4.158l.054.174q1.216,3.886,2.443,7.779l-.012-7.952h3.546Zm-3.7-.624c1.065.02,2.139.055,3.2.1l-.059-18.355H238.8l.016,10.695-.526-1.673q-1.425-4.526-2.835-9.022h-3.3l-.044,18.3c.86-.029,1.729-.048,2.589-.058l.007-11.475.483,1.587q1.267,4.158,2.546,8.331Z" transform="translate(-202.024 -109.299)" fill="#fff"/>
        <path id="Path_754" data-name="Path 754" d="M315.19,129.709q-1.358-.014-2.716-.024,0-1.214-.008-2.427,4.238,0,8.476.008l.017,2.523q-1.357-.024-2.714-.043.05,8.418.1,16.836-1.536-.156-3.076-.272-.039-8.3-.078-16.6" transform="translate(-272.548 -111.001)" fill="#f05b15"/>
        <path id="Path_755" data-name="Path 755" d="M316.9,145.165l-.274-.028c-1.02-.1-2.053-.2-3.069-.271l-.228-.017-.078-16.586q-1.236-.012-2.471-.021l-.245,0-.01-2.921h.249q4.238,0,8.476.008h.246l.02,3.022-.253,0q-1.23-.021-2.461-.039Zm-3.079-.776c.856.066,1.721.142,2.58.228l-.1-16.813.253,0q1.231.017,2.462.038L319,125.822l-7.981-.007.007,1.934q1.236.009,2.471.022l.244,0Z" transform="translate(-270.851 -109.309)" fill="#fff"/>
        <path id="Path_756" data-name="Path 756" d="M387.175,139.149q-1.288-.134-2.577-.25.03,4.264.061,8.528-1.528-.238-3.062-.435-.066-9.835-.132-19.67l6.272.01a1.948,1.948,0,0,1,2.046,1.807q.024,3.665.048,7.331a1.267,1.267,0,0,1-1.04,1.367,2.064,2.064,0,0,1,1.433,1.923l.056,8.683q-1.518-.313-3.042-.585-.031-4.354-.061-8.709m-2.6-2.834q1.1.078,2.2.165-.023-3.259-.046-6.518-1.1-.027-2.2-.05.023,3.2.046,6.4" transform="translate(-332.731 -111.057)" fill="#f05b15"/>
        <path id="Path_757" data-name="Path 757" d="M388.827,147.056l-.3-.062c-1-.207-2.026-.4-3.036-.584l-.2-.036-.061-8.693c-.692-.071-1.39-.139-2.082-.2l.061,8.546-.288-.045c-1.012-.158-2.04-.3-3.055-.434l-.215-.028-.136-20.135h.25l6.272.01a2.194,2.194,0,0,1,2.293,2.052l.048,7.331a1.616,1.616,0,0,1-.658,1.385,2.348,2.348,0,0,1,1.051,1.9Zm-3.046-1.1c.848.153,1.7.317,2.547.489l-.054-8.378a1.821,1.821,0,0,0-1.254-1.687l-1.1-.319,1.131-.163a1.021,1.021,0,0,0,.827-1.12l-.048-7.331a1.7,1.7,0,0,0-1.8-1.561l-6.025-.01.129,19.2c.853.111,1.714.233,2.566.364l-.06-8.51.272.025c.856.077,1.724.161,2.581.25l.22.023Zm-.449-10.9-.269-.021c-.733-.058-1.473-.114-2.2-.165l-.229-.016-.049-6.887.255.005q1.1.024,2.2.05l.24.006Zm-2.208-.664c.567.04,1.14.083,1.709.128l-.043-6.008-1.709-.039Z" transform="translate(-331.029 -109.365)" fill="#fff"/>
        <path id="Path_758" data-name="Path 758" d="M452.073,142.134c-1.237-5.09-2.484-9.976-3.735-14.7l3.152.007q1.044,5.131,2.078,10.49.989-5.122,1.989-10.48l3.152.009c-1.219,5.287-2.419,10.335-3.611,15.183q.012,3.718.024,7.435-1.5-.4-3.013-.761-.018-3.594-.036-7.188" transform="translate(-391.062 -111.158)" fill="#f05b15"/>
        <path id="Path_759" data-name="Path 759" d="M453.171,148.711l-.313-.083c-1-.266-2.009-.522-3.007-.759l-.189-.045-.037-7.353c-1.182-4.866-2.4-9.662-3.727-14.663l-.083-.312,3.677.008.04.2c.626,3.077,1.242,6.177,1.835,9.233.578-3.009,1.165-6.1,1.746-9.219l.038-.2,3.669.011-.07.3c-1.2,5.221-2.416,10.321-3.6,15.157Zm-3.015-1.279c.836.2,1.681.414,2.518.635l-.023-7.143.007-.03c1.168-4.749,2.358-9.753,3.541-14.877l-2.636-.008c-.651,3.484-1.307,6.941-1.952,10.279l-.243,1.261-.243-1.261c-.654-3.4-1.339-6.856-2.037-10.29l-2.628-.006c1.3,4.9,2.493,9.612,3.654,14.389l.007.028v.029Z" transform="translate(-388.862 -109.463)" fill="#fff"/>
        <path id="Path_760" data-name="Path 760" d="M107.775,330.932a1.909,1.909,0,0,1,.449.5,1.628,1.628,0,0,1,.224.913V334.2h-5.99v-1.858a1.345,1.345,0,0,1,.256-.865,6.711,6.711,0,0,1,.48-.545.817.817,0,0,0,.208-.3l.08-.24V316.229q0-.32-.416-.32h-.817a1.694,1.694,0,0,1-.336-.032q-.288-.032-.753-.641a2.8,2.8,0,0,1-.464-1.73v-.641a4.957,4.957,0,0,0,1.858-.464,2.447,2.447,0,0,0,1.217-1.329,1.585,1.585,0,0,1,.48-.545,1.4,1.4,0,0,1,.929-.352h2.146v20.084a.6.6,0,0,0,.144.352,2.808,2.808,0,0,0,.24.288Z" transform="translate(-87.832 -270.549)" fill="#fff"/>
        <path id="Path_761" data-name="Path 761" d="M173.338,332.705a7.8,7.8,0,0,1-2.178-.288,4.6,4.6,0,0,1-1.714-.9A4.281,4.281,0,0,1,168.308,330a5.087,5.087,0,0,1-.416-2.13V313.005a5.088,5.088,0,0,1,.416-2.13,4.137,4.137,0,0,1,1.137-1.506,4.953,4.953,0,0,1,1.714-.9,7.4,7.4,0,0,1,2.178-.3,7.57,7.57,0,0,1,2.194.3,4.94,4.94,0,0,1,1.73.9,4.143,4.143,0,0,1,1.137,1.506,5.1,5.1,0,0,1,.416,2.13v14.863A5.1,5.1,0,0,1,178.4,330a4.288,4.288,0,0,1-1.137,1.522,4.6,4.6,0,0,1-1.73.9,7.974,7.974,0,0,1-2.194.288m1.89-19.316a2.195,2.195,0,0,0-.5-1.682,2.055,2.055,0,0,0-1.393-.433,2,2,0,0,0-1.361.433,2.193,2.193,0,0,0-.5,1.682v14.094a2.252,2.252,0,0,0,.5,1.7,1.954,1.954,0,0,0,1.361.449,1.883,1.883,0,0,0,1.393-.5,2.492,2.492,0,0,0,.5-1.778Z" transform="translate(-146.443 -268.799)" fill="#fff"/>
        <path id="Path_762" data-name="Path 762" d="M274.657,310.174a.809.809,0,0,1,.544.192.719.719,0,0,1,.224.577v3.4a1.172,1.172,0,0,1-.08.449.862.862,0,0,1-.144.256,18.712,18.712,0,0,0-1.778,3.139,18.129,18.129,0,0,0-1.089,3.379,31.269,31.269,0,0,0-.592,3.924q-.192,2.114-.288,4.773a.571.571,0,0,0,.128.417,3.23,3.23,0,0,0,.288.256,1.667,1.667,0,0,1,.448.705,3.65,3.65,0,0,1,.224,1.377V334.2h-5.894v-1.186a3.927,3.927,0,0,1,.176-1.153,2.033,2.033,0,0,1,.56-.929l.176-.176a.8.8,0,0,0,.144-.208c0-.171.005-.325.016-.464s.016-.283.016-.432l.032-.48q.192-2.4.4-4.533a33.443,33.443,0,0,1,.624-4,21.891,21.891,0,0,1,1.089-3.524,15.154,15.154,0,0,1,1.73-3.123q.1-.16-.016-.208a.491.491,0,0,0-.176-.048h-3.267a.813.813,0,0,0-.577.208.77.77,0,0,0-.224.593v1.345h-1.73a1.559,1.559,0,0,1-.881-.224,1.67,1.67,0,0,1-.513-.512,1.883,1.883,0,0,1-.24-.577,2.188,2.188,0,0,1-.064-.449v-2.723a1.193,1.193,0,0,1,.32-.929,1.565,1.565,0,0,1,1.057-.288h9.354Z" transform="translate(-230.209 -270.549)" fill="#fff"/>
        <path id="Path_763" data-name="Path 763" d="M371.269,372.591a.542.542,0,0,1,.364.128.481.481,0,0,1,.15.385v2.268a.78.78,0,0,1-.054.3.584.584,0,0,1-.1.171,12.5,12.5,0,0,0-1.188,2.1,12.117,12.117,0,0,0-.728,2.258,20.856,20.856,0,0,0-.4,2.621q-.129,1.412-.193,3.189a.382.382,0,0,0,.085.278,2.292,2.292,0,0,0,.193.171,1.113,1.113,0,0,1,.3.471,2.444,2.444,0,0,1,.15.92v.792h-3.938v-.792a2.619,2.619,0,0,1,.118-.77,1.357,1.357,0,0,1,.375-.621l.118-.118a.535.535,0,0,0,.1-.139c0-.114,0-.217.011-.31s.011-.189.011-.289l.021-.321q.129-1.6.268-3.028a22.383,22.383,0,0,1,.417-2.675,14.6,14.6,0,0,1,.728-2.354,10.113,10.113,0,0,1,1.156-2.086q.064-.107-.011-.139a.327.327,0,0,0-.118-.032h-2.183a.542.542,0,0,0-.385.139.513.513,0,0,0-.15.4v.9h-1.156a1.043,1.043,0,0,1-.589-.15,1.113,1.113,0,0,1-.342-.343,1.257,1.257,0,0,1-.161-.385,1.466,1.466,0,0,1-.043-.3V373.4a.8.8,0,0,1,.214-.62,1.042,1.042,0,0,1,.706-.193h6.249Z" transform="translate(-317.585 -324.992)" fill="#fff"/>
        <path id="Path_764" data-name="Path 764" d="M374.235,321.36H373.4v-.689h-.665v1.362h.856v.633h-.856v1.584h.253v.744h-1.322v-.744h.23v-3.579h-.238v-.745h2.582v1.434Z" transform="translate(-324.173 -279.055)" fill="#f05b15"/>
        <path id="Path_765" data-name="Path 765" d="M397.547,324.995h-1.307v-.744h.23v-1.608l-.729,2.352-.7-2.352v1.608h.222v.744h-1.291v-.744h.23v-3.579h-.238v-.745h1.489v.745h-.238l.538,1.956.539-1.956h-.254v-.745h1.5v.745h-.237v3.579h.237Z" transform="translate(-343.638 -279.055)" fill="#f05b15"/>
        <path id="Path_766" data-name="Path 766" d="M337.783,427.923l.732,1.482,1.635.238-1.183,1.153.279,1.629-1.463-.769-1.462.769.279-1.629-1.183-1.153,1.635-.238Z" transform="translate(-292.567 -373.255)" fill="#f05b15"/>
      </g>
    </g>
  </g>
</svg>
